<?xml version="1.0" encoding="UTF-8" standalone="no"?>
<!-- Created with Inkscape (http://www.inkscape.org/) -->

<svg
   xmlns:dc="http://purl.org/dc/elements/1.1/"
   xmlns:cc="http://creativecommons.org/ns#"
   xmlns:rdf="http://www.w3.org/1999/02/22-rdf-syntax-ns#"
   xmlns:svg="http://www.w3.org/2000/svg"
   xmlns="http://www.w3.org/2000/svg"
   xmlns:sodipodi="http://sodipodi.sourceforge.net/DTD/sodipodi-0.dtd"
   xmlns:inkscape="http://www.inkscape.org/namespaces/inkscape"
   width="744.09448819"
   height="1052.3622047"
   id="svg3885"
   version="1.1"
   inkscape:version="0.47 r22583"
   sodipodi:docname="glyphbox.svg"
   inkscape:export-filename="/home/jeff/projects/2010/27c3/glyphbox.png"
   inkscape:export-xdpi="22.507275"
   inkscape:export-ydpi="22.507275">
  <defs
     id="defs3887">
    <inkscape:perspective
       sodipodi:type="inkscape:persp3d"
       inkscape:vp_x="0 : 526.18109 : 1"
       inkscape:vp_y="0 : 1000 : 0"
       inkscape:vp_z="744.09448 : 526.18109 : 1"
       inkscape:persp3d-origin="372.04724 : 350.78739 : 1"
       id="perspective3893" />
    <inkscape:perspective
       id="perspective3903"
       inkscape:persp3d-origin="0.5 : 0.33333333 : 1"
       inkscape:vp_z="1 : 0.5 : 1"
       inkscape:vp_y="0 : 1000 : 0"
       inkscape:vp_x="0 : 0.5 : 1"
       sodipodi:type="inkscape:persp3d" />
    <inkscape:perspective
       id="perspective3943"
       inkscape:persp3d-origin="0.5 : 0.33333333 : 1"
       inkscape:vp_z="1 : 0.5 : 1"
       inkscape:vp_y="0 : 1000 : 0"
       inkscape:vp_x="0 : 0.5 : 1"
       sodipodi:type="inkscape:persp3d" />
  </defs>
  <sodipodi:namedview
     id="base"
     pagecolor="#ffffff"
     bordercolor="#666666"
     borderopacity="1.0"
     inkscape:pageopacity="1"
     inkscape:pageshadow="2"
     inkscape:zoom="0.175"
     inkscape:cx="-324.33677"
     inkscape:cy="968.60494"
     inkscape:document-units="px"
     inkscape:current-layer="layer1"
     showgrid="false"
     showborder="false"
     inkscape:window-width="1280"
     inkscape:window-height="727"
     inkscape:window-x="0"
     inkscape:window-y="25"
     inkscape:window-maximized="1" />
  <metadata
     id="metadata3890">
    <rdf:RDF>
      <cc:Work
         rdf:about="">
        <dc:format>image/svg+xml</dc:format>
        <dc:type
           rdf:resource="http://purl.org/dc/dcmitype/StillImage" />
        <dc:title></dc:title>
      </cc:Work>
    </rdf:RDF>
  </metadata>
  <g
     inkscape:label="Layer 1"
     inkscape:groupmode="layer"
     id="layer1"
     style="display:inline">
    <path
       style="fill:#000000;fill-opacity:1;stroke:#000000;stroke-width:9.12885189;stroke-linecap:butt;stroke-linejoin:miter;stroke-miterlimit:4;stroke-opacity:1;stroke-dasharray:none"
       d="M 304.28125 657.375 C 296.04145 657.375 287.8082 668.33075 281.125 690.21875 C 267.7586 733.99475 242.0921 839.15665 195.375 834.21875 C 148.6579 829.28075 136.75355 766.51085 82.40625 802.84375 C 28.05885 839.17655 -0.9789 839.0915 -33.875 833.375 C -66.7711 827.6585 -98.57685 805.50445 -136.71875 817.15625 C -177.62823 828.938 -223.85327 837.7911 -266.6875 840.8125 L -266.6875 943.28125 L 901.0625 943.28125 L 901.0625 841.90625 C 851.5762 841.28953 794.59377 831.34904 745.3125 817.15625 C 707.1706 805.50445 675.36485 827.6585 642.46875 833.375 C 633.91365 834.8617 625.6087 835.97285 617.0625 836.15625 C 592.7467 836.67805 566.4011 829.72775 526.1875 802.84375 C 471.8402 766.51085 459.93585 829.28075 413.21875 834.21875 C 366.50155 839.15665 340.83515 733.99475 327.46875 690.21875 C 320.78545 668.33075 312.52095 657.375 304.28125 657.375 z "
       id="use3839-7" />
    <path
       style="opacity:0.98999999;fill:#000000;fill-opacity:1;stroke:#000000;stroke-width:2.90131378;stroke-miterlimit:4;stroke-opacity:1;stroke-dasharray:none;stroke-dashoffset:0"
       d="m 300.27629,196.49171 -3.0625,2.15625 c 10.0311,78.32267 -4.88909,214.3866 -49.125,273.75 -5.29093,9.12773 -8.3125,19.62317 -8.3125,30.8125 0,34.97146 29.50626,63.34375 65.90625,63.34375 36.39998,0 65.90625,-28.37229 65.90625,-63.34375 0,-13.65293 -4.50711,-26.28338 -12.15625,-36.625 -42.59218,-64.18364 -44.74243,-215.04782 -59.15625,-270.09375 z"
       id="path2824-4-1" />
    <path
       style="opacity:0.98999999;fill:#000000;fill-opacity:1;stroke:#000000;stroke-width:35.43307114;stroke-miterlimit:4;stroke-opacity:1;stroke-dasharray:none;stroke-dashoffset:0"
       d="M 248.5466,19.330862 112.54874,181.677"
       id="path3647-8" />
    <path
       style="opacity:0.98999999;fill:#000000;fill-opacity:1;stroke:#000000;stroke-width:25.41447258;stroke-miterlimit:4;stroke-opacity:1;stroke-dasharray:none;stroke-dashoffset:0"
       d="m 179.45463,99.588272 0,0 z m 0,0 L 116.78506,-65.628067 5.8118983,66.845072 179.45463,99.588272 z"
       id="path3649-6"
       sodipodi:nodetypes="cccccc" />
    <path
       style="opacity:0.98999999;fill:#000000;fill-opacity:1;stroke:#000000;stroke-width:36;stroke-miterlimit:4;stroke-opacity:1;stroke-dasharray:none;stroke-dashoffset:0"
       d="M 61.590968,0.85353213 -58.747352,-99.954265"
       id="path3645-6-3" />
    <path
       id="path3873"
       style="opacity:0.98999999;fill:#000000;fill-opacity:1;stroke:none"
       d="m 288.40129,213.99171 c 11.69231,10.53766 9.23455,19.47372 10.36443,23.5512 l 8.40426,-10.77297 c -0.14864,-8.20817 -1.78363,-17.56857 4.01256,-39.96573 M 190.83879,85.991712 l -22.75,27.187498 120.3125,100.8125 22.78125,-27.1875 L 190.83879,85.991712 z"
       sodipodi:nodetypes="ccccccccc" />
  </g>
  <g
     inkscape:groupmode="layer"
     id="layer3"
     inkscape:label="box"
     style="display:inline">
    <rect
       style="opacity:0.98999999000000005;fill:none;stroke:#000000;stroke-width:45;stroke-linecap:butt;stroke-linejoin:miter;stroke-miterlimit:4;stroke-opacity:1;stroke-dasharray:none;display:inline"
       id="rect3881"
       width="1154.6122"
       height="1154.6122"
       x="-258.7435"
       y="-218.82562" />
  </g>
</svg>
