<?xml version="1.0" encoding="UTF-8" standalone="no"?>
<!-- Created with Inkscape (http://www.inkscape.org/) -->

<svg
   xmlns:dc="http://purl.org/dc/elements/1.1/"
   xmlns:cc="http://creativecommons.org/ns#"
   xmlns:rdf="http://www.w3.org/1999/02/22-rdf-syntax-ns#"
   xmlns:svg="http://www.w3.org/2000/svg"
   xmlns="http://www.w3.org/2000/svg"
   xmlns:sodipodi="http://sodipodi.sourceforge.net/DTD/sodipodi-0.dtd"
   xmlns:inkscape="http://www.inkscape.org/namespaces/inkscape"
   width="744.09448819"
   height="1052.3622047"
   id="svg2"
   version="1.1"
   inkscape:version="0.47 r22583"
   sodipodi:docname="New document 1">
  <defs
     id="defs4">
    <inkscape:perspective
       sodipodi:type="inkscape:persp3d"
       inkscape:vp_x="0 : 526.18109 : 1"
       inkscape:vp_y="0 : 1000 : 0"
       inkscape:vp_z="744.09448 : 526.18109 : 1"
       inkscape:persp3d-origin="372.04724 : 350.78739 : 1"
       id="perspective10" />
    <inkscape:perspective
       id="perspective3631"
       inkscape:persp3d-origin="0.5 : 0.33333333 : 1"
       inkscape:vp_z="1 : 0.5 : 1"
       inkscape:vp_y="0 : 1000 : 0"
       inkscape:vp_x="0 : 0.5 : 1"
       sodipodi:type="inkscape:persp3d" />
    <inkscape:perspective
       id="perspective3653"
       inkscape:persp3d-origin="0.5 : 0.33333333 : 1"
       inkscape:vp_z="1 : 0.5 : 1"
       inkscape:vp_y="0 : 1000 : 0"
       inkscape:vp_x="0 : 0.5 : 1"
       sodipodi:type="inkscape:persp3d" />
    <inkscape:perspective
       id="perspective3677"
       inkscape:persp3d-origin="0.5 : 0.33333333 : 1"
       inkscape:vp_z="1 : 0.5 : 1"
       inkscape:vp_y="0 : 1000 : 0"
       inkscape:vp_x="0 : 0.5 : 1"
       sodipodi:type="inkscape:persp3d" />
    <inkscape:perspective
       id="perspective3703"
       inkscape:persp3d-origin="0.5 : 0.33333333 : 1"
       inkscape:vp_z="1 : 0.5 : 1"
       inkscape:vp_y="0 : 1000 : 0"
       inkscape:vp_x="0 : 0.5 : 1"
       sodipodi:type="inkscape:persp3d" />
  </defs>
  <sodipodi:namedview
     id="base"
     pagecolor="#000000"
     bordercolor="#666666"
     borderopacity="1.0"
     inkscape:pageopacity="1"
     inkscape:pageshadow="2"
     inkscape:zoom="0.98994949"
     inkscape:cx="354.03429"
     inkscape:cy="741.31007"
     inkscape:document-units="mm"
     inkscape:current-layer="layer1"
     showgrid="true"
     showguides="true"
     inkscape:guide-bbox="true"
     inkscape:window-width="1280"
     inkscape:window-height="727"
     inkscape:window-x="0"
     inkscape:window-y="25"
     inkscape:window-maximized="1">
    <inkscape:grid
       type="xygrid"
       id="grid2818"
       empspacing="5"
       visible="true"
       enabled="true"
       snapvisiblegridlinesonly="true" />
    <sodipodi:guide
       orientation="-0.70710678,0.70710678"
       position="70,815"
       id="guide3693" />
  </sodipodi:namedview>
  <metadata
     id="metadata7">
    <rdf:RDF>
      <cc:Work
         rdf:about="">
        <dc:format>image/svg+xml</dc:format>
        <dc:type
           rdf:resource="http://purl.org/dc/dcmitype/StillImage" />
        <dc:title></dc:title>
      </cc:Work>
    </rdf:RDF>
  </metadata>
  <g
     inkscape:groupmode="layer"
     id="layer2"
     inkscape:label="ink"
     style="display:inline"
     sodipodi:insensitive="true">
    <path
       style="fill:#0000ff;stroke:#000000;stroke-width:1px;stroke-linecap:butt;stroke-linejoin:miter;stroke-opacity:1"
       d="m 75,97.375 0,185 80,35 5,0 0,-10 35,0 0,45 -25,0 0,50 370,0 0,-50 -310,0 0,-45 30,0 0,14.40625 25,-14.40625 0,-210 -210,0 z"
       id="path3734" />
    <path
       style="opacity:0.98999999;fill:#0000ff;fill-opacity:1;stroke:none"
       d="m 397,401.36218 26,0 -7,6 c -3.09986,-1.20746 -6.20095,-2.57544 -12,0 l -7,-6 z"
       id="rect3741"
       sodipodi:nodetypes="ccccc" />
  </g>
  <g
     inkscape:label="Layer 1"
     inkscape:groupmode="layer"
     id="layer1"
     style="display:inline">
    <path
       style="opacity:0.98999999;fill:#999999;stroke:none"
       d="M 193 242.375 L 185 272.375 L 185 342.375 L 160 342.375 L 160 347.375 L 160 352.375 L 160 362.375 L 160 367.375 L 160 407.375 L 165 407.375 L 405 407.375 L 380 382.375 L 320 382.375 L 300 362.375 L 170 362.375 L 170 352.375 L 200 352.375 L 200 242.375 L 193 242.375 z M 220 242.375 L 220 352.375 L 540 352.375 L 510 382.375 L 470 382.375 L 440 382.375 L 415 407.375 L 555 407.375 L 555 352.375 L 555 342.375 L 235 342.375 L 235 272.375 L 226.96875 242.375 L 220 242.375 z "
       id="rect2822" />
    <rect
       style="opacity:0.98999999;fill:#ff0000;fill-opacity:1;stroke:none"
       id="rect3596"
       width="160"
       height="15"
       x="330"
       y="327.33655" />
    <path
       style="opacity:0.98999999;fill:#4d4d4d;fill-opacity:1;stroke:none"
       d="m 70,73.237183 0,204.999997 0,10 85,35 10,0 0,-30 -10,0 0,20 -75,-30.875 0,-209.124997 -10,0 z"
       id="rect3621"
       sodipodi:nodetypes="ccccccccccc" />
    <path
       style="opacity:0.98999999;fill:#4d4d4d;fill-opacity:1;stroke:none"
       d="m 280,73.237183 0,233.812497 -15,6.1875 0,-20 -10,0 0,30 10,0 25,-10.28125 0,-10 0,-229.718747 -10,0 z"
       id="rect3621-0"
       sodipodi:nodetypes="ccccccccccc" />
    <path
       sodipodi:type="arc"
       style="opacity:0.98999999;fill:#008000;fill-opacity:1;stroke:none"
       id="path3667"
       sodipodi:cx="110"
       sodipodi:cy="292.36218"
       sodipodi:rx="20"
       sodipodi:ry="20"
       d="m 130,292.36218 a 20,20 0 1 1 -40,0 20,20 0 1 1 40,0 z"
       transform="matrix(0.5,0,0,0.5,120,162.04327)" />
    <path
       sodipodi:type="arc"
       style="opacity:0.98999999;fill:#008000;fill-opacity:1;stroke:none"
       id="path3667-5"
       sodipodi:cx="110"
       sodipodi:cy="292.36218"
       sodipodi:rx="20"
       sodipodi:ry="20"
       d="m 130,292.36218 a 20,20 0 1 1 -40,0 20,20 0 1 1 40,0 z"
       transform="matrix(0.5,0,0,0.5,190,162.04327)" />
  </g>
</svg>
