<?xml version="1.0" encoding="UTF-8" standalone="no"?>
<!-- Created with Inkscape (http://www.inkscape.org/) -->

<svg
   xmlns:dc="http://purl.org/dc/elements/1.1/"
   xmlns:cc="http://creativecommons.org/ns#"
   xmlns:rdf="http://www.w3.org/1999/02/22-rdf-syntax-ns#"
   xmlns:svg="http://www.w3.org/2000/svg"
   xmlns="http://www.w3.org/2000/svg"
   xmlns:sodipodi="http://sodipodi.sourceforge.net/DTD/sodipodi-0.dtd"
   xmlns:inkscape="http://www.inkscape.org/namespaces/inkscape"
   width="744.09448819"
   height="1052.3622047"
   id="svg2"
   version="1.1"
   inkscape:version="0.47 r22583"
   sodipodi:docname="printhead-ot.svg"
   inkscape:export-filename="/home/jeff/projects/2010/plumbercon/images/printhead-out.png"
   inkscape:export-xdpi="90"
   inkscape:export-ydpi="90">
  <defs
     id="defs4">
    <inkscape:perspective
       sodipodi:type="inkscape:persp3d"
       inkscape:vp_x="0 : 526.18109 : 1"
       inkscape:vp_y="0 : 1000 : 0"
       inkscape:vp_z="744.09448 : 526.18109 : 1"
       inkscape:persp3d-origin="372.04724 : 350.78739 : 1"
       id="perspective10" />
    <inkscape:perspective
       id="perspective3631"
       inkscape:persp3d-origin="0.5 : 0.33333333 : 1"
       inkscape:vp_z="1 : 0.5 : 1"
       inkscape:vp_y="0 : 1000 : 0"
       inkscape:vp_x="0 : 0.5 : 1"
       sodipodi:type="inkscape:persp3d" />
    <inkscape:perspective
       id="perspective3653"
       inkscape:persp3d-origin="0.5 : 0.33333333 : 1"
       inkscape:vp_z="1 : 0.5 : 1"
       inkscape:vp_y="0 : 1000 : 0"
       inkscape:vp_x="0 : 0.5 : 1"
       sodipodi:type="inkscape:persp3d" />
    <inkscape:perspective
       id="perspective3677"
       inkscape:persp3d-origin="0.5 : 0.33333333 : 1"
       inkscape:vp_z="1 : 0.5 : 1"
       inkscape:vp_y="0 : 1000 : 0"
       inkscape:vp_x="0 : 0.5 : 1"
       sodipodi:type="inkscape:persp3d" />
    <inkscape:perspective
       id="perspective3703"
       inkscape:persp3d-origin="0.5 : 0.33333333 : 1"
       inkscape:vp_z="1 : 0.5 : 1"
       inkscape:vp_y="0 : 1000 : 0"
       inkscape:vp_x="0 : 0.5 : 1"
       sodipodi:type="inkscape:persp3d" />
  </defs>
  <sodipodi:namedview
     id="base"
     pagecolor="#000000"
     bordercolor="#666666"
     borderopacity="1.0"
     inkscape:pageopacity="1"
     inkscape:pageshadow="2"
     inkscape:zoom="2.8284271"
     inkscape:cx="409.4043"
     inkscape:cy="619.45108"
     inkscape:document-units="mm"
     inkscape:current-layer="layer2"
     showgrid="true"
     showguides="true"
     inkscape:guide-bbox="true"
     inkscape:window-width="1280"
     inkscape:window-height="727"
     inkscape:window-x="0"
     inkscape:window-y="25"
     inkscape:window-maximized="1"
     inkscape:snap-global="false">
    <inkscape:grid
       type="xygrid"
       id="grid2818"
       empspacing="5"
       visible="true"
       enabled="true"
       snapvisiblegridlinesonly="true" />
    <sodipodi:guide
       orientation="-0.70710678,0.70710678"
       position="70,815"
       id="guide3693" />
  </sodipodi:namedview>
  <metadata
     id="metadata7">
    <rdf:RDF>
      <cc:Work
         rdf:about="">
        <dc:format>image/svg+xml</dc:format>
        <dc:type
           rdf:resource="http://purl.org/dc/dcmitype/StillImage" />
        <dc:title></dc:title>
      </cc:Work>
    </rdf:RDF>
  </metadata>
  <g
     inkscape:groupmode="layer"
     id="layer2"
     inkscape:label="ink"
     style="display:inline">
    <path
       style="fill:#0000ff;stroke:#000000;stroke-width:1px;stroke-linecap:butt;stroke-linejoin:miter;stroke-opacity:1"
       d="m 75,97.375 0,185 80,35 5,0 0,-10 35,0 0,45 -25,0 0,50 370,0 2,-52.01282 c -107.66359,4.09107 -193.59504,2.29422 -252,2 l -60,0.0128 0,-45 30,0 0,14.40625 25,-14.40625 0,-210 -210,0 0,2e-5 z"
       id="path3734"
       sodipodi:nodetypes="cccccccccccccccccccc" />
    <path
       style="opacity:0.98999999;fill:#0000ff;fill-opacity:1;stroke:none"
       d="m 397,401.36218 26,0 -8,6 c -3.3657,1.29456 -6.69373,1.08242 -10,0 l -8,-6 z"
       id="rect3741"
       sodipodi:nodetypes="ccccc" />
    <path
       style="opacity:0.98999999;fill:#0000ff;fill-opacity:1;stroke:none"
       d="m 410,437.375 c -1.45334,9.47647 -5.46353,21.66958 -12.25,36.8125 -0.47346,1.39092 -0.75,2.8864 -0.75,4.4375 0,7.59391 6.15609,13.75 13.75,13.75 7.59391,0 13.75,-6.15609 13.75,-13.75 0,-1.73687 -0.34988,-3.40752 -0.9375,-4.9375 C 417.87478,462.28347 410.95625,451.61792 410,437.375 z"
       id="path3811"
       sodipodi:nodetypes="ccssscc" />
  </g>
  <g
     inkscape:label="Layer 1"
     inkscape:groupmode="layer"
     id="layer1"
     style="display:inline">
    <path
       style="opacity:0.98999999;fill:#999999;stroke:none"
       d="m 193,242.375 -8,30 0,70 -25,0 0,5 0,5 0,10 0,5 0,40 5,0 240,0 -25,-25 -60,0 -20,-20 -130,0 0,-10 30,0 0,-110 -7,0 z m 27,0 0,110 80,-0.0128 c 77.49667,16.37319 156.46098,7.08152 240,0.0128 l -30,30 -40,0 -30,0 -25,25 140,0 0,-55 0,-10.01282 -15,0 c -83.99857,5.68059 -166.80917,14.17693 -240,0 l -65,0 0,-69.98718 -8.03125,-30 -6.96875,0 z"
       id="rect2822"
       sodipodi:nodetypes="cccccccccccccccccccccccccccccccccccc" />
    <path
       style="opacity:0.98999999;fill:#ff0000;fill-opacity:1;stroke:none"
       d="m 330,332.36218 c 59.38988,3.38687 116.6594,3.79281 160,-1 l 0,15 c -55.11059,4.02929 -108.31543,5.59597 -160,1 l 0,-15 z"
       id="rect3596"
       sodipodi:nodetypes="ccccc" />
    <path
       style="opacity:0.98999999;fill:#4d4d4d;fill-opacity:1;stroke:none"
       d="m 70,73.237183 0,204.999997 0,10 85,35 10,0 0,-30 -10,0 0,20 -75,-30.875 0,-209.124997 -10,0 z"
       id="rect3621"
       sodipodi:nodetypes="ccccccccccc" />
    <path
       style="opacity:0.98999999;fill:#4d4d4d;fill-opacity:1;stroke:none"
       d="m 280,73.237183 0,233.812497 -15,6.1875 0,-20 -10,0 0,30 10,0 25,-10.28125 0,-10 0,-229.718747 -10,0 z"
       id="rect3621-0"
       sodipodi:nodetypes="ccccccccccc" />
    <path
       sodipodi:type="arc"
       style="opacity:0.98999999;fill:#008000;fill-opacity:1;stroke:none"
       id="path3667"
       sodipodi:cx="110"
       sodipodi:cy="292.36218"
       sodipodi:rx="20"
       sodipodi:ry="20"
       d="m 130,292.36218 a 20,20 0 1 1 -40,0 20,20 0 1 1 40,0 z"
       transform="matrix(0.5,0,0,0.5,120,162.04327)" />
    <path
       sodipodi:type="arc"
       style="opacity:0.98999999;fill:#008000;fill-opacity:1;stroke:none"
       id="path3667-5"
       sodipodi:cx="110"
       sodipodi:cy="292.36218"
       sodipodi:rx="20"
       sodipodi:ry="20"
       d="m 130,292.36218 a 20,20 0 1 1 -40,0 20,20 0 1 1 40,0 z"
       transform="matrix(0.5,0,0,0.5,190,162.04327)" />
  </g>
</svg>
