<?xml version="1.0" encoding="UTF-8" standalone="no"?>
<!-- Created with Inkscape (http://www.inkscape.org/) -->

<svg
   xmlns:dc="http://purl.org/dc/elements/1.1/"
   xmlns:cc="http://creativecommons.org/ns#"
   xmlns:rdf="http://www.w3.org/1999/02/22-rdf-syntax-ns#"
   xmlns:svg="http://www.w3.org/2000/svg"
   xmlns="http://www.w3.org/2000/svg"
   xmlns:sodipodi="http://sodipodi.sourceforge.net/DTD/sodipodi-0.dtd"
   xmlns:inkscape="http://www.inkscape.org/namespaces/inkscape"
   width="744.09448"
   height="1052.3622"
   id="svg2"
   sodipodi:version="0.32"
   inkscape:version="0.48.0 r9654"
   sodipodi:docname="block-mk2.svg"
   inkscape:output_extension="org.inkscape.output.svg.inkscape"
   version="1.1">
  <defs
     id="defs4">
    <inkscape:perspective
       id="perspective915"
       inkscape:persp3d-origin="0.5 : 0.33333333 : 1"
       inkscape:vp_z="1 : 0.5 : 1"
       inkscape:vp_y="0 : 1000 : 0"
       inkscape:vp_x="0 : 0.5 : 1"
       sodipodi:type="inkscape:persp3d" />
    <inkscape:perspective
       id="perspective915-5"
       inkscape:persp3d-origin="0.5 : 0.33333333 : 1"
       inkscape:vp_z="1 : 0.5 : 1"
       inkscape:vp_y="0 : 1000 : 0"
       inkscape:vp_x="0 : 0.5 : 1"
       sodipodi:type="inkscape:persp3d" />
    <inkscape:perspective
       id="perspective915-3"
       inkscape:persp3d-origin="0.5 : 0.33333333 : 1"
       inkscape:vp_z="1 : 0.5 : 1"
       inkscape:vp_y="0 : 1000 : 0"
       inkscape:vp_x="0 : 0.5 : 1"
       sodipodi:type="inkscape:persp3d" />
    <inkscape:perspective
       id="perspective915-58"
       inkscape:persp3d-origin="0.5 : 0.33333333 : 1"
       inkscape:vp_z="1 : 0.5 : 1"
       inkscape:vp_y="0 : 1000 : 0"
       inkscape:vp_x="0 : 0.5 : 1"
       sodipodi:type="inkscape:persp3d" />
    <inkscape:perspective
       id="perspective915-0"
       inkscape:persp3d-origin="0.5 : 0.33333333 : 1"
       inkscape:vp_z="1 : 0.5 : 1"
       inkscape:vp_y="0 : 1000 : 0"
       inkscape:vp_x="0 : 0.5 : 1"
       sodipodi:type="inkscape:persp3d" />
    <inkscape:perspective
       id="perspective915-580"
       inkscape:persp3d-origin="0.5 : 0.33333333 : 1"
       inkscape:vp_z="1 : 0.5 : 1"
       inkscape:vp_y="0 : 1000 : 0"
       inkscape:vp_x="0 : 0.5 : 1"
       sodipodi:type="inkscape:persp3d" />
    <inkscape:perspective
       id="perspective915-4"
       inkscape:persp3d-origin="0.5 : 0.33333333 : 1"
       inkscape:vp_z="1 : 0.5 : 1"
       inkscape:vp_y="0 : 1000 : 0"
       inkscape:vp_x="0 : 0.5 : 1"
       sodipodi:type="inkscape:persp3d" />
    <inkscape:perspective
       id="perspective915-1"
       inkscape:persp3d-origin="0.5 : 0.33333333 : 1"
       inkscape:vp_z="1 : 0.5 : 1"
       inkscape:vp_y="0 : 1000 : 0"
       inkscape:vp_x="0 : 0.5 : 1"
       sodipodi:type="inkscape:persp3d" />
    <inkscape:perspective
       id="perspective1002"
       inkscape:persp3d-origin="0.5 : 0.33333333 : 1"
       inkscape:vp_z="1 : 0.5 : 1"
       inkscape:vp_y="0 : 1000 : 0"
       inkscape:vp_x="0 : 0.5 : 1"
       sodipodi:type="inkscape:persp3d" />
    <inkscape:perspective
       id="perspective1024"
       inkscape:persp3d-origin="0.5 : 0.33333333 : 1"
       inkscape:vp_z="1 : 0.5 : 1"
       inkscape:vp_y="0 : 1000 : 0"
       inkscape:vp_x="0 : 0.5 : 1"
       sodipodi:type="inkscape:persp3d" />
    <inkscape:perspective
       id="perspective1024-6"
       inkscape:persp3d-origin="0.5 : 0.33333333 : 1"
       inkscape:vp_z="1 : 0.5 : 1"
       inkscape:vp_y="0 : 1000 : 0"
       inkscape:vp_x="0 : 0.5 : 1"
       sodipodi:type="inkscape:persp3d" />
    <inkscape:perspective
       id="perspective1024-3"
       inkscape:persp3d-origin="0.5 : 0.33333333 : 1"
       inkscape:vp_z="1 : 0.5 : 1"
       inkscape:vp_y="0 : 1000 : 0"
       inkscape:vp_x="0 : 0.5 : 1"
       sodipodi:type="inkscape:persp3d" />
    <inkscape:perspective
       id="perspective1024-8"
       inkscape:persp3d-origin="0.5 : 0.33333333 : 1"
       inkscape:vp_z="1 : 0.5 : 1"
       inkscape:vp_y="0 : 1000 : 0"
       inkscape:vp_x="0 : 0.5 : 1"
       sodipodi:type="inkscape:persp3d" />
    <inkscape:perspective
       id="perspective1024-5"
       inkscape:persp3d-origin="0.5 : 0.33333333 : 1"
       inkscape:vp_z="1 : 0.5 : 1"
       inkscape:vp_y="0 : 1000 : 0"
       inkscape:vp_x="0 : 0.5 : 1"
       sodipodi:type="inkscape:persp3d" />
    <inkscape:perspective
       id="perspective1024-1"
       inkscape:persp3d-origin="0.5 : 0.33333333 : 1"
       inkscape:vp_z="1 : 0.5 : 1"
       inkscape:vp_y="0 : 1000 : 0"
       inkscape:vp_x="0 : 0.5 : 1"
       sodipodi:type="inkscape:persp3d" />
    <inkscape:perspective
       id="perspective1024-7"
       inkscape:persp3d-origin="0.5 : 0.33333333 : 1"
       inkscape:vp_z="1 : 0.5 : 1"
       inkscape:vp_y="0 : 1000 : 0"
       inkscape:vp_x="0 : 0.5 : 1"
       sodipodi:type="inkscape:persp3d" />
    <inkscape:perspective
       id="perspective1024-2"
       inkscape:persp3d-origin="0.5 : 0.33333333 : 1"
       inkscape:vp_z="1 : 0.5 : 1"
       inkscape:vp_y="0 : 1000 : 0"
       inkscape:vp_x="0 : 0.5 : 1"
       sodipodi:type="inkscape:persp3d" />
    <inkscape:perspective
       id="perspective1132"
       inkscape:persp3d-origin="0.5 : 0.33333333 : 1"
       inkscape:vp_z="1 : 0.5 : 1"
       inkscape:vp_y="0 : 1000 : 0"
       inkscape:vp_x="0 : 0.5 : 1"
       sodipodi:type="inkscape:persp3d" />
    <inkscape:perspective
       id="perspective1132-8"
       inkscape:persp3d-origin="0.5 : 0.33333333 : 1"
       inkscape:vp_z="1 : 0.5 : 1"
       inkscape:vp_y="0 : 1000 : 0"
       inkscape:vp_x="0 : 0.5 : 1"
       sodipodi:type="inkscape:persp3d" />
  </defs>
  <sodipodi:namedview
     id="base"
     pagecolor="#ffffff"
     bordercolor="#666666"
     borderopacity="1.0"
     inkscape:pageopacity="0.0"
     inkscape:pageshadow="2"
     inkscape:zoom="5.7213136"
     inkscape:cx="83.474124"
     inkscape:cy="947.83786"
     inkscape:document-units="mm"
     inkscape:current-layer="g3113"
     showgrid="true"
     showguides="false"
     inkscape:guide-bbox="true"
     inkscape:snap-bbox="true"
     inkscape:object-nodes="true"
     inkscape:snap-smooth-nodes="true"
     inkscape:snap-global="false"
     inkscape:window-width="1366"
     inkscape:window-height="694"
     inkscape:window-x="0"
     inkscape:window-y="25"
     inkscape:window-maximized="1">
    <inkscape:grid
       type="xygrid"
       id="grid824"
       empspacing="10"
       visible="true"
       enabled="true"
       snapvisiblegridlinesonly="true"
       units="mm"
       spacingx="0.1mm"
       spacingy="0.1mm" />
    <sodipodi:guide
       orientation="0,1"
       position="63.779528,903.5433"
       id="guide826" />
    <sodipodi:guide
       orientation="0,1"
       position="72.623278,992.13706"
       id="guide828" />
    <sodipodi:guide
       orientation="0,1"
       position="58.421875,980.25"
       id="guide862" />
    <sodipodi:guide
       orientation="0,1"
       position="44.755754,937.20312"
       id="guide886" />
    <sodipodi:guide
       orientation="1,0"
       position="72.282027,911.40672"
       id="guide124" />
    <sodipodi:guide
       orientation="1,0"
       position="113.38261,911.89768"
       id="guide938" />
  </sodipodi:namedview>
  <metadata
     id="metadata7">
    <rdf:RDF>
      <cc:Work
         rdf:about="">
        <dc:format>image/svg+xml</dc:format>
        <dc:type
           rdf:resource="http://purl.org/dc/dcmitype/StillImage" />
        <dc:title />
      </cc:Work>
    </rdf:RDF>
  </metadata>
  <g
     inkscape:label="Layer 1"
     inkscape:groupmode="layer"
     id="layer1"
     style="display:none"
     sodipodi:insensitive="true">
    <path
       sodipodi:type="arc"
       style="fill:none;stroke:#000000;stroke-width:0.48701301;stroke-linecap:round;stroke-linejoin:miter;stroke-miterlimit:4;stroke-opacity:1;stroke-dasharray:none;stroke-dashoffset:0"
       id="path820"
       sodipodi:cx="73.928574"
       sodipodi:cy="56.647896"
       sodipodi:rx="2.6785715"
       sodipodi:ry="2.6785715"
       d="m 76.607145,56.647896 a 2.6785715,2.6785715 0 1 1 -5.357143,0 2.6785715,2.6785715 0 1 1 5.357143,0 z"
       transform="matrix(0.72755904,0,0,0.72755904,62.257753,52.682654)" />
    <path
       sodipodi:type="arc"
       style="fill:none;stroke:#000000;stroke-width:0.48701301;stroke-linecap:round;stroke-linejoin:miter;stroke-miterlimit:4;stroke-opacity:1;stroke-dasharray:none;stroke-dashoffset:0"
       id="path820-4"
       sodipodi:cx="73.928574"
       sodipodi:cy="56.647896"
       sodipodi:rx="2.6785715"
       sodipodi:ry="2.6785715"
       d="m 76.607145,56.647896 a 2.6785715,2.6785715 0 1 1 -5.357143,0 2.6785715,2.6785715 0 1 1 5.357143,0 z"
       transform="matrix(0.72755904,0,0,0.72755904,14.414001,52.682654)" />
    <path
       sodipodi:type="arc"
       style="fill:none;stroke:#000000;stroke-width:0.48701301;stroke-linecap:round;stroke-linejoin:miter;stroke-miterlimit:4;stroke-opacity:1;stroke-dasharray:none;stroke-dashoffset:0"
       id="path820-4-9"
       sodipodi:cx="73.928574"
       sodipodi:cy="56.647896"
       sodipodi:rx="2.6785715"
       sodipodi:ry="2.6785715"
       d="m 76.607145,56.647896 a 2.6785715,2.6785715 0 1 1 -5.357143,0 2.6785715,2.6785715 0 1 1 5.357143,0 z"
       transform="matrix(0.72755904,0,0,0.72755904,14.414001,31.420934)" />
    <path
       sodipodi:type="arc"
       style="fill:none;stroke:#000000;stroke-width:0.48701301;stroke-linecap:round;stroke-linejoin:miter;stroke-miterlimit:4;stroke-opacity:1;stroke-dasharray:none;stroke-dashoffset:0"
       id="path820-4-5"
       sodipodi:cx="73.928574"
       sodipodi:cy="56.647896"
       sodipodi:rx="2.6785715"
       sodipodi:ry="2.6785715"
       d="m 76.607145,56.647896 a 2.6785715,2.6785715 0 1 1 -5.357143,0 2.6785715,2.6785715 0 1 1 5.357143,0 z"
       transform="matrix(0.72755904,0,0,0.72755904,14.414001,73.94277)" />
    <path
       sodipodi:type="arc"
       style="fill:none;stroke:#000000;stroke-width:0.3603363;stroke-linecap:round;stroke-linejoin:miter;stroke-miterlimit:4;stroke-opacity:1;stroke-dasharray:none;stroke-dashoffset:0"
       id="path912"
       sodipodi:cx="60.236221"
       sodipodi:cy="46.062969"
       sodipodi:rx="10.629921"
       sodipodi:ry="10.629921"
       d="m 70.866142,46.062969 a 10.629921,10.629921 0 1 1 -21.259842,0 10.629921,10.629921 0 1 1 21.259842,0 z"
       transform="matrix(0.98333336,0,0,0.98333336,11.45669,27.340368)" />
    <path
       sodipodi:type="arc"
       style="fill:none;stroke:#000000;stroke-width:0.3603363;stroke-linecap:round;stroke-linejoin:miter;stroke-miterlimit:4;stroke-opacity:1;stroke-dasharray:none;stroke-dashoffset:0"
       id="path912-2"
       sodipodi:cx="60.236221"
       sodipodi:cy="46.062969"
       sodipodi:rx="10.629921"
       sodipodi:ry="10.629921"
       d="m 70.866142,46.062969 a 10.629921,10.629921 0 1 1 -21.259842,0 10.629921,10.629921 0 1 1 21.259842,0 z"
       transform="matrix(0.98333336,0,0,0.98333336,11.45669,50.374015)" />
    <path
       sodipodi:type="arc"
       style="fill:none;stroke:#000000;stroke-width:0.3603363;stroke-linecap:round;stroke-linejoin:miter;stroke-miterlimit:4;stroke-opacity:1;stroke-dasharray:none;stroke-dashoffset:0"
       id="path912-0"
       sodipodi:cx="60.236221"
       sodipodi:cy="46.062969"
       sodipodi:rx="10.629921"
       sodipodi:ry="10.629921"
       d="m 70.866142,46.062969 a 10.629921,10.629921 0 1 1 -21.259842,0 10.629921,10.629921 0 1 1 21.259842,0 z"
       transform="matrix(0.98333336,0,0,0.98333336,11.45669,73.405511)" />
    <path
       sodipodi:type="arc"
       style="fill:none;stroke:#000000;stroke-width:0.26911193;stroke-linecap:round;stroke-linejoin:miter;stroke-miterlimit:4;stroke-opacity:1;stroke-dasharray:none;stroke-dashoffset:0"
       id="path912-7"
       sodipodi:cx="60.236221"
       sodipodi:cy="46.062969"
       sodipodi:rx="10.629921"
       sodipodi:ry="10.629921"
       d="m 70.866142,46.062969 a 10.629921,10.629921 0 1 1 -21.259842,0 10.629921,10.629921 0 1 1 21.259842,0 z"
       transform="matrix(1.3166667,0,0,1.3166667,30.531493,40.157487)" />
    <path
       id="rect3879"
       style="fill:none;stroke:#000000;stroke-width:0.35433072;stroke-linecap:round;stroke-linejoin:miter;stroke-miterlimit:4;stroke-opacity:1;stroke-dashoffset:0"
       d="m 108.07087,60.236198 0,42.380092 3.89763,15.42127 0,30.78132 m -38.622043,0 0,-21.88488 6.023622,-17.64537 0,-49.052432 m -22.677166,-0.01107 70.866147,0.01107 0,88.582682 -70.866147,0 z"
       inkscape:connector-curvature="0"
       sodipodi:nodetypes="ccccccccccccc" />
  </g>
  <g
     inkscape:groupmode="layer"
     id="layer9"
     inkscape:label="nozzleplate"
     style="display:none"
     sodipodi:insensitive="true">
    <rect
       y="60.407829"
       x="63.068161"
       height="88.228348"
       width="58.110237"
       id="rect3135"
       style="fill:none;stroke:#000000;stroke-width:0.35433072;stroke-linecap:round;stroke-linejoin:miter;stroke-miterlimit:4;stroke-opacity:1;stroke-dasharray:none;stroke-dashoffset:0;display:inline" />
  </g>
  <g
     inkscape:groupmode="layer"
     id="layer2"
     inkscape:label="to220"
     style="display:none"
     sodipodi:insensitive="true">
    <path
       id="rect993"
       style="fill:none;stroke:#000000;stroke-width:0.35433072;stroke-linecap:round;stroke-linejoin:miter;stroke-miterlimit:4;stroke-opacity:1;stroke-dashoffset:0"
       d="m 131.10236,95.669269 -3.5433,0 0,-35.433067 3.5433,0 m 0,0 10.62993,1.771652 0,31.889765 -10.62993,1.77165 0,-35.433067 z"
       sodipodi:nodetypes="ccccccccc"
       inkscape:connector-curvature="0" />
    <path
       id="rect993-0"
       style="fill:none;stroke:#000000;stroke-width:0.35433072;stroke-linecap:round;stroke-linejoin:miter;stroke-miterlimit:4;stroke-opacity:1;stroke-dashoffset:0"
       d="m 131.10236,148.81888 -3.5433,0 0,-35.43308 3.5433,0 m 0,0 10.62992,1.77165 0,31.88977 -10.62992,1.77166 0,-35.43308 z"
       sodipodi:nodetypes="ccccccccc"
       inkscape:connector-curvature="0" />
    <rect
       style="fill:none;stroke:#000000;stroke-width:0.35433072;stroke-linecap:round;stroke-linejoin:miter;stroke-miterlimit:4;stroke-opacity:1;stroke-dasharray:none;stroke-dashoffset:0"
       id="rect1020"
       width="31.889763"
       height="10.629921"
       x="106.29921"
       y="72.637772" />
    <rect
       style="fill:none;stroke:#000000;stroke-width:0.35433072;stroke-linecap:round;stroke-linejoin:miter;stroke-miterlimit:4;stroke-opacity:1;stroke-dasharray:none;stroke-dashoffset:0"
       id="rect1020-1"
       width="31.889763"
       height="10.629921"
       x="106.29921"
       y="125.78738" />
  </g>
  <g
     inkscape:groupmode="layer"
     id="layer3"
     inkscape:label="dims"
     style="display:none"
     sodipodi:insensitive="true">
    <path
       style="stroke:#0000ff;stroke-width:0.35433072;stroke-miterlimit:4;stroke-opacity:1;stroke-dasharray:none"
       d="m 70.866142,46.06297 0,109.84252"
       id="path1067"
       inkscape:connector-curvature="0" />
    <path
       style="stroke:#0000ff;stroke-width:0.35433072;stroke-miterlimit:4;stroke-opacity:1;stroke-dasharray:none"
       d="m 56.692913,46.4173 0,109.84252"
       id="path1067-6"
       inkscape:connector-curvature="0" />
    <text
       xml:space="preserve"
       style="font-size:9px;font-style:normal;font-weight:normal;fill:#000000;fill-opacity:1;stroke:none;font-family:Bitstream Vera Sans"
       x="69.322838"
       y="162.99211"
       id="text1091"><tspan
         sodipodi:role="line"
         x="69.322838"
         y="162.99211"
         id="tspan3898">4</tspan></text>
    <path
       style="stroke:#0000ff;stroke-width:0.35433072;stroke-miterlimit:4;stroke-opacity:1;stroke-dasharray:none"
       d="m 109.84252,46.062962 0,131.102368"
       id="path1067-1"
       inkscape:connector-curvature="0" />
    <text
       xml:space="preserve"
       style="font-size:9px;font-style:normal;font-weight:normal;fill:#000000;fill-opacity:1;stroke:none;font-family:Bitstream Vera Sans"
       x="103.66929"
       y="184.25195"
       id="text1091-4"><tspan
         sodipodi:role="line"
         x="103.66929"
         y="184.25195"
         id="tspan1142">15</tspan></text>
    <path
       style="stroke:#0000ff;stroke-width:0.35433072;stroke-miterlimit:4;stroke-opacity:1;stroke-dasharray:none"
       d="m 99.212607,118.70077 -53.149615,0"
       id="path1067-6-2"
       inkscape:connector-curvature="0" />
    <text
       xml:space="preserve"
       style="font-size:9px;font-style:normal;font-weight:normal;fill:#000000;fill-opacity:1;stroke:none;font-family:Bitstream Vera Sans"
       x="29.889763"
       y="122.47242"
       id="text1091-9"><tspan
         sodipodi:role="line"
         x="29.889763"
         y="122.47242"
         id="tspan1197">8.5</tspan></text>
    <path
       style="stroke:#0000ff;stroke-width:0.35433072;stroke-miterlimit:4;stroke-opacity:1;stroke-dasharray:none"
       d="m 99.212606,95.669269 -53.149614,0"
       id="path1067-6-2-4"
       inkscape:connector-curvature="0" />
    <path
       style="stroke:#0000ff;stroke-width:0.35433072;stroke-miterlimit:4;stroke-opacity:1;stroke-dasharray:none"
       d="m 99.212605,72.635622 -49.606306,0"
       id="path1067-6-2-4-5"
       inkscape:connector-curvature="0" />
    <text
       xml:space="preserve"
       style="font-size:9px;font-style:normal;font-weight:normal;fill:#000000;fill-opacity:1;stroke:none;font-family:Bitstream Vera Sans"
       x="31.889763"
       y="99.212578"
       id="text1091-9-1"><tspan
         sodipodi:role="line"
         x="31.889763"
         y="99.212578"
         id="tspan1270">15</tspan></text>
    <text
       xml:space="preserve"
       style="font-size:9px;font-style:normal;font-weight:normal;fill:#000000;fill-opacity:1;stroke:none;font-family:Bitstream Vera Sans"
       x="28.346457"
       y="76.409431"
       id="text1091-9-7"><tspan
         sodipodi:role="line"
         x="28.346457"
         y="76.409431"
         id="tspan1197-9">21.5</tspan></text>
    <path
       style="stroke:#0000ff;stroke-width:0.35433075;stroke-miterlimit:4;stroke-opacity:1;stroke-dasharray:none"
       d="m 148.33077,100.98423 -53.724471,0"
       id="path1067-6-2-4-9"
       inkscape:connector-curvature="0" />
    <text
       xml:space="preserve"
       style="font-size:9px;font-style:normal;font-weight:normal;fill:#000000;fill-opacity:1;stroke:none;font-family:Bitstream Vera Sans"
       x="148.81889"
       y="104.75588"
       id="text1091-9-1-7"><tspan
         sodipodi:role="line"
         x="148.81889"
         y="104.75588"
         id="tspan1270-5">13.5</tspan></text>
    <text
       xml:space="preserve"
       style="font-size:9px;font-style:normal;font-weight:normal;fill:#000000;fill-opacity:1;stroke:none;font-family:Bitstream Vera Sans"
       x="53.942909"
       y="152.71651"
       id="text1091-43"><tspan
         sodipodi:role="line"
         id="tspan1093-5"
         x="53.942909"
         y="152.71651">0</tspan></text>
    <path
       style="stroke:#0000ff;stroke-width:0.35433072;stroke-miterlimit:4;stroke-opacity:1;stroke-dasharray:none;display:inline"
       d="m 148.8189,131.10234 -53.149609,0"
       id="path1067-6-2-5"
       inkscape:connector-curvature="0" />
    <path
       style="stroke:#0000ff;stroke-width:0.35433072;stroke-miterlimit:4;stroke-opacity:1;stroke-dasharray:none;display:inline"
       d="m 148.8189,77.941654 -53.149612,0"
       id="path1067-6-2-5-3"
       inkscape:connector-curvature="0" />
    <text
       xml:space="preserve"
       style="font-size:9px;font-style:normal;font-weight:normal;fill:#000000;fill-opacity:1;stroke:none;display:inline;font-family:Bitstream Vera Sans"
       x="150.81889"
       y="134.64565"
       id="text1091-9-1-7-1"><tspan
         sodipodi:role="line"
         x="150.81889"
         y="134.64565"
         id="tspan1270-5-8">5</tspan></text>
    <text
       xml:space="preserve"
       style="font-size:9px;font-style:normal;font-weight:normal;fill:#000000;fill-opacity:1;stroke:none;display:inline;font-family:Bitstream Vera Sans"
       x="149.27559"
       y="81.496033"
       id="text1091-9-1-7-6"><tspan
         sodipodi:role="line"
         x="149.27559"
         y="81.496033"
         id="tspan1270-5-3">20</tspan></text>
    <path
       style="stroke:#0000ff;stroke-width:0.35433072;stroke-miterlimit:4;stroke-opacity:1;stroke-dasharray:none;display:inline"
       d="m 68.201403,46.06297 0,124.01575"
       id="path1067-6-8"
       inkscape:connector-curvature="0"
       sodipodi:nodetypes="cc" />
    <path
       style="stroke:#0000ff;stroke-width:0.35433072;stroke-miterlimit:4;stroke-opacity:1;stroke-dasharray:none;display:inline"
       d="m 70.86615,115.15906 -53.149615,0"
       id="path1067-6-2-9"
       inkscape:connector-curvature="0" />
    <path
       style="stroke:#0000ff;stroke-width:0.35433072;stroke-miterlimit:4;stroke-opacity:1;stroke-dasharray:none;display:inline"
       d="m 127.55906,93.897347 -109.842525,0"
       id="path1067-6-2-9-9"
       inkscape:connector-curvature="0" />
    <text
       xml:space="preserve"
       style="font-size:9px;font-style:normal;font-weight:normal;fill:#000000;fill-opacity:1;stroke:none;display:inline;font-family:Bitstream Vera Sans"
       x="-2.4566929"
       y="97.212578"
       id="text1091-9-1-9"><tspan
         sodipodi:role="line"
         x="-2.4566929"
         y="97.212578"
         id="tspan1270-9">15.5</tspan></text>
    <text
       xml:space="preserve"
       style="font-size:9px;font-style:normal;font-weight:normal;fill:#000000;fill-opacity:1;stroke:none;display:inline;font-family:Bitstream Vera Sans"
       x="2.4566922"
       y="118.92912"
       id="text1091-9-8"><tspan
         sodipodi:role="line"
         x="2.4566922"
         y="118.92912"
         id="tspan1197-4">9.5</tspan></text>
    <text
       xml:space="preserve"
       style="font-size:9px;font-style:normal;font-weight:normal;fill:#000000;fill-opacity:1;stroke:none;display:inline;font-family:Bitstream Vera Sans"
       x="56.236221"
       y="179.16533"
       id="text1091-7"><tspan
         sodipodi:role="line"
         x="56.236221"
         y="179.16533"
         id="tspan3898-7"
         style="font-size:6px">3.15</tspan></text>
  </g>
  <g
     inkscape:groupmode="layer"
     id="layer4"
     inkscape:label="toosmall"
     style="display:none"
     sodipodi:insensitive="true" />
  <g
     inkscape:groupmode="layer"
     id="layer6"
     inkscape:label="fpc"
     style="display:none"
     sodipodi:insensitive="true">
    <path
       sodipodi:nodetypes="ccccccccc"
       d="m 106.30401,99.29976 5.31496,23.38582 0,26.22047 -39.330706,0 0,-26.22047 5.31496,-23.38582 0,-31.88977 28.700786,0 0,31.88977 z"
       style="fill:none;stroke:#00ff00;stroke-width:0.35433072;stroke-miterlimit:4;stroke-opacity:1;stroke-dasharray:none"
       id="rect12-0"
       inkscape:connector-curvature="0" />
    <rect
       y="-149.1571"
       x="62.367004"
       height="89.291344"
       width="59.173229"
       id="rect820"
       style="fill:none;stroke:#00ff00;stroke-width:0.35433072;stroke-linecap:round;stroke-linejoin:miter;stroke-miterlimit:4;stroke-opacity:1;stroke-dasharray:none;stroke-dashoffset:0"
       transform="scale(1,-1)" />
  </g>
  <g
     inkscape:groupmode="layer"
     id="layer5"
     inkscape:label="ablate"
     style="display:none"
     sodipodi:insensitive="true">
    <g
       id="layer2-3"
       inkscape:label="ablate"
       style="display:inline"
       transform="matrix(1,0,0,-1,-33.302286,329.8869)">
      <path
         style="fill:#000000;fill-opacity:1;stroke:#000000;stroke-width:0.35433072;stroke-miterlimit:4;stroke-opacity:1"
         d="m 145.98425,180.70864 0,26.92913 -5.34375,22.67717 0,33.3232 -30.79798,0 0,-33.3232 -5.3125,-22.67717 0,-26.92913 m 0,0 -8.535681,0 0,89.3125 59.187501,0 0,-89.3125 -9.19759,0"
         id="rect12-0-9"
         sodipodi:nodetypes="cccccccccccccc"
         inkscape:connector-curvature="0" />
    </g>
  </g>
  <g
     inkscape:groupmode="layer"
     id="layer7"
     inkscape:label="tape"
     style="display:none"
     sodipodi:insensitive="true">
    <path
       style="fill:none;stroke:#ff0000;stroke-width:0.35433072;stroke-miterlimit:4;stroke-opacity:1;stroke-dasharray:none"
       d="m 58.110236,60.236198 0,88.593752 14.514764,-0.0174 0,-19.34375 c -0.112574,0.0252 -0.223575,0.0313 -0.34375,0.0313 -0.880612,0 -1.59375,-0.71314 -1.59375,-1.59375 0,-0.88061 0.713138,-1.59375 1.59375,-1.59375 0.120175,0 0.231176,0.006 0.34375,0.0313 l 0,-9.59375 1.40625,-5.75 -2.9375,-4.71875 c -0.244042,-0.2801 -0.40625,-0.63057 -0.40625,-1.03125 0,-0.88061 0.713138,-1.59375 1.59375,-1.59375 l 3.625,-0.46875 0.96875,-4 0,-11.40625 -5.25,-2.6875 -0.0625,-0.03125 c -0.526621,-0.260345 -0.875,-0.810272 -0.875,-1.4375 0,-0.703883 0.460973,-1.288585 1.09375,-1.5 L 76.875,79 l 0,-18.78125 -4.25,0 -1.75,0 z"
       id="path814-4"
       inkscape:connector-curvature="0"
       sodipodi:nodetypes="ccccsssccccsccccccscccccc" />
    <path
       sodipodi:type="arc"
       style="fill:none;stroke:#ff0000;stroke-width:0.38265306;stroke-linecap:round;stroke-linejoin:miter;stroke-miterlimit:4;stroke-opacity:1;stroke-dasharray:none;stroke-dashoffset:0;display:inline"
       id="path820-4-9-5-5-4"
       sodipodi:cx="73.928574"
       sodipodi:cy="56.647896"
       sodipodi:rx="2.6785715"
       sodipodi:ry="2.6785715"
       d="m 76.607145,56.647896 a 2.6785715,2.6785715 0 1 1 -5.357143,0 2.6785715,2.6785715 0 1 1 5.357143,0 z"
       transform="matrix(0.92598424,0,0,0.92598424,-0.255291,20.180566)" />
    <path
       sodipodi:type="arc"
       style="fill:none;stroke:#ff0000;stroke-width:0.38265306;stroke-linecap:round;stroke-linejoin:miter;stroke-miterlimit:4;stroke-opacity:1;stroke-dasharray:none;stroke-dashoffset:0;display:inline"
       id="path820-4-9-5-5-3"
       sodipodi:cx="73.928574"
       sodipodi:cy="56.647896"
       sodipodi:rx="2.6785715"
       sodipodi:ry="2.6785715"
       d="m 76.607145,56.647896 a 2.6785715,2.6785715 0 1 1 -5.357143,0 2.6785715,2.6785715 0 1 1 5.357143,0 z"
       transform="matrix(0.92598424,0,0,0.92598424,-0.255291,41.442286)" />
    <path
       sodipodi:type="arc"
       style="fill:none;stroke:#ff0000;stroke-width:0.38265306;stroke-linecap:round;stroke-linejoin:miter;stroke-miterlimit:4;stroke-opacity:1;stroke-dasharray:none;stroke-dashoffset:0;display:inline"
       id="path820-4-9-5-5-5"
       sodipodi:cx="73.928574"
       sodipodi:cy="56.647896"
       sodipodi:rx="2.6785715"
       sodipodi:ry="2.6785715"
       d="m 76.607145,56.647896 a 2.6785715,2.6785715 0 1 1 -5.357143,0 2.6785715,2.6785715 0 1 1 5.357143,0 z"
       transform="matrix(0.92598424,0,0,0.92598424,-0.255291,62.702402)" />
    <path
       sodipodi:type="arc"
       style="fill:none;stroke:#ff0000;stroke-width:0.38265306;stroke-linecap:round;stroke-linejoin:miter;stroke-miterlimit:4;stroke-opacity:1;stroke-dasharray:none;stroke-dashoffset:0;display:inline"
       id="path820-4-9-5-5-43"
       sodipodi:cx="73.928574"
       sodipodi:cy="56.647896"
       sodipodi:rx="2.6785715"
       sodipodi:ry="2.6785715"
       d="m 76.607145,56.647896 a 2.6785715,2.6785715 0 1 1 -5.357143,0 2.6785715,2.6785715 0 1 1 5.357143,0 z"
       transform="matrix(0.92598424,0,0,0.92598424,47.588462,41.442286)" />
    <path
       style="fill:none;stroke:#ff0000;stroke-width:0.35433072;stroke-miterlimit:4;stroke-opacity:1;stroke-dasharray:none"
       d="m 107.375,60.21875 0,4.6875 5.5625,2.5625 c 0.38383,0.291168 0.625,0.762318 0.625,1.28125 0,0.499877 -0.23377,0.926402 -0.59375,1.21875 l -5.59375,4.3125 0,4.15625 7.0625,3.28125 c 0.3283,0.292058 0.53125,0.713524 0.53125,1.1875 0,0.456031 -0.1931,0.865633 -0.5,1.15625 l -7.09375,5.5625 0,9.5625 0.625,2.625 6.09375,2.375 c 0.51955,0.26281 0.875,0.78421 0.875,1.40625 0,0.30271 -0.0723,0.57142 -0.21875,0.8125 l -4.21875,5.84375 1.09375,4.5 3.15625,4.03125 c 0.1227,0.22593 0.1875,0.47481 0.1875,0.75 0,0.36168 -0.10956,0.70123 -0.3125,0.96875 l -3.03125,3.3125 0,13.71875 2.75,1.3125 c 0.36411,0.29223 0.59375,0.74679 0.59375,1.25 0,0.49081 -0.21371,0.92626 -0.5625,1.21875 -0.92744,0.70776 -1.85449,1.41625 -2.78125,2.125 l 0,3.375 14.51673,0.0174 0,-88.593752 -12.76673,-0.01745 -1.75,0 z"
       id="path814-4-6"
       inkscape:connector-curvature="0"
       sodipodi:nodetypes="cccsccccscccccsccccsccccscccccccc" />
  </g>
  <g
     style="display:inline"
     inkscape:label="rubber-gasket"
     id="g3113"
     inkscape:groupmode="layer">
    <path
       sodipodi:nodetypes="ccccsssccccsccccccscccccc"
       inkscape:connector-curvature="0"
       id="path3115"
       d="m 58.110236,60.236198 0,88.593752 14.514764,-0.0174 0,-19.34375 c -0.112574,0.0252 -0.223575,0.0313 -0.34375,0.0313 -0.880612,0 -1.59375,-0.71314 -1.59375,-1.59375 0,-0.88061 0.713138,-1.59375 1.59375,-1.59375 0.120175,0 0.231176,0.006 0.34375,0.0313 l 0,-9.59375 1.40625,-5.75 -2.9375,-4.71875 c -0.244042,-0.2801 -0.40625,-0.63057 -0.40625,-1.03125 0,-0.88061 0.713138,-1.59375 1.59375,-1.59375 l 3.625,-0.46875 0.96875,-4 0,-11.40625 -5.25,-2.6875 -0.0625,-0.03125 c -0.526621,-0.260345 -0.875,-0.810272 -0.875,-1.4375 0,-0.703883 0.460973,-1.288585 1.09375,-1.5 L 76.875,79 l 0,-18.78125 -4.25,0 -1.75,0 z"
       style="fill:none;stroke:#ff0000;stroke-width:0.35433072;stroke-miterlimit:4;stroke-opacity:1;stroke-dasharray:none" />
    <path
       sodipodi:nodetypes="cccsccccscccccsccccsccccscccccccc"
       inkscape:connector-curvature="0"
       id="path3125"
       d="m 107.375,60.21875 0,4.6875 5.5625,2.5625 c 0.38383,0.291168 0.625,0.762318 0.625,1.28125 0,0.499877 -0.23377,0.926402 -0.59375,1.21875 l -5.59375,4.3125 0,4.15625 7.0625,3.28125 c 0.3283,0.292058 0.53125,0.713524 0.53125,1.1875 0,0.456031 -0.1931,0.865633 -0.5,1.15625 l -7.09375,5.5625 0,9.5625 0.625,2.625 6.09375,2.375 c 0.51955,0.26281 0.875,0.78421 0.875,1.40625 0,0.30271 -0.0723,0.57142 -0.21875,0.8125 l -4.21875,5.84375 1.09375,4.5 3.15625,4.03125 c 0.1227,0.22593 0.1875,0.47481 0.1875,0.75 0,0.36168 -0.10956,0.70123 -0.3125,0.96875 l -3.03125,3.3125 0,13.71875 2.75,1.3125 c 0.36411,0.29223 0.59375,0.74679 0.59375,1.25 0,0.49081 -0.21371,0.92626 -0.5625,1.21875 -0.92744,0.70776 -1.85449,1.41625 -2.78125,2.125 l 0,3.375 14.51673,0.0174 0,-88.593752 -12.76673,-0.01745 -1.75,0 z"
       style="fill:none;stroke:#ff0000;stroke-width:0.35433072;stroke-miterlimit:4;stroke-opacity:1;stroke-dasharray:none" />
    <path
       sodipodi:type="arc"
       style="fill:none;stroke:#ff0000;stroke-width:0.59523809;stroke-linecap:round;stroke-linejoin:miter;stroke-miterlimit:4;stroke-opacity:1;stroke-dasharray:none;stroke-dashoffset:0;display:inline"
       id="path3127"
       sodipodi:cx="73.928574"
       sodipodi:cy="56.647896"
       sodipodi:rx="2.6785715"
       sodipodi:ry="2.6785715"
       d="m 76.607145,56.647896 a 2.6785715,2.6785715 0 1 1 -5.357143,0 2.6785715,2.6785715 0 1 1 5.357143,0 z"
       transform="matrix(0.59527558,0,0,0.59527558,24.193529,38.914516)" />
    <path
       sodipodi:type="arc"
       style="fill:none;stroke:#ff0000;stroke-width:0.59523809;stroke-linecap:round;stroke-linejoin:miter;stroke-miterlimit:4;stroke-opacity:1;stroke-dasharray:none;stroke-dashoffset:0;display:inline"
       id="path3129"
       sodipodi:cx="73.928574"
       sodipodi:cy="56.647896"
       sodipodi:rx="2.6785715"
       sodipodi:ry="2.6785715"
       d="m 76.607145,56.647896 a 2.6785715,2.6785715 0 1 1 -5.357143,0 2.6785715,2.6785715 0 1 1 5.357143,0 z"
       transform="matrix(0.59527558,0,0,0.59527558,24.193529,60.176236)" />
    <path
       sodipodi:type="arc"
       style="fill:none;stroke:#ff0000;stroke-width:0.59523809;stroke-linecap:round;stroke-linejoin:miter;stroke-miterlimit:4;stroke-opacity:1;stroke-dasharray:none;stroke-dashoffset:0;display:inline"
       id="path3131"
       sodipodi:cx="73.928574"
       sodipodi:cy="56.647896"
       sodipodi:rx="2.6785715"
       sodipodi:ry="2.6785715"
       d="m 76.607145,56.647896 a 2.6785715,2.6785715 0 1 1 -5.357143,0 2.6785715,2.6785715 0 1 1 5.357143,0 z"
       transform="matrix(0.59527558,0,0,0.59527558,24.193529,81.436352)" />
    <path
       sodipodi:type="arc"
       style="fill:none;stroke:#ff0000;stroke-width:0.59523809;stroke-linecap:round;stroke-linejoin:miter;stroke-miterlimit:4;stroke-opacity:1;stroke-dasharray:none;stroke-dashoffset:0;display:inline"
       id="path3133"
       sodipodi:cx="73.928574"
       sodipodi:cy="56.647896"
       sodipodi:rx="2.6785715"
       sodipodi:ry="2.6785715"
       d="m 76.607145,56.647896 a 2.6785715,2.6785715 0 1 1 -5.357143,0 2.6785715,2.6785715 0 1 1 5.357143,0 z"
       transform="matrix(0.59527558,0,0,0.59527558,72.037282,60.176236)" />
    <path
       style="fill:none;stroke:#000000;stroke-width:0.35433075;stroke-linecap:round;stroke-linejoin:miter;stroke-miterlimit:4;stroke-opacity:1;stroke-dashoffset:0;display:inline"
       d="m 71.5625,63.9375 c -2.319725,0 -4.239452,1.603194 -4.78125,3.75 0.453734,-0.131143 0.910272,-0.1875 1.40625,-0.1875 2.837526,0 5.15625,2.287474 5.15625,5.125 0,2.837526 -2.318724,5.15625 -5.15625,5.15625 -0.555388,0 -1.061497,-0.118223 -1.5625,-0.28125 l 0,10.220362 C 67.126003,87.557335 67.632112,88.75 68.1875,88.75 c 2.837526,0 5.15625,2.318724 5.15625,5.15625 0,2.837526 -2.318724,5.125 -5.15625,5.125 -0.555115,0 -1.061709,-0.08713 -1.5625,-0.25 l 0,11.5 c 0.500791,-0.16287 1.007385,-0.25 1.5625,-0.25 2.837526,0 5.15625,2.28747 5.15625,5.125 0,2.83753 -2.318724,5.125 -5.15625,5.125 -0.555388,0 -1.061497,-0.087 -1.5625,-0.25 l 0,20.125 c 0,2.74216 2.19534,4.9375 4.9375,4.9375 l 41.125,0 c 2.74216,0 4.9375,-2.19534 4.9375,-4.9375 l 0,-41.375 c -0.50187,0.163653 -1.03725,0.25 -1.59375,0.25 -2.83753,0 -5.125,-2.287474 -5.125,-5.125 0,-2.837526 2.28747,-5.15625 5.125,-5.15625 0.55686,0 1.09159,0.11739 1.59375,0.28125 l 0,-20.125 c 0,-2.74216 -2.19534,-4.96875 -4.9375,-4.96875 z"
       id="path3961"
       inkscape:connector-curvature="0"
       sodipodi:nodetypes="scsssccsssccssscsssscssscsss" />
    <path
       style="fill:none;stroke:#000000;stroke-width:0.35433075;stroke-linecap:round;stroke-linejoin:miter;stroke-miterlimit:4;stroke-dashoffset:0;stroke-opacity:1;display:inline"
       d="m 68.017909,60.407837 48.210741,0 c 2.74216,0 4.94975,2.207587 4.94975,4.949747 l 0,78.328846 c 0,2.74216 -2.20759,4.94975 -4.94975,4.94975 l -48.210741,0 c -2.742161,0 -4.949748,-2.20759 -4.949748,-4.94975 l 0,-78.328846 c 0,-2.74216 2.207587,-4.949747 4.949748,-4.949747 z"
       id="rect3144" />
    <path
       transform="matrix(0.59527558,0,0,0.59527558,24.193529,60.176236)"
       d="m 76.607145,56.647896 a 2.6785715,2.6785715 0 1 1 -5.357143,0 2.6785715,2.6785715 0 1 1 5.357143,0 z"
       sodipodi:ry="2.6785715"
       sodipodi:rx="2.6785715"
       sodipodi:cy="56.647896"
       sodipodi:cx="73.928574"
       id="path3153"
       style="fill:none;stroke:#ff0000;stroke-width:0.59523809;stroke-linecap:round;stroke-linejoin:miter;stroke-miterlimit:4;stroke-opacity:1;stroke-dasharray:none;stroke-dashoffset:0;display:inline"
       sodipodi:type="arc" />
  </g>
  <g
     style="display:none"
     inkscape:label="gasket-mask"
     id="g3258"
     inkscape:groupmode="layer"
     sodipodi:insensitive="true">
    <path
       style="fill:none;stroke:#ff0000;stroke-width:0.35433072;stroke-miterlimit:4;stroke-opacity:1;stroke-dasharray:none"
       d="M 67.46875,60.21875 58.125,60.25 l 0,88.59375 14.5,-0.0313 0,-18.875 c -0.294791,-0.15837 -0.591988,-0.31978 -0.90625,-0.53125 -0.282677,-0.10591 -0.507307,-0.29556 -0.6875,-0.53125 -0.02396,-0.0185 -0.03857,-0.0438 -0.0625,-0.0625 -1.712361,-1.33685 -3.375457,-3.20917 -3.5,-4.8125 l 0,-5.5625 c -1.49959,-0.33975 -2.625,-1.67889 -2.625,-3.28125 0,-1.60217 1.125681,-2.91005 2.625,-3.25 l 0,-9.15625 0,-5.21875 c -1.710216,-0.335328 -3,-1.816548 -3,-3.625 0,-1.808543 1.289656,-3.321023 3,-3.65625 l 0,-13.96875 c -1.710344,-0.335227 -3,-1.847707 -3,-3.65625 0,-1.808452 1.289784,-3.289672 3,-3.625 l 0,-8.78125 z m 1.40625,0 0,8.78125 c 1.725072,0.323518 3.0625,1.806011 3.0625,3.625 0,1.819171 -1.337171,3.332938 -3.0625,3.65625 l 0,6.78125 c 0.651253,-0.02926 1.340593,-0.09574 2.0625,-0.25 0.195433,-0.317174 0.482163,-0.566691 0.84375,-0.6875 L 76.875,79 l 0,-18.78125 -4.25,0 -1.75,0 -2,0 z m 0,24.21875 0,5.8125 c 1.725329,0.323312 3.0625,1.837079 3.0625,3.65625 0,1.818989 -1.337428,3.301482 -3.0625,3.625 l 0,5.21875 0,1.75 c 0.581058,0.0981 1.246211,0.15218 1.9375,0.125 0.241849,-0.57208 0.808291,-0.96875 1.46875,-0.96875 l 3.625,-0.46875 0.96875,-4 0,-11.40625 -5.25,-2.6875 -0.0625,-0.03125 c -0.224205,-0.11084 -0.384789,-0.300564 -0.53125,-0.5 -0.737351,-0.09098 -1.450838,-0.110687 -2.15625,-0.125 z m 1.875,21.21875 c -0.6564,-0.004 -1.24845,0.0978 -1.875,0.21875 l 0,6 c 1.533894,0.31388 2.6875,1.65457 2.6875,3.28125 0,1.62668 -1.153606,2.99862 -2.6875,3.3125 l 0,5.53125 c 0.122322,1.26236 1.917692,1.69869 3.75,2.3125 l 0,-9.5625 1.40625,-5.75 -2.9375,-4.71875 c -0.15456,-0.1774 -0.244007,-0.39627 -0.3125,-0.625 -0.01084,-1e-4 -0.02045,6e-5 -0.03125,0 z"
       id="path3260"
       inkscape:connector-curvature="0" />
    <path
       style="fill:none;stroke:#ff0000;stroke-width:0.35433072;stroke-linecap:round;stroke-linejoin:miter;stroke-miterlimit:4;stroke-opacity:1;stroke-dashoffset:0;display:inline"
       d="m 107.375,60.21875 0,4.6875 5.5625,2.5625 c 0.38383,0.291169 0.625,0.762318 0.625,1.28125 0,0.499877 -0.23377,0.926402 -0.59375,1.21875 l -5.59375,4.3125 0,4.15625 7.0625,3.28125 c 0.3283,0.292058 0.53125,0.713524 0.53125,1.1875 0,0.14061 -0.0281,0.276595 -0.0625,0.40625 l 1.78125,6.5625 c 1.94546,0.307857 3.4375,1.999211 3.4375,4.03125 0,2.098504 -1.61512,3.777668 -3.65625,4 l -1.59375,7.15625 c 0.0607,0.16646 0.0937,0.3416 0.0937,0.53125 0,0.30271 -0.0723,0.57142 -0.21875,0.8125 l -4.21875,5.84375 1.09375,4.5 3.15625,4.03125 c 0.1227,0.22593 0.1875,0.47481 0.1875,0.75 0,0.36168 -0.10956,0.70123 -0.3125,0.96875 l -3.03125,3.3125 0,13.71875 2.75,1.3125 c 0.36411,0.29223 0.59375,0.74679 0.59375,1.25 0,0.49081 -0.21371,0.92626 -0.5625,1.21875 -0.92744,0.70776 -1.85449,1.41625 -2.78125,2.125 l 0,3.375 14.53125,0.0313 0,-88.59375 -12.78125,-0.03125 -1.75,0 -4.25,0 z m 6.40625,24.375 -6.40625,5.03125 0,9.5625 0.625,2.625 5.65625,2.21875 1.375,-6.21875 c -1.75758,-0.447682 -3.0625,-2.005554 -3.0625,-3.90625 0,-1.969145 1.39318,-3.62004 3.25,-4 l -1.4375,-5.3125 z"
       id="path3262-7-8"
       inkscape:connector-curvature="0" />
  </g>
  <g
     inkscape:groupmode="layer"
     id="layer8"
     inkscape:label="pores"
     style="display:inline"
     sodipodi:insensitive="true">
    <path
       sodipodi:type="arc"
       style="fill:#ff0100;fill-opacity:1;stroke:none;display:inline"
       id="path126"
       sodipodi:cx="73.346458"
       sodipodi:cy="128.97635"
       sodipodi:rx="1.0629921"
       sodipodi:ry="1.0629921"
       d="m 74.409451,128.97635 a 1.0629921,1.0629921 0 1 1 -2.125985,0 1.0629921,1.0629921 0 1 1 2.125985,0 z"
       transform="matrix(0.33333334,0,0,0.33333334,47.833207,84.921247)" />
    <path
       sodipodi:type="arc"
       style="fill:#ff0100;fill-opacity:1;stroke:none;display:inline"
       id="path126-1"
       sodipodi:cx="73.346458"
       sodipodi:cy="128.97635"
       sodipodi:rx="1.0629921"
       sodipodi:ry="1.0629921"
       d="m 74.409451,128.97635 a 1.0629921,1.0629921 0 1 1 -2.125985,0 1.0629921,1.0629921 0 1 1 2.125985,0 z"
       transform="matrix(0.33333334,0,0,0.33333334,47.833207,62.244081)" />
    <path
       sodipodi:type="arc"
       style="fill:#ff0100;fill-opacity:1;stroke:none;display:inline"
       id="path126-8"
       sodipodi:cx="73.346458"
       sodipodi:cy="128.97635"
       sodipodi:rx="1.0629921"
       sodipodi:ry="1.0629921"
       d="m 74.409451,128.97635 a 1.0629921,1.0629921 0 1 1 -2.125985,0 1.0629921,1.0629921 0 1 1 2.125985,0 z"
       transform="matrix(0.33333334,0,0,0.33333334,47.833207,40.629908)" />
    <path
       sodipodi:type="arc"
       style="fill:#ff0100;fill-opacity:1;stroke:none;display:inline"
       id="path126-3"
       sodipodi:cx="73.346458"
       sodipodi:cy="128.97635"
       sodipodi:rx="1.0629921"
       sodipodi:ry="1.0629921"
       d="m 74.409451,128.97635 a 1.0629921,1.0629921 0 1 1 -2.125985,0 1.0629921,1.0629921 0 1 1 2.125985,0 z"
       transform="matrix(0.33333334,0,0,0.33333334,88.937007,99.094475)" />
    <path
       sodipodi:type="arc"
       style="fill:#ff0100;fill-opacity:1;stroke:none;display:inline"
       id="path126-33"
       sodipodi:cx="73.346458"
       sodipodi:cy="128.97635"
       sodipodi:rx="1.0629921"
       sodipodi:ry="1.0629921"
       d="m 74.409451,128.97635 a 1.0629921,1.0629921 0 1 1 -2.125985,0 1.0629921,1.0629921 0 1 1 2.125985,0 z"
       transform="matrix(0.33333334,0,0,0.33333334,88.93379,78.543294)" />
    <path
       sodipodi:type="arc"
       style="fill:#ff0100;fill-opacity:1;stroke:none;display:inline"
       id="path126-12"
       sodipodi:cx="73.346458"
       sodipodi:cy="128.97635"
       sodipodi:rx="1.0629921"
       sodipodi:ry="1.0629921"
       d="m 74.409451,128.97635 a 1.0629921,1.0629921 0 1 1 -2.125985,0 1.0629921,1.0629921 0 1 1 2.125985,0 z"
       transform="matrix(0.33333334,0,0,0.33333334,88.937007,62.598412)" />
    <path
       sodipodi:type="arc"
       style="fill:#ff0100;fill-opacity:1;stroke:none;display:inline"
       id="path126-4"
       sodipodi:cx="73.346458"
       sodipodi:cy="128.97635"
       sodipodi:rx="1.0629921"
       sodipodi:ry="1.0629921"
       d="m 74.409451,128.97635 a 1.0629921,1.0629921 0 1 1 -2.125985,0 1.0629921,1.0629921 0 1 1 2.125985,0 z"
       transform="matrix(0.33333334,0,0,0.33333334,88.937007,39.921247)" />
    <path
       sodipodi:type="arc"
       style="fill:#ff0100;fill-opacity:1;stroke:none;display:inline"
       id="path126-2"
       sodipodi:cx="73.346458"
       sodipodi:cy="128.97635"
       sodipodi:rx="1.0629921"
       sodipodi:ry="1.0629921"
       d="m 74.409451,128.97635 a 1.0629921,1.0629921 0 1 1 -2.125985,0 1.0629921,1.0629921 0 1 1 2.125985,0 z"
       transform="matrix(0.33333334,0,0,0.33333334,87.519684,25.748018)" />
    <path
       sodipodi:type="arc"
       style="fill:#ff0100;fill-opacity:1;stroke:none;display:inline"
       id="path126-6"
       sodipodi:cx="73.346458"
       sodipodi:cy="128.97635"
       sodipodi:rx="1.0629921"
       sodipodi:ry="1.0629921"
       d="m 74.409451,128.97635 a 1.0629921,1.0629921 0 1 1 -2.125985,0 1.0629921,1.0629921 0 1 1 2.125985,0 z"
       transform="matrix(0.33333334,0,0,0.33333334,55.275589,22.559042)" />
  </g>
</svg>
