<?xml version="1.0" encoding="UTF-8" standalone="no"?>
<!-- Created with Inkscape (http://www.inkscape.org/) -->

<svg
   xmlns:dc="http://purl.org/dc/elements/1.1/"
   xmlns:cc="http://creativecommons.org/ns#"
   xmlns:rdf="http://www.w3.org/1999/02/22-rdf-syntax-ns#"
   xmlns:svg="http://www.w3.org/2000/svg"
   xmlns="http://www.w3.org/2000/svg"
   xmlns:sodipodi="http://sodipodi.sourceforge.net/DTD/sodipodi-0.dtd"
   xmlns:inkscape="http://www.inkscape.org/namespaces/inkscape"
   width="744.09448819"
   height="1052.3622047"
   id="svg2"
   sodipodi:version="0.32"
   inkscape:version="0.46+devel"
   sodipodi:docname="block.svg"
   inkscape:output_extension="org.inkscape.output.svg.inkscape">
  <defs
     id="defs4">
    <inkscape:perspective
       id="perspective915"
       inkscape:persp3d-origin="0.5 : 0.33333333 : 1"
       inkscape:vp_z="1 : 0.5 : 1"
       inkscape:vp_y="0 : 1000 : 0"
       inkscape:vp_x="0 : 0.5 : 1"
       sodipodi:type="inkscape:persp3d" />
    <inkscape:perspective
       id="perspective915-5"
       inkscape:persp3d-origin="0.5 : 0.33333333 : 1"
       inkscape:vp_z="1 : 0.5 : 1"
       inkscape:vp_y="0 : 1000 : 0"
       inkscape:vp_x="0 : 0.5 : 1"
       sodipodi:type="inkscape:persp3d" />
    <inkscape:perspective
       id="perspective915-3"
       inkscape:persp3d-origin="0.5 : 0.33333333 : 1"
       inkscape:vp_z="1 : 0.5 : 1"
       inkscape:vp_y="0 : 1000 : 0"
       inkscape:vp_x="0 : 0.5 : 1"
       sodipodi:type="inkscape:persp3d" />
    <inkscape:perspective
       id="perspective915-58"
       inkscape:persp3d-origin="0.5 : 0.33333333 : 1"
       inkscape:vp_z="1 : 0.5 : 1"
       inkscape:vp_y="0 : 1000 : 0"
       inkscape:vp_x="0 : 0.5 : 1"
       sodipodi:type="inkscape:persp3d" />
    <inkscape:perspective
       id="perspective915-0"
       inkscape:persp3d-origin="0.5 : 0.33333333 : 1"
       inkscape:vp_z="1 : 0.5 : 1"
       inkscape:vp_y="0 : 1000 : 0"
       inkscape:vp_x="0 : 0.5 : 1"
       sodipodi:type="inkscape:persp3d" />
    <inkscape:perspective
       id="perspective915-580"
       inkscape:persp3d-origin="0.5 : 0.33333333 : 1"
       inkscape:vp_z="1 : 0.5 : 1"
       inkscape:vp_y="0 : 1000 : 0"
       inkscape:vp_x="0 : 0.5 : 1"
       sodipodi:type="inkscape:persp3d" />
    <inkscape:perspective
       id="perspective915-4"
       inkscape:persp3d-origin="0.5 : 0.33333333 : 1"
       inkscape:vp_z="1 : 0.5 : 1"
       inkscape:vp_y="0 : 1000 : 0"
       inkscape:vp_x="0 : 0.5 : 1"
       sodipodi:type="inkscape:persp3d" />
    <inkscape:perspective
       id="perspective915-1"
       inkscape:persp3d-origin="0.5 : 0.33333333 : 1"
       inkscape:vp_z="1 : 0.5 : 1"
       inkscape:vp_y="0 : 1000 : 0"
       inkscape:vp_x="0 : 0.5 : 1"
       sodipodi:type="inkscape:persp3d" />
    <inkscape:perspective
       id="perspective1002"
       inkscape:persp3d-origin="0.5 : 0.33333333 : 1"
       inkscape:vp_z="1 : 0.5 : 1"
       inkscape:vp_y="0 : 1000 : 0"
       inkscape:vp_x="0 : 0.5 : 1"
       sodipodi:type="inkscape:persp3d" />
    <inkscape:perspective
       id="perspective1024"
       inkscape:persp3d-origin="0.5 : 0.33333333 : 1"
       inkscape:vp_z="1 : 0.5 : 1"
       inkscape:vp_y="0 : 1000 : 0"
       inkscape:vp_x="0 : 0.5 : 1"
       sodipodi:type="inkscape:persp3d" />
    <inkscape:perspective
       id="perspective1024-6"
       inkscape:persp3d-origin="0.5 : 0.33333333 : 1"
       inkscape:vp_z="1 : 0.5 : 1"
       inkscape:vp_y="0 : 1000 : 0"
       inkscape:vp_x="0 : 0.5 : 1"
       sodipodi:type="inkscape:persp3d" />
    <inkscape:perspective
       id="perspective1024-3"
       inkscape:persp3d-origin="0.5 : 0.33333333 : 1"
       inkscape:vp_z="1 : 0.5 : 1"
       inkscape:vp_y="0 : 1000 : 0"
       inkscape:vp_x="0 : 0.5 : 1"
       sodipodi:type="inkscape:persp3d" />
    <inkscape:perspective
       id="perspective1024-8"
       inkscape:persp3d-origin="0.5 : 0.33333333 : 1"
       inkscape:vp_z="1 : 0.5 : 1"
       inkscape:vp_y="0 : 1000 : 0"
       inkscape:vp_x="0 : 0.5 : 1"
       sodipodi:type="inkscape:persp3d" />
    <inkscape:perspective
       id="perspective1024-5"
       inkscape:persp3d-origin="0.5 : 0.33333333 : 1"
       inkscape:vp_z="1 : 0.5 : 1"
       inkscape:vp_y="0 : 1000 : 0"
       inkscape:vp_x="0 : 0.5 : 1"
       sodipodi:type="inkscape:persp3d" />
    <inkscape:perspective
       id="perspective1024-1"
       inkscape:persp3d-origin="0.5 : 0.33333333 : 1"
       inkscape:vp_z="1 : 0.5 : 1"
       inkscape:vp_y="0 : 1000 : 0"
       inkscape:vp_x="0 : 0.5 : 1"
       sodipodi:type="inkscape:persp3d" />
    <inkscape:perspective
       id="perspective1024-7"
       inkscape:persp3d-origin="0.5 : 0.33333333 : 1"
       inkscape:vp_z="1 : 0.5 : 1"
       inkscape:vp_y="0 : 1000 : 0"
       inkscape:vp_x="0 : 0.5 : 1"
       sodipodi:type="inkscape:persp3d" />
    <inkscape:perspective
       id="perspective1024-2"
       inkscape:persp3d-origin="0.5 : 0.33333333 : 1"
       inkscape:vp_z="1 : 0.5 : 1"
       inkscape:vp_y="0 : 1000 : 0"
       inkscape:vp_x="0 : 0.5 : 1"
       sodipodi:type="inkscape:persp3d" />
    <inkscape:perspective
       id="perspective1132"
       inkscape:persp3d-origin="0.5 : 0.33333333 : 1"
       inkscape:vp_z="1 : 0.5 : 1"
       inkscape:vp_y="0 : 1000 : 0"
       inkscape:vp_x="0 : 0.5 : 1"
       sodipodi:type="inkscape:persp3d" />
    <inkscape:perspective
       id="perspective1132-8"
       inkscape:persp3d-origin="0.5 : 0.33333333 : 1"
       inkscape:vp_z="1 : 0.5 : 1"
       inkscape:vp_y="0 : 1000 : 0"
       inkscape:vp_x="0 : 0.5 : 1"
       sodipodi:type="inkscape:persp3d" />
  </defs>
  <sodipodi:namedview
     id="base"
     pagecolor="#ffffff"
     bordercolor="#666666"
     borderopacity="1.0"
     inkscape:pageopacity="0.0"
     inkscape:pageshadow="2"
     inkscape:zoom="32"
     inkscape:cx="107.03112"
     inkscape:cy="910.47789"
     inkscape:document-units="mm"
     inkscape:current-layer="layer7"
     showgrid="true"
     showguides="true"
     inkscape:guide-bbox="true"
     inkscape:snap-bbox="false"
     inkscape:object-nodes="true"
     inkscape:snap-smooth-nodes="true"
     inkscape:snap-global="false"
     inkscape:window-width="1280"
     inkscape:window-height="951"
     inkscape:window-x="0"
     inkscape:window-y="25">
    <inkscape:grid
       type="xygrid"
       id="grid824"
       empspacing="10"
       visible="true"
       enabled="true"
       snapvisiblegridlinesonly="true"
       units="mm"
       spacingx="0.1mm"
       spacingy="0.1mm" />
    <sodipodi:guide
       orientation="0,1"
       position="63.779528,903.5433"
       id="guide826" />
    <sodipodi:guide
       orientation="0,1"
       position="72.623278,992.13706"
       id="guide828" />
    <sodipodi:guide
       orientation="0,1"
       position="58.421875,980.25"
       id="guide862" />
    <sodipodi:guide
       orientation="0,1"
       position="44.755754,937.20312"
       id="guide886" />
    <sodipodi:guide
       orientation="1,0"
       position="72.282027,911.40672"
       id="guide124" />
    <sodipodi:guide
       orientation="1,0"
       position="113.38261,911.89768"
       id="guide938" />
  </sodipodi:namedview>
  <metadata
     id="metadata7">
    <rdf:RDF>
      <cc:Work
         rdf:about="">
        <dc:format>image/svg+xml</dc:format>
        <dc:type
           rdf:resource="http://purl.org/dc/dcmitype/StillImage" />
        <dc:title />
      </cc:Work>
    </rdf:RDF>
  </metadata>
  <g
     inkscape:label="Layer 1"
     inkscape:groupmode="layer"
     id="layer1"
     style="display:none"
     sodipodi:insensitive="true">
    <g
       id="g1441">
      <path
         id="path816"
         d="m 111.62328,148.81888 8.84375,0 0,-88.593754 -8.84375,0 0,88.593754 z"
         style="fill:none;stroke:#000000;stroke-width:0.35433072;stroke-miterlimit:4;stroke-opacity:1;stroke-dasharray:none" />
      <path
         id="path814"
         d="m 72.623278,60.225126 -8.84375,0 0,88.593754 8.84375,0 0,-88.593754 z"
         style="fill:none;stroke:#000000;stroke-width:0.35433072;stroke-miterlimit:4;stroke-opacity:1;stroke-dasharray:none" />
      <path
         id="rect12"
         d="m 72.623278,60.225126 0,88.593754 39.000002,0 0,-88.593754 -39.000002,0 z"
         style="fill:none;stroke:#000000;stroke-width:0.35433072;stroke-miterlimit:4;stroke-opacity:1;stroke-dasharray:none" />
    </g>
    <path
       sodipodi:type="arc"
       style="fill:none;stroke:#000000;stroke-width:0.48701301;stroke-linecap:round;stroke-linejoin:miter;stroke-miterlimit:4;stroke-opacity:1;stroke-dasharray:none;stroke-dashoffset:0"
       id="path820"
       sodipodi:cx="73.928574"
       sodipodi:cy="56.647896"
       sodipodi:rx="2.6785715"
       sodipodi:ry="2.6785715"
       d="m 76.607145,56.647896 a 2.6785715,2.6785715 0 1 1 -5.357143,0 2.6785715,2.6785715 0 1 1 5.357143,0 z"
       transform="matrix(0.72755904,0,0,0.72755904,62.257753,52.682654)" />
    <path
       sodipodi:type="arc"
       style="fill:none;stroke:#000000;stroke-width:0.48701301;stroke-linecap:round;stroke-linejoin:miter;stroke-miterlimit:4;stroke-opacity:1;stroke-dasharray:none;stroke-dashoffset:0"
       id="path820-4"
       sodipodi:cx="73.928574"
       sodipodi:cy="56.647896"
       sodipodi:rx="2.6785715"
       sodipodi:ry="2.6785715"
       d="m 76.607145,56.647896 a 2.6785715,2.6785715 0 1 1 -5.357143,0 2.6785715,2.6785715 0 1 1 5.357143,0 z"
       transform="matrix(0.72755904,0,0,0.72755904,14.414001,52.682654)" />
    <path
       sodipodi:type="arc"
       style="fill:none;stroke:#000000;stroke-width:0.48701301;stroke-linecap:round;stroke-linejoin:miter;stroke-miterlimit:4;stroke-opacity:1;stroke-dasharray:none;stroke-dashoffset:0"
       id="path820-4-9"
       sodipodi:cx="73.928574"
       sodipodi:cy="56.647896"
       sodipodi:rx="2.6785715"
       sodipodi:ry="2.6785715"
       d="m 76.607145,56.647896 a 2.6785715,2.6785715 0 1 1 -5.357143,0 2.6785715,2.6785715 0 1 1 5.357143,0 z"
       transform="matrix(0.72755904,0,0,0.72755904,14.414001,31.420934)" />
    <path
       sodipodi:type="arc"
       style="fill:none;stroke:#000000;stroke-width:0.48701301;stroke-linecap:round;stroke-linejoin:miter;stroke-miterlimit:4;stroke-opacity:1;stroke-dasharray:none;stroke-dashoffset:0"
       id="path820-4-5"
       sodipodi:cx="73.928574"
       sodipodi:cy="56.647896"
       sodipodi:rx="2.6785715"
       sodipodi:ry="2.6785715"
       d="m 76.607145,56.647896 a 2.6785715,2.6785715 0 1 1 -5.357143,0 2.6785715,2.6785715 0 1 1 5.357143,0 z"
       transform="matrix(0.72755904,0,0,0.72755904,14.414001,73.94277)" />
    <path
       sodipodi:type="arc"
       style="fill:none;stroke:#000000;stroke-width:0.3603363;stroke-linecap:round;stroke-linejoin:miter;stroke-miterlimit:4;stroke-opacity:1;stroke-dasharray:none;stroke-dashoffset:0"
       id="path912"
       sodipodi:cx="60.236221"
       sodipodi:cy="46.062969"
       sodipodi:rx="10.629921"
       sodipodi:ry="10.629921"
       d="m 70.866142,46.062969 a 10.629921,10.629921 0 1 1 -21.259842,0 10.629921,10.629921 0 1 1 21.259842,0 z"
       transform="matrix(0.98333336,0,0,0.98333336,17.043305,27.340368)" />
    <path
       sodipodi:type="arc"
       style="fill:none;stroke:#000000;stroke-width:0.3603363;stroke-linecap:round;stroke-linejoin:miter;stroke-miterlimit:4;stroke-opacity:1;stroke-dasharray:none;stroke-dashoffset:0"
       id="path912-2"
       sodipodi:cx="60.236221"
       sodipodi:cy="46.062969"
       sodipodi:rx="10.629921"
       sodipodi:ry="10.629921"
       d="m 70.866142,46.062969 a 10.629921,10.629921 0 1 1 -21.259842,0 10.629921,10.629921 0 1 1 21.259842,0 z"
       transform="matrix(0.98333336,0,0,0.98333336,17.043305,50.374015)" />
    <path
       sodipodi:type="arc"
       style="fill:none;stroke:#000000;stroke-width:0.3603363;stroke-linecap:round;stroke-linejoin:miter;stroke-miterlimit:4;stroke-opacity:1;stroke-dasharray:none;stroke-dashoffset:0"
       id="path912-0"
       sodipodi:cx="60.236221"
       sodipodi:cy="46.062969"
       sodipodi:rx="10.629921"
       sodipodi:ry="10.629921"
       d="m 70.866142,46.062969 a 10.629921,10.629921 0 1 1 -21.259842,0 10.629921,10.629921 0 1 1 21.259842,0 z"
       transform="matrix(0.98333336,0,0,0.98333336,17.043305,73.405511)" />
    <path
       sodipodi:type="arc"
       style="fill:none;stroke:#000000;stroke-width:0.26911193;stroke-linecap:round;stroke-linejoin:miter;stroke-miterlimit:4;stroke-opacity:1;stroke-dasharray:none;stroke-dashoffset:0"
       id="path912-7"
       sodipodi:cx="60.236221"
       sodipodi:cy="46.062969"
       sodipodi:rx="10.629921"
       sodipodi:ry="10.629921"
       d="m 70.866142,46.062969 a 10.629921,10.629921 0 1 1 -21.259842,0 10.629921,10.629921 0 1 1 21.259842,0 z"
       transform="matrix(1.3166667,0,0,1.3166667,25.482278,38.385833)" />
  </g>
  <g
     inkscape:groupmode="layer"
     id="layer2"
     inkscape:label="to220"
     style="display:none"
     sodipodi:insensitive="true">
    <path
       id="rect993"
       style="fill:none;stroke:#000000;stroke-width:0.35433072;stroke-linecap:round;stroke-linejoin:miter;stroke-miterlimit:4;stroke-opacity:1;stroke-dashoffset:0"
       d="m 124.01575,95.65819 -3.5433,0 0,-35.433067 3.5433,0 m 0,0 10.62993,1.771652 0,31.889765 -10.62993,1.77165 0,-35.433067 z"
       sodipodi:nodetypes="ccccccccc" />
    <path
       id="rect993-0"
       style="fill:none;stroke:#000000;stroke-width:0.35433072;stroke-linecap:round;stroke-linejoin:miter;stroke-miterlimit:4;stroke-opacity:1;stroke-dashoffset:0"
       d="m 124.01575,145.27557 -3.5433,0 0,-35.43308 3.5433,0 m 0,0 10.62992,1.77165 0,31.88977 -10.62992,1.77166 0,-35.43308 z"
       sodipodi:nodetypes="ccccccccc" />
    <rect
       style="fill:none;stroke:#000000;stroke-width:0.35433072;stroke-linecap:round;stroke-linejoin:miter;stroke-miterlimit:4;stroke-opacity:1;stroke-dasharray:none;stroke-dashoffset:0"
       id="rect1020"
       width="31.889763"
       height="10.629921"
       x="99.212601"
       y="72.626694" />
    <rect
       style="fill:none;stroke:#000000;stroke-width:0.35433072;stroke-linecap:round;stroke-linejoin:miter;stroke-miterlimit:4;stroke-opacity:1;stroke-dasharray:none;stroke-dashoffset:0"
       id="rect1020-1"
       width="31.889763"
       height="10.629921"
       x="99.212601"
       y="122.24407" />
  </g>
  <g
     inkscape:groupmode="layer"
     id="layer3"
     inkscape:label="dims"
     style="display:none"
     sodipodi:insensitive="true">
    <path
       style="stroke:#0000ff;stroke-width:0.35433072;stroke-miterlimit:4;stroke-opacity:1;stroke-dasharray:none"
       d="m 76.275591,46.06297 0,109.84252"
       id="path1067" />
    <path
       style="stroke:#0000ff;stroke-width:0.35433072;stroke-miterlimit:4;stroke-opacity:1;stroke-dasharray:none"
       d="m 63.779528,46.06297 0,109.84252"
       id="path1067-6" />
    <text
       xml:space="preserve"
       style="font-size:9px;font-style:normal;font-weight:normal;fill:#000000;fill-opacity:1;stroke:none;font-family:Bitstream Vera Sans"
       x="69.779526"
       y="162.99211"
       id="text1091"><tspan
         sodipodi:role="line"
         id="tspan1093"
         x="69.779526"
         y="162.99211">3.5</tspan></text>
    <path
       style="stroke:#0000ff;stroke-width:0.35433072;stroke-miterlimit:4;stroke-opacity:1;stroke-dasharray:none"
       d="m 104.52756,46.062967 0,131.102373"
       id="path1067-1" />
    <text
       xml:space="preserve"
       style="font-size:9px;font-style:normal;font-weight:normal;fill:#000000;fill-opacity:1;stroke:none;font-family:Bitstream Vera Sans"
       x="95.669289"
       y="184.25195"
       id="text1091-4"><tspan
         sodipodi:role="line"
         x="95.669289"
         y="184.25195"
         id="tspan1142">11.5</tspan></text>
    <path
       style="stroke:#0000ff;stroke-width:0.35433072;stroke-miterlimit:4;stroke-opacity:1;stroke-dasharray:none"
       d="m 99.212607,118.70077 -53.149615,0"
       id="path1067-6-2" />
    <text
       xml:space="preserve"
       style="font-size:9px;font-style:normal;font-weight:normal;fill:#000000;fill-opacity:1;stroke:none;font-family:Bitstream Vera Sans"
       x="29.889763"
       y="122.47242"
       id="text1091-9"><tspan
         sodipodi:role="line"
         x="29.889763"
         y="122.47242"
         id="tspan1197">8.5</tspan></text>
    <path
       style="stroke:#0000ff;stroke-width:0.35433072;stroke-miterlimit:4;stroke-opacity:1;stroke-dasharray:none"
       d="m 99.212606,95.669269 -53.149614,0"
       id="path1067-6-2-4" />
    <path
       style="stroke:#0000ff;stroke-width:0.35433072;stroke-miterlimit:4;stroke-opacity:1;stroke-dasharray:none"
       d="m 99.212605,72.635622 -49.606306,0"
       id="path1067-6-2-4-5" />
    <text
       xml:space="preserve"
       style="font-size:9px;font-style:normal;font-weight:normal;fill:#000000;fill-opacity:1;stroke:none;font-family:Bitstream Vera Sans"
       x="31.889763"
       y="99.212578"
       id="text1091-9-1"><tspan
         sodipodi:role="line"
         x="31.889763"
         y="99.212578"
         id="tspan1270">15</tspan></text>
    <text
       xml:space="preserve"
       style="font-size:9px;font-style:normal;font-weight:normal;fill:#000000;fill-opacity:1;stroke:none;font-family:Bitstream Vera Sans"
       x="28.346457"
       y="76.409431"
       id="text1091-9-7"><tspan
         sodipodi:role="line"
         x="28.346457"
         y="76.409431"
         id="tspan1197-9">21.5</tspan></text>
    <path
       style="stroke:#0000ff;stroke-width:0.35433075;stroke-miterlimit:4;stroke-opacity:1;stroke-dasharray:none"
       d="m 148.8189,99.212576 -53.724472,0"
       id="path1067-6-2-4-9" />
    <text
       xml:space="preserve"
       style="font-size:9px;font-style:normal;font-weight:normal;fill:#000000;fill-opacity:1;stroke:none;font-family:Bitstream Vera Sans"
       x="148.81889"
       y="102.75588"
       id="text1091-9-1-7"><tspan
         sodipodi:role="line"
         x="148.81889"
         y="102.75588"
         id="tspan1270-5">14</tspan></text>
    <text
       xml:space="preserve"
       style="font-size:9px;font-style:normal;font-weight:normal;fill:#000000;fill-opacity:1;stroke:none;font-family:Bitstream Vera Sans"
       x="61.029526"
       y="152.36218"
       id="text1091-43"><tspan
         sodipodi:role="line"
         id="tspan1093-5"
         x="61.029526"
         y="152.36218">0</tspan></text>
    <path
       style="stroke:#0000ff;stroke-width:0.35433072;stroke-miterlimit:4;stroke-opacity:1;stroke-dasharray:none;display:inline"
       d="m 148.8189,127.55903 -53.149612,0"
       id="path1067-6-2-5" />
    <path
       style="stroke:#0000ff;stroke-width:0.35433072;stroke-miterlimit:4;stroke-opacity:1;stroke-dasharray:none;display:inline"
       d="m 148.8189,77.941654 -53.149612,0"
       id="path1067-6-2-5-3" />
    <text
       xml:space="preserve"
       style="font-size:9px;font-style:normal;font-weight:normal;fill:#000000;fill-opacity:1;stroke:none;display:inline;font-family:Bitstream Vera Sans"
       x="150.81889"
       y="131.10234"
       id="text1091-9-1-7-1"><tspan
         sodipodi:role="line"
         x="150.81889"
         y="131.10234"
         id="tspan1270-5-8">6</tspan></text>
    <text
       xml:space="preserve"
       style="font-size:9px;font-style:normal;font-weight:normal;fill:#000000;fill-opacity:1;stroke:none;display:inline;font-family:Bitstream Vera Sans"
       x="149.27559"
       y="81.496033"
       id="text1091-9-1-7-6"><tspan
         sodipodi:role="line"
         x="149.27559"
         y="81.496033"
         id="tspan1270-5-3">20</tspan></text>
    <path
       style="stroke:#0000ff;stroke-width:0.35433072;stroke-miterlimit:4;stroke-opacity:1;stroke-dasharray:none;display:inline"
       d="m 68.201403,46.06297 0,109.84252"
       id="path1067-6-8" />
    <path
       style="stroke:#0000ff;stroke-width:0.35433072;stroke-miterlimit:4;stroke-opacity:1;stroke-dasharray:none;display:inline"
       d="m 70.86615,115.15906 -53.149615,0"
       id="path1067-6-2-9" />
    <path
       style="stroke:#0000ff;stroke-width:0.35433072;stroke-miterlimit:4;stroke-opacity:1;stroke-dasharray:none;display:inline"
       d="m 127.55906,93.897347 -109.842525,0"
       id="path1067-6-2-9-9" />
    <text
       xml:space="preserve"
       style="font-size:9px;font-style:normal;font-weight:normal;fill:#000000;fill-opacity:1;stroke:none;display:inline;font-family:Bitstream Vera Sans"
       x="-2.4566929"
       y="97.212578"
       id="text1091-9-1-9"><tspan
         sodipodi:role="line"
         x="-2.4566929"
         y="97.212578"
         id="tspan1270-9">15.5</tspan></text>
    <text
       xml:space="preserve"
       style="font-size:9px;font-style:normal;font-weight:normal;fill:#000000;fill-opacity:1;stroke:none;display:inline;font-family:Bitstream Vera Sans"
       x="2.4566922"
       y="118.92912"
       id="text1091-9-8"><tspan
         sodipodi:role="line"
         x="2.4566922"
         y="118.92912"
         id="tspan1197-4">9.5</tspan></text>
  </g>
  <g
     inkscape:groupmode="layer"
     id="layer4"
     inkscape:label="toosmall"
     style="display:none"
     sodipodi:insensitive="true" />
  <g
     inkscape:groupmode="layer"
     id="layer6"
     inkscape:label="fpc"
     style="display:none"
     sodipodi:insensitive="true">
    <path
       sodipodi:nodetypes="ccccccccc"
       d="m 106.30401,99.29976 5.31496,23.38582 0,26.22047 -39.330706,0 0,-26.22047 5.31496,-23.38582 0,-31.88977 28.700786,0 0,31.88977 z"
       style="fill:none;stroke:#00ff00;stroke-width:0.35433072;stroke-miterlimit:4;stroke-opacity:1;stroke-dasharray:none"
       id="rect12-0" />
    <rect
       y="-149.1571"
       x="62.367004"
       height="89.291344"
       width="59.173229"
       id="rect820"
       style="fill:none;stroke:#00ff00;stroke-width:0.35433072;stroke-linecap:round;stroke-linejoin:miter;stroke-miterlimit:4;stroke-opacity:1;stroke-dasharray:none;stroke-dashoffset:0"
       transform="scale(1,-1)" />
  </g>
  <g
     inkscape:groupmode="layer"
     id="layer5"
     inkscape:label="ablate"
     style="display:none"
     sodipodi:insensitive="true">
    <g
       id="layer2-3"
       inkscape:label="ablate"
       style="display:inline"
       transform="matrix(1,0,0,-1,-33.302286,329.8869)">
      <path
         style="fill:#000000;fill-opacity:1;stroke:#000000;stroke-width:0.35433072;stroke-miterlimit:4;stroke-opacity:1"
         d="m 145.98425,180.70864 0,26.92913 -5.34375,22.67717 0,33.3232 -30.79798,0 0,-33.3232 -5.3125,-22.67717 0,-26.92913 m 0,0 -8.535681,0 0,89.3125 59.187501,0 0,-89.3125 -9.19759,0"
         id="rect12-0-9"
         sodipodi:nodetypes="cccccccccccccc" />
    </g>
  </g>
  <g
     inkscape:groupmode="layer"
     id="layer7"
     inkscape:label="tape"
     style="display:inline">
    <path
       style="fill:none;stroke:#ff0000;stroke-width:0.35433072;stroke-miterlimit:4;stroke-opacity:1;stroke-dasharray:none"
       d="M 63.78125 60.21875 L 63.78125 148.8125 L 72.625 148.8125 L 72.625 129.46875 C 72.512426 129.49395 72.401425 129.5 72.28125 129.5 C 71.400638 129.5 70.6875 128.78686 70.6875 127.90625 C 70.6875 127.02564 71.400638 126.3125 72.28125 126.3125 C 72.401425 126.3125 72.512426 126.31845 72.625 126.34375 L 72.625 116.75 L 74.03125 111 L 71.09375 106.28125 C 70.849708 106.00115 70.6875 105.65068 70.6875 105.25 C 70.6875 104.36939 71.400638 103.65625 72.28125 103.65625 L 75.90625 103.1875 L 76.875 99.1875 L 76.875 87.78125 L 71.625 85.09375 L 71.5625 85.0625 C 71.035879 84.802155 70.6875 84.252228 70.6875 83.625 C 70.6875 82.921117 71.148473 82.336415 71.78125 82.125 L 76.875 79 L 76.875 60.21875 L 72.625 60.21875 L 70.875 60.21875 L 63.78125 60.21875 z "
       id="path814-4" />
    <path
       sodipodi:type="arc"
       style="fill:none;stroke:#ff0000;stroke-width:0.38265306;stroke-linecap:round;stroke-linejoin:miter;stroke-miterlimit:4;stroke-opacity:1;stroke-dasharray:none;stroke-dashoffset:0;display:inline"
       id="path820-4-9-5-5-4"
       sodipodi:cx="73.928574"
       sodipodi:cy="56.647896"
       sodipodi:rx="2.6785715"
       sodipodi:ry="2.6785715"
       d="m 76.607145,56.647896 a 2.6785715,2.6785715 0 1 1 -5.357143,0 2.6785715,2.6785715 0 1 1 5.357143,0 z"
       transform="matrix(0.92598424,0,0,0.92598424,-0.255291,20.180566)" />
    <path
       sodipodi:type="arc"
       style="fill:none;stroke:#ff0000;stroke-width:0.38265306;stroke-linecap:round;stroke-linejoin:miter;stroke-miterlimit:4;stroke-opacity:1;stroke-dasharray:none;stroke-dashoffset:0;display:inline"
       id="path820-4-9-5-5-3"
       sodipodi:cx="73.928574"
       sodipodi:cy="56.647896"
       sodipodi:rx="2.6785715"
       sodipodi:ry="2.6785715"
       d="m 76.607145,56.647896 a 2.6785715,2.6785715 0 1 1 -5.357143,0 2.6785715,2.6785715 0 1 1 5.357143,0 z"
       transform="matrix(0.92598424,0,0,0.92598424,-0.255291,41.442286)" />
    <path
       sodipodi:type="arc"
       style="fill:none;stroke:#ff0000;stroke-width:0.38265306;stroke-linecap:round;stroke-linejoin:miter;stroke-miterlimit:4;stroke-opacity:1;stroke-dasharray:none;stroke-dashoffset:0;display:inline"
       id="path820-4-9-5-5-5"
       sodipodi:cx="73.928574"
       sodipodi:cy="56.647896"
       sodipodi:rx="2.6785715"
       sodipodi:ry="2.6785715"
       d="m 76.607145,56.647896 a 2.6785715,2.6785715 0 1 1 -5.357143,0 2.6785715,2.6785715 0 1 1 5.357143,0 z"
       transform="matrix(0.92598424,0,0,0.92598424,-0.255291,62.702402)" />
    <path
       sodipodi:type="arc"
       style="fill:none;stroke:#ff0000;stroke-width:0.38265306;stroke-linecap:round;stroke-linejoin:miter;stroke-miterlimit:4;stroke-opacity:1;stroke-dasharray:none;stroke-dashoffset:0;display:inline"
       id="path820-4-9-5-5-43"
       sodipodi:cx="73.928574"
       sodipodi:cy="56.647896"
       sodipodi:rx="2.6785715"
       sodipodi:ry="2.6785715"
       d="m 76.607145,56.647896 a 2.6785715,2.6785715 0 1 1 -5.357143,0 2.6785715,2.6785715 0 1 1 5.357143,0 z"
       transform="matrix(0.92598424,0,0,0.92598424,47.588462,41.442286)" />
    <path
       style="fill:none;stroke:#ff0000;stroke-width:0.35433072;stroke-miterlimit:4;stroke-opacity:1;stroke-dasharray:none"
       d="M 107.375 60.21875 L 107.375 64.90625 L 112.9375 67.46875 C 113.32133 67.759918 113.5625 68.231068 113.5625 68.75 C 113.5625 69.249877 113.32873 69.676402 112.96875 69.96875 L 107.375 74.28125 L 107.375 78.4375 L 114.4375 81.71875 C 114.7658 82.010808 114.96875 82.432274 114.96875 82.90625 C 114.96875 83.362281 114.77565 83.771883 114.46875 84.0625 L 107.375 89.625 L 107.375 99.1875 L 108 101.8125 L 114.09375 104.1875 C 114.6133 104.45031 114.96875 104.97171 114.96875 105.59375 C 114.96875 105.89646 114.89648 106.16517 114.75 106.40625 L 110.53125 112.25 L 111.625 116.75 L 114.78125 120.78125 C 114.90395 121.00718 114.96875 121.25606 114.96875 121.53125 C 114.96875 121.89293 114.85919 122.23248 114.65625 122.5 L 111.625 125.8125 L 111.625 139.53125 L 114.375 140.84375 C 114.73911 141.13598 114.96875 141.59054 114.96875 142.09375 C 114.96875 142.58456 114.75504 143.02001 114.40625 143.3125 C 113.47881 144.02026 112.55176 144.72875 111.625 145.4375 L 111.625 148.8125 L 120.46875 148.8125 L 120.46875 60.21875 L 113.375 60.21875 L 111.625 60.21875 L 107.375 60.21875 z "
       id="path814-4-6" />
  </g>
  <g
     inkscape:groupmode="layer"
     id="layer8"
     inkscape:label="pores"
     style="display:inline">
    <path
       sodipodi:type="arc"
       style="fill:#ff0100;fill-opacity:1;stroke:none;display:inline"
       id="path126"
       sodipodi:cx="73.346458"
       sodipodi:cy="128.97635"
       sodipodi:rx="1.0629921"
       sodipodi:ry="1.0629921"
       d="m 74.409451,128.97635 a 1.0629921,1.0629921 0 1 1 -2.125985,0 1.0629921,1.0629921 0 1 1 2.125985,0 z"
       transform="matrix(0.33333334,0,0,0.33333334,47.833207,84.921247)" />
    <path
       sodipodi:type="arc"
       style="fill:#ff0100;fill-opacity:1;stroke:none;display:inline"
       id="path126-1"
       sodipodi:cx="73.346458"
       sodipodi:cy="128.97635"
       sodipodi:rx="1.0629921"
       sodipodi:ry="1.0629921"
       d="m 74.409451,128.97635 a 1.0629921,1.0629921 0 1 1 -2.125985,0 1.0629921,1.0629921 0 1 1 2.125985,0 z"
       transform="matrix(0.33333334,0,0,0.33333334,47.833207,62.244081)" />
    <path
       sodipodi:type="arc"
       style="fill:#ff0100;fill-opacity:1;stroke:none;display:inline"
       id="path126-8"
       sodipodi:cx="73.346458"
       sodipodi:cy="128.97635"
       sodipodi:rx="1.0629921"
       sodipodi:ry="1.0629921"
       d="m 74.409451,128.97635 a 1.0629921,1.0629921 0 1 1 -2.125985,0 1.0629921,1.0629921 0 1 1 2.125985,0 z"
       transform="matrix(0.33333334,0,0,0.33333334,47.833207,40.629908)" />
    <path
       sodipodi:type="arc"
       style="fill:#ff0100;fill-opacity:1;stroke:none;display:inline"
       id="path126-3"
       sodipodi:cx="73.346458"
       sodipodi:cy="128.97635"
       sodipodi:rx="1.0629921"
       sodipodi:ry="1.0629921"
       d="m 74.409451,128.97635 a 1.0629921,1.0629921 0 1 1 -2.125985,0 1.0629921,1.0629921 0 1 1 2.125985,0 z"
       transform="matrix(0.33333334,0,0,0.33333334,88.937007,99.094475)" />
    <path
       sodipodi:type="arc"
       style="fill:#ff0100;fill-opacity:1;stroke:none;display:inline"
       id="path126-33"
       sodipodi:cx="73.346458"
       sodipodi:cy="128.97635"
       sodipodi:rx="1.0629921"
       sodipodi:ry="1.0629921"
       d="m 74.409451,128.97635 a 1.0629921,1.0629921 0 1 1 -2.125985,0 1.0629921,1.0629921 0 1 1 2.125985,0 z"
       transform="matrix(0.33333334,0,0,0.33333334,88.93379,78.543294)" />
    <path
       sodipodi:type="arc"
       style="fill:#ff0100;fill-opacity:1;stroke:none;display:inline"
       id="path126-12"
       sodipodi:cx="73.346458"
       sodipodi:cy="128.97635"
       sodipodi:rx="1.0629921"
       sodipodi:ry="1.0629921"
       d="m 74.409451,128.97635 a 1.0629921,1.0629921 0 1 1 -2.125985,0 1.0629921,1.0629921 0 1 1 2.125985,0 z"
       transform="matrix(0.33333334,0,0,0.33333334,88.937007,62.598412)" />
    <path
       sodipodi:type="arc"
       style="fill:#ff0100;fill-opacity:1;stroke:none;display:inline"
       id="path126-4"
       sodipodi:cx="73.346458"
       sodipodi:cy="128.97635"
       sodipodi:rx="1.0629921"
       sodipodi:ry="1.0629921"
       d="m 74.409451,128.97635 a 1.0629921,1.0629921 0 1 1 -2.125985,0 1.0629921,1.0629921 0 1 1 2.125985,0 z"
       transform="matrix(0.33333334,0,0,0.33333334,88.937007,39.921247)" />
    <path
       sodipodi:type="arc"
       style="fill:#ff0100;fill-opacity:1;stroke:none;display:inline"
       id="path126-2"
       sodipodi:cx="73.346458"
       sodipodi:cy="128.97635"
       sodipodi:rx="1.0629921"
       sodipodi:ry="1.0629921"
       d="m 74.409451,128.97635 a 1.0629921,1.0629921 0 1 1 -2.125985,0 1.0629921,1.0629921 0 1 1 2.125985,0 z"
       transform="matrix(0.33333334,0,0,0.33333334,87.519684,25.748018)" />
    <path
       sodipodi:type="arc"
       style="fill:#ff0100;fill-opacity:1;stroke:none;display:inline"
       id="path126-6"
       sodipodi:cx="73.346458"
       sodipodi:cy="128.97635"
       sodipodi:rx="1.0629921"
       sodipodi:ry="1.0629921"
       d="m 74.409451,128.97635 a 1.0629921,1.0629921 0 1 1 -2.125985,0 1.0629921,1.0629921 0 1 1 2.125985,0 z"
       transform="matrix(0.33333334,0,0,0.33333334,55.275589,22.559042)" />
  </g>
</svg>
