<?xml version="1.0" encoding="UTF-8" standalone="no"?>
<!-- Created with Inkscape (http://www.inkscape.org/) -->

<svg
   xmlns:dc="http://purl.org/dc/elements/1.1/"
   xmlns:cc="http://creativecommons.org/ns#"
   xmlns:rdf="http://www.w3.org/1999/02/22-rdf-syntax-ns#"
   xmlns:svg="http://www.w3.org/2000/svg"
   xmlns="http://www.w3.org/2000/svg"
   xmlns:sodipodi="http://sodipodi.sourceforge.net/DTD/sodipodi-0.dtd"
   xmlns:inkscape="http://www.inkscape.org/namespaces/inkscape"
   width="744.09448"
   height="1052.3622"
   id="svg2"
   sodipodi:version="0.32"
   inkscape:version="0.48.0 r9654"
   sodipodi:docname="block-mk2.svg"
   inkscape:output_extension="org.inkscape.output.svg.inkscape"
   version="1.1">
  <defs
     id="defs4">
    <inkscape:perspective
       id="perspective915"
       inkscape:persp3d-origin="0.5 : 0.33333333 : 1"
       inkscape:vp_z="1 : 0.5 : 1"
       inkscape:vp_y="0 : 1000 : 0"
       inkscape:vp_x="0 : 0.5 : 1"
       sodipodi:type="inkscape:persp3d" />
    <inkscape:perspective
       id="perspective915-5"
       inkscape:persp3d-origin="0.5 : 0.33333333 : 1"
       inkscape:vp_z="1 : 0.5 : 1"
       inkscape:vp_y="0 : 1000 : 0"
       inkscape:vp_x="0 : 0.5 : 1"
       sodipodi:type="inkscape:persp3d" />
    <inkscape:perspective
       id="perspective915-3"
       inkscape:persp3d-origin="0.5 : 0.33333333 : 1"
       inkscape:vp_z="1 : 0.5 : 1"
       inkscape:vp_y="0 : 1000 : 0"
       inkscape:vp_x="0 : 0.5 : 1"
       sodipodi:type="inkscape:persp3d" />
    <inkscape:perspective
       id="perspective915-58"
       inkscape:persp3d-origin="0.5 : 0.33333333 : 1"
       inkscape:vp_z="1 : 0.5 : 1"
       inkscape:vp_y="0 : 1000 : 0"
       inkscape:vp_x="0 : 0.5 : 1"
       sodipodi:type="inkscape:persp3d" />
    <inkscape:perspective
       id="perspective915-0"
       inkscape:persp3d-origin="0.5 : 0.33333333 : 1"
       inkscape:vp_z="1 : 0.5 : 1"
       inkscape:vp_y="0 : 1000 : 0"
       inkscape:vp_x="0 : 0.5 : 1"
       sodipodi:type="inkscape:persp3d" />
    <inkscape:perspective
       id="perspective915-580"
       inkscape:persp3d-origin="0.5 : 0.33333333 : 1"
       inkscape:vp_z="1 : 0.5 : 1"
       inkscape:vp_y="0 : 1000 : 0"
       inkscape:vp_x="0 : 0.5 : 1"
       sodipodi:type="inkscape:persp3d" />
    <inkscape:perspective
       id="perspective915-4"
       inkscape:persp3d-origin="0.5 : 0.33333333 : 1"
       inkscape:vp_z="1 : 0.5 : 1"
       inkscape:vp_y="0 : 1000 : 0"
       inkscape:vp_x="0 : 0.5 : 1"
       sodipodi:type="inkscape:persp3d" />
    <inkscape:perspective
       id="perspective915-1"
       inkscape:persp3d-origin="0.5 : 0.33333333 : 1"
       inkscape:vp_z="1 : 0.5 : 1"
       inkscape:vp_y="0 : 1000 : 0"
       inkscape:vp_x="0 : 0.5 : 1"
       sodipodi:type="inkscape:persp3d" />
    <inkscape:perspective
       id="perspective1002"
       inkscape:persp3d-origin="0.5 : 0.33333333 : 1"
       inkscape:vp_z="1 : 0.5 : 1"
       inkscape:vp_y="0 : 1000 : 0"
       inkscape:vp_x="0 : 0.5 : 1"
       sodipodi:type="inkscape:persp3d" />
    <inkscape:perspective
       id="perspective1024"
       inkscape:persp3d-origin="0.5 : 0.33333333 : 1"
       inkscape:vp_z="1 : 0.5 : 1"
       inkscape:vp_y="0 : 1000 : 0"
       inkscape:vp_x="0 : 0.5 : 1"
       sodipodi:type="inkscape:persp3d" />
    <inkscape:perspective
       id="perspective1024-6"
       inkscape:persp3d-origin="0.5 : 0.33333333 : 1"
       inkscape:vp_z="1 : 0.5 : 1"
       inkscape:vp_y="0 : 1000 : 0"
       inkscape:vp_x="0 : 0.5 : 1"
       sodipodi:type="inkscape:persp3d" />
    <inkscape:perspective
       id="perspective1024-3"
       inkscape:persp3d-origin="0.5 : 0.33333333 : 1"
       inkscape:vp_z="1 : 0.5 : 1"
       inkscape:vp_y="0 : 1000 : 0"
       inkscape:vp_x="0 : 0.5 : 1"
       sodipodi:type="inkscape:persp3d" />
    <inkscape:perspective
       id="perspective1024-8"
       inkscape:persp3d-origin="0.5 : 0.33333333 : 1"
       inkscape:vp_z="1 : 0.5 : 1"
       inkscape:vp_y="0 : 1000 : 0"
       inkscape:vp_x="0 : 0.5 : 1"
       sodipodi:type="inkscape:persp3d" />
    <inkscape:perspective
       id="perspective1024-5"
       inkscape:persp3d-origin="0.5 : 0.33333333 : 1"
       inkscape:vp_z="1 : 0.5 : 1"
       inkscape:vp_y="0 : 1000 : 0"
       inkscape:vp_x="0 : 0.5 : 1"
       sodipodi:type="inkscape:persp3d" />
    <inkscape:perspective
       id="perspective1024-1"
       inkscape:persp3d-origin="0.5 : 0.33333333 : 1"
       inkscape:vp_z="1 : 0.5 : 1"
       inkscape:vp_y="0 : 1000 : 0"
       inkscape:vp_x="0 : 0.5 : 1"
       sodipodi:type="inkscape:persp3d" />
    <inkscape:perspective
       id="perspective1024-7"
       inkscape:persp3d-origin="0.5 : 0.33333333 : 1"
       inkscape:vp_z="1 : 0.5 : 1"
       inkscape:vp_y="0 : 1000 : 0"
       inkscape:vp_x="0 : 0.5 : 1"
       sodipodi:type="inkscape:persp3d" />
    <inkscape:perspective
       id="perspective1024-2"
       inkscape:persp3d-origin="0.5 : 0.33333333 : 1"
       inkscape:vp_z="1 : 0.5 : 1"
       inkscape:vp_y="0 : 1000 : 0"
       inkscape:vp_x="0 : 0.5 : 1"
       sodipodi:type="inkscape:persp3d" />
    <inkscape:perspective
       id="perspective1132"
       inkscape:persp3d-origin="0.5 : 0.33333333 : 1"
       inkscape:vp_z="1 : 0.5 : 1"
       inkscape:vp_y="0 : 1000 : 0"
       inkscape:vp_x="0 : 0.5 : 1"
       sodipodi:type="inkscape:persp3d" />
    <inkscape:perspective
       id="perspective1132-8"
       inkscape:persp3d-origin="0.5 : 0.33333333 : 1"
       inkscape:vp_z="1 : 0.5 : 1"
       inkscape:vp_y="0 : 1000 : 0"
       inkscape:vp_x="0 : 0.5 : 1"
       sodipodi:type="inkscape:persp3d" />
  </defs>
  <sodipodi:namedview
     id="base"
     pagecolor="#ffffff"
     bordercolor="#666666"
     borderopacity="1.0"
     inkscape:pageopacity="0.0"
     inkscape:pageshadow="2"
     inkscape:zoom="4"
     inkscape:cx="120.43754"
     inkscape:cy="959.19817"
     inkscape:document-units="mm"
     inkscape:current-layer="layer2"
     showgrid="true"
     showguides="false"
     inkscape:guide-bbox="true"
     inkscape:snap-bbox="false"
     inkscape:object-nodes="true"
     inkscape:snap-smooth-nodes="true"
     inkscape:snap-global="true"
     inkscape:window-width="1366"
     inkscape:window-height="694"
     inkscape:window-x="0"
     inkscape:window-y="25"
     inkscape:window-maximized="1">
    <inkscape:grid
       type="xygrid"
       id="grid824"
       empspacing="10"
       visible="true"
       enabled="true"
       snapvisiblegridlinesonly="true"
       units="mm"
       spacingx="0.1mm"
       spacingy="0.1mm" />
    <sodipodi:guide
       orientation="0,1"
       position="63.779528,903.5433"
       id="guide826" />
    <sodipodi:guide
       orientation="0,1"
       position="72.623278,992.13706"
       id="guide828" />
    <sodipodi:guide
       orientation="0,1"
       position="58.421875,980.25"
       id="guide862" />
    <sodipodi:guide
       orientation="0,1"
       position="44.755754,937.20312"
       id="guide886" />
    <sodipodi:guide
       orientation="1,0"
       position="72.282027,911.40672"
       id="guide124" />
    <sodipodi:guide
       orientation="1,0"
       position="113.38261,911.89768"
       id="guide938" />
  </sodipodi:namedview>
  <metadata
     id="metadata7">
    <rdf:RDF>
      <cc:Work
         rdf:about="">
        <dc:format>image/svg+xml</dc:format>
        <dc:type
           rdf:resource="http://purl.org/dc/dcmitype/StillImage" />
        <dc:title />
      </cc:Work>
    </rdf:RDF>
  </metadata>
  <g
     inkscape:label="Layer 1"
     inkscape:groupmode="layer"
     id="layer1"
     style="display:inline"
     sodipodi:insensitive="true">
    <path
       sodipodi:type="arc"
       style="fill:none;stroke:#000000;stroke-width:0.48701301;stroke-linecap:round;stroke-linejoin:miter;stroke-miterlimit:4;stroke-opacity:1;stroke-dasharray:none;stroke-dashoffset:0"
       id="path820"
       sodipodi:cx="73.928574"
       sodipodi:cy="56.647896"
       sodipodi:rx="2.6785715"
       sodipodi:ry="2.6785715"
       d="m 76.607145,56.647896 a 2.6785715,2.6785715 0 1 1 -5.357143,0 2.6785715,2.6785715 0 1 1 5.357143,0 z"
       transform="matrix(0.72755904,0,0,0.72755904,62.257753,52.682654)" />
    <path
       sodipodi:type="arc"
       style="fill:none;stroke:#000000;stroke-width:0.48701301;stroke-linecap:round;stroke-linejoin:miter;stroke-miterlimit:4;stroke-opacity:1;stroke-dasharray:none;stroke-dashoffset:0"
       id="path820-4"
       sodipodi:cx="73.928574"
       sodipodi:cy="56.647896"
       sodipodi:rx="2.6785715"
       sodipodi:ry="2.6785715"
       d="m 76.607145,56.647896 a 2.6785715,2.6785715 0 1 1 -5.357143,0 2.6785715,2.6785715 0 1 1 5.357143,0 z"
       transform="matrix(0.72755904,0,0,0.72755904,14.414001,52.682654)" />
    <path
       sodipodi:type="arc"
       style="fill:none;stroke:#000000;stroke-width:0.48701301;stroke-linecap:round;stroke-linejoin:miter;stroke-miterlimit:4;stroke-opacity:1;stroke-dasharray:none;stroke-dashoffset:0"
       id="path820-4-9"
       sodipodi:cx="73.928574"
       sodipodi:cy="56.647896"
       sodipodi:rx="2.6785715"
       sodipodi:ry="2.6785715"
       d="m 76.607145,56.647896 a 2.6785715,2.6785715 0 1 1 -5.357143,0 2.6785715,2.6785715 0 1 1 5.357143,0 z"
       transform="matrix(0.72755904,0,0,0.72755904,14.414001,31.420934)" />
    <path
       sodipodi:type="arc"
       style="fill:none;stroke:#000000;stroke-width:0.48701301;stroke-linecap:round;stroke-linejoin:miter;stroke-miterlimit:4;stroke-opacity:1;stroke-dasharray:none;stroke-dashoffset:0"
       id="path820-4-5"
       sodipodi:cx="73.928574"
       sodipodi:cy="56.647896"
       sodipodi:rx="2.6785715"
       sodipodi:ry="2.6785715"
       d="m 76.607145,56.647896 a 2.6785715,2.6785715 0 1 1 -5.357143,0 2.6785715,2.6785715 0 1 1 5.357143,0 z"
       transform="matrix(0.72755904,0,0,0.72755904,14.414001,73.94277)" />
    <path
       sodipodi:type="arc"
       style="fill:none;stroke:#000000;stroke-width:0.3603363;stroke-linecap:round;stroke-linejoin:miter;stroke-miterlimit:4;stroke-opacity:1;stroke-dasharray:none;stroke-dashoffset:0"
       id="path912"
       sodipodi:cx="60.236221"
       sodipodi:cy="46.062969"
       sodipodi:rx="10.629921"
       sodipodi:ry="10.629921"
       d="m 70.866142,46.062969 a 10.629921,10.629921 0 1 1 -21.259842,0 10.629921,10.629921 0 1 1 21.259842,0 z"
       transform="matrix(0.98333336,0,0,0.98333336,11.45669,27.340368)" />
    <path
       sodipodi:type="arc"
       style="fill:none;stroke:#000000;stroke-width:0.3603363;stroke-linecap:round;stroke-linejoin:miter;stroke-miterlimit:4;stroke-opacity:1;stroke-dasharray:none;stroke-dashoffset:0"
       id="path912-2"
       sodipodi:cx="60.236221"
       sodipodi:cy="46.062969"
       sodipodi:rx="10.629921"
       sodipodi:ry="10.629921"
       d="m 70.866142,46.062969 a 10.629921,10.629921 0 1 1 -21.259842,0 10.629921,10.629921 0 1 1 21.259842,0 z"
       transform="matrix(0.98333336,0,0,0.98333336,11.45669,50.374015)" />
    <path
       sodipodi:type="arc"
       style="fill:none;stroke:#000000;stroke-width:0.3603363;stroke-linecap:round;stroke-linejoin:miter;stroke-miterlimit:4;stroke-opacity:1;stroke-dasharray:none;stroke-dashoffset:0"
       id="path912-0"
       sodipodi:cx="60.236221"
       sodipodi:cy="46.062969"
       sodipodi:rx="10.629921"
       sodipodi:ry="10.629921"
       d="m 70.866142,46.062969 a 10.629921,10.629921 0 1 1 -21.259842,0 10.629921,10.629921 0 1 1 21.259842,0 z"
       transform="matrix(0.98333336,0,0,0.98333336,11.45669,73.405511)" />
    <path
       sodipodi:type="arc"
       style="fill:none;stroke:#000000;stroke-width:0.26911193;stroke-linecap:round;stroke-linejoin:miter;stroke-miterlimit:4;stroke-opacity:1;stroke-dasharray:none;stroke-dashoffset:0"
       id="path912-7"
       sodipodi:cx="60.236221"
       sodipodi:cy="46.062969"
       sodipodi:rx="10.629921"
       sodipodi:ry="10.629921"
       d="m 70.866142,46.062969 a 10.629921,10.629921 0 1 1 -21.259842,0 10.629921,10.629921 0 1 1 21.259842,0 z"
       transform="matrix(1.3166667,0,0,1.3166667,30.531493,40.157487)" />
    <path
       id="rect3879"
       style="fill:none;stroke:#000000;stroke-width:0.35433072;stroke-linecap:round;stroke-linejoin:miter;stroke-miterlimit:4;stroke-opacity:1;stroke-dashoffset:0"
       d="m 108.07087,60.236198 0,42.380092 3.89763,15.42127 0,30.78132 m -38.622043,0 0,-21.88488 6.023622,-17.64537 0,-49.052432 m -22.677166,-0.01107 70.866147,0.01107 0,88.582682 -70.866147,0 z"
       inkscape:connector-curvature="0"
       sodipodi:nodetypes="ccccccccccccc" />
  </g>
  <g
     inkscape:groupmode="layer"
     id="layer9"
     inkscape:label="nozzleplate"
     style="display:inline"
     sodipodi:insensitive="true">
    <rect
       style="fill:none;stroke:#000000;stroke-width:0.35433072;stroke-linecap:round;stroke-linejoin:miter;stroke-miterlimit:4;stroke-opacity:1;stroke-dasharray:none;stroke-dashoffset:0;display:inline"
       id="rect3085-1"
       width="58.110237"
       height="88.228348"
       x="63.068161"
       y="60.407829" />
  </g>
  <g
     inkscape:groupmode="layer"
     id="layer2"
     inkscape:label="to220"
     style="display:inline">
    <path
       id="rect993"
       style="fill:none;stroke:#000000;stroke-width:0.35433072;stroke-linecap:round;stroke-linejoin:miter;stroke-miterlimit:4;stroke-opacity:1;stroke-dashoffset:0"
       d="m 131.10236,95.669269 -3.5433,0 0,-35.433067 3.5433,0 m 0,0 10.62993,1.771652 0,31.889765 -10.62993,1.77165 0,-35.433067 z"
       sodipodi:nodetypes="ccccccccc"
       inkscape:connector-curvature="0" />
    <path
       id="rect993-0"
       style="fill:none;stroke:#000000;stroke-width:0.35433072;stroke-linecap:round;stroke-linejoin:miter;stroke-miterlimit:4;stroke-opacity:1;stroke-dashoffset:0"
       d="m 131.10236,148.81888 -3.5433,0 0,-35.43308 3.5433,0 m 0,0 10.62992,1.77165 0,31.88977 -10.62992,1.77166 0,-35.43308 z"
       sodipodi:nodetypes="ccccccccc"
       inkscape:connector-curvature="0" />
    <rect
       style="fill:none;stroke:#000000;stroke-width:0.35433072;stroke-linecap:round;stroke-linejoin:miter;stroke-miterlimit:4;stroke-opacity:1;stroke-dasharray:none;stroke-dashoffset:0"
       id="rect1020"
       width="31.889763"
       height="10.629921"
       x="106.29921"
       y="72.637772" />
    <rect
       style="fill:none;stroke:#000000;stroke-width:0.35433072;stroke-linecap:round;stroke-linejoin:miter;stroke-miterlimit:4;stroke-opacity:1;stroke-dasharray:none;stroke-dashoffset:0"
       id="rect1020-1"
       width="31.889763"
       height="10.629921"
       x="106.29921"
       y="125.78738" />
  </g>
  <g
     inkscape:groupmode="layer"
     id="layer3"
     inkscape:label="dims"
     style="display:inline">
    <path
       style="stroke:#0000ff;stroke-width:0.35433072;stroke-miterlimit:4;stroke-opacity:1;stroke-dasharray:none"
       d="m 70.866142,46.06297 0,109.84252"
       id="path1067"
       inkscape:connector-curvature="0" />
    <path
       style="stroke:#0000ff;stroke-width:0.35433072;stroke-miterlimit:4;stroke-opacity:1;stroke-dasharray:none"
       d="m 56.692913,46.4173 0,109.84252"
       id="path1067-6"
       inkscape:connector-curvature="0" />
    <text
       xml:space="preserve"
       style="font-size:9px;font-style:normal;font-weight:normal;fill:#000000;fill-opacity:1;stroke:none;font-family:Bitstream Vera Sans"
       x="69.322838"
       y="162.99211"
       id="text1091"><tspan
         sodipodi:role="line"
         x="69.322838"
         y="162.99211"
         id="tspan3898">4</tspan></text>
    <path
       style="stroke:#0000ff;stroke-width:0.35433072;stroke-miterlimit:4;stroke-opacity:1;stroke-dasharray:none"
       d="m 109.84252,46.062962 0,131.102368"
       id="path1067-1"
       inkscape:connector-curvature="0" />
    <text
       xml:space="preserve"
       style="font-size:9px;font-style:normal;font-weight:normal;fill:#000000;fill-opacity:1;stroke:none;font-family:Bitstream Vera Sans"
       x="103.66929"
       y="184.25195"
       id="text1091-4"><tspan
         sodipodi:role="line"
         x="103.66929"
         y="184.25195"
         id="tspan1142">15</tspan></text>
    <path
       style="stroke:#0000ff;stroke-width:0.35433072;stroke-miterlimit:4;stroke-opacity:1;stroke-dasharray:none"
       d="m 99.212607,118.70077 -53.149615,0"
       id="path1067-6-2"
       inkscape:connector-curvature="0" />
    <text
       xml:space="preserve"
       style="font-size:9px;font-style:normal;font-weight:normal;fill:#000000;fill-opacity:1;stroke:none;font-family:Bitstream Vera Sans"
       x="29.889763"
       y="122.47242"
       id="text1091-9"><tspan
         sodipodi:role="line"
         x="29.889763"
         y="122.47242"
         id="tspan1197">8.5</tspan></text>
    <path
       style="stroke:#0000ff;stroke-width:0.35433072;stroke-miterlimit:4;stroke-opacity:1;stroke-dasharray:none"
       d="m 99.212606,95.669269 -53.149614,0"
       id="path1067-6-2-4"
       inkscape:connector-curvature="0" />
    <path
       style="stroke:#0000ff;stroke-width:0.35433072;stroke-miterlimit:4;stroke-opacity:1;stroke-dasharray:none"
       d="m 99.212605,72.635622 -49.606306,0"
       id="path1067-6-2-4-5"
       inkscape:connector-curvature="0" />
    <text
       xml:space="preserve"
       style="font-size:9px;font-style:normal;font-weight:normal;fill:#000000;fill-opacity:1;stroke:none;font-family:Bitstream Vera Sans"
       x="31.889763"
       y="99.212578"
       id="text1091-9-1"><tspan
         sodipodi:role="line"
         x="31.889763"
         y="99.212578"
         id="tspan1270">15</tspan></text>
    <text
       xml:space="preserve"
       style="font-size:9px;font-style:normal;font-weight:normal;fill:#000000;fill-opacity:1;stroke:none;font-family:Bitstream Vera Sans"
       x="28.346457"
       y="76.409431"
       id="text1091-9-7"><tspan
         sodipodi:role="line"
         x="28.346457"
         y="76.409431"
         id="tspan1197-9">21.5</tspan></text>
    <path
       style="stroke:#0000ff;stroke-width:0.35433075;stroke-miterlimit:4;stroke-opacity:1;stroke-dasharray:none"
       d="m 148.33077,100.98423 -53.724471,0"
       id="path1067-6-2-4-9"
       inkscape:connector-curvature="0" />
    <text
       xml:space="preserve"
       style="font-size:9px;font-style:normal;font-weight:normal;fill:#000000;fill-opacity:1;stroke:none;font-family:Bitstream Vera Sans"
       x="148.81889"
       y="104.75588"
       id="text1091-9-1-7"><tspan
         sodipodi:role="line"
         x="148.81889"
         y="104.75588"
         id="tspan1270-5">13.5</tspan></text>
    <text
       xml:space="preserve"
       style="font-size:9px;font-style:normal;font-weight:normal;fill:#000000;fill-opacity:1;stroke:none;font-family:Bitstream Vera Sans"
       x="53.942909"
       y="152.71651"
       id="text1091-43"><tspan
         sodipodi:role="line"
         id="tspan1093-5"
         x="53.942909"
         y="152.71651">0</tspan></text>
    <path
       style="stroke:#0000ff;stroke-width:0.35433072;stroke-miterlimit:4;stroke-opacity:1;stroke-dasharray:none;display:inline"
       d="m 148.8189,131.10234 -53.149609,0"
       id="path1067-6-2-5"
       inkscape:connector-curvature="0" />
    <path
       style="stroke:#0000ff;stroke-width:0.35433072;stroke-miterlimit:4;stroke-opacity:1;stroke-dasharray:none;display:inline"
       d="m 148.8189,77.941654 -53.149612,0"
       id="path1067-6-2-5-3"
       inkscape:connector-curvature="0" />
    <text
       xml:space="preserve"
       style="font-size:9px;font-style:normal;font-weight:normal;fill:#000000;fill-opacity:1;stroke:none;display:inline;font-family:Bitstream Vera Sans"
       x="150.81889"
       y="134.64565"
       id="text1091-9-1-7-1"><tspan
         sodipodi:role="line"
         x="150.81889"
         y="134.64565"
         id="tspan1270-5-8">5</tspan></text>
    <text
       xml:space="preserve"
       style="font-size:9px;font-style:normal;font-weight:normal;fill:#000000;fill-opacity:1;stroke:none;display:inline;font-family:Bitstream Vera Sans"
       x="149.27559"
       y="81.496033"
       id="text1091-9-1-7-6"><tspan
         sodipodi:role="line"
         x="149.27559"
         y="81.496033"
         id="tspan1270-5-3">20</tspan></text>
    <path
       style="stroke:#0000ff;stroke-width:0.35433072;stroke-miterlimit:4;stroke-opacity:1;stroke-dasharray:none;display:inline"
       d="m 68.201403,46.06297 0,124.01575"
       id="path1067-6-8"
       inkscape:connector-curvature="0"
       sodipodi:nodetypes="cc" />
    <path
       style="stroke:#0000ff;stroke-width:0.35433072;stroke-miterlimit:4;stroke-opacity:1;stroke-dasharray:none;display:inline"
       d="m 70.86615,115.15906 -53.149615,0"
       id="path1067-6-2-9"
       inkscape:connector-curvature="0" />
    <path
       style="stroke:#0000ff;stroke-width:0.35433072;stroke-miterlimit:4;stroke-opacity:1;stroke-dasharray:none;display:inline"
       d="m 127.55906,93.897347 -109.842525,0"
       id="path1067-6-2-9-9"
       inkscape:connector-curvature="0" />
    <text
       xml:space="preserve"
       style="font-size:9px;font-style:normal;font-weight:normal;fill:#000000;fill-opacity:1;stroke:none;display:inline;font-family:Bitstream Vera Sans"
       x="-2.4566929"
       y="97.212578"
       id="text1091-9-1-9"><tspan
         sodipodi:role="line"
         x="-2.4566929"
         y="97.212578"
         id="tspan1270-9">15.5</tspan></text>
    <text
       xml:space="preserve"
       style="font-size:9px;font-style:normal;font-weight:normal;fill:#000000;fill-opacity:1;stroke:none;display:inline;font-family:Bitstream Vera Sans"
       x="2.4566922"
       y="118.92912"
       id="text1091-9-8"><tspan
         sodipodi:role="line"
         x="2.4566922"
         y="118.92912"
         id="tspan1197-4">9.5</tspan></text>
    <text
       xml:space="preserve"
       style="font-size:9px;font-style:normal;font-weight:normal;fill:#000000;fill-opacity:1;stroke:none;display:inline;font-family:Bitstream Vera Sans"
       x="56.236221"
       y="179.16533"
       id="text1091-7"><tspan
         sodipodi:role="line"
         x="56.236221"
         y="179.16533"
         id="tspan3898-7"
         style="font-size:6px">3.15</tspan></text>
  </g>
  <g
     inkscape:groupmode="layer"
     id="layer4"
     inkscape:label="toosmall"
     style="display:none"
     sodipodi:insensitive="true" />
  <g
     inkscape:groupmode="layer"
     id="layer6"
     inkscape:label="fpc"
     style="display:none"
     sodipodi:insensitive="true">
    <path
       sodipodi:nodetypes="ccccccccc"
       d="m 106.30401,99.29976 5.31496,23.38582 0,26.22047 -39.330706,0 0,-26.22047 5.31496,-23.38582 0,-31.88977 28.700786,0 0,31.88977 z"
       style="fill:none;stroke:#00ff00;stroke-width:0.35433072;stroke-miterlimit:4;stroke-opacity:1;stroke-dasharray:none"
       id="rect12-0"
       inkscape:connector-curvature="0" />
    <rect
       y="-149.1571"
       x="62.367004"
       height="89.291344"
       width="59.173229"
       id="rect820"
       style="fill:none;stroke:#00ff00;stroke-width:0.35433072;stroke-linecap:round;stroke-linejoin:miter;stroke-miterlimit:4;stroke-opacity:1;stroke-dasharray:none;stroke-dashoffset:0"
       transform="scale(1,-1)" />
  </g>
  <g
     inkscape:groupmode="layer"
     id="layer5"
     inkscape:label="ablate"
     style="display:none"
     sodipodi:insensitive="true">
    <g
       id="layer2-3"
       inkscape:label="ablate"
       style="display:inline"
       transform="matrix(1,0,0,-1,-33.302286,329.8869)">
      <path
         style="fill:#000000;fill-opacity:1;stroke:#000000;stroke-width:0.35433072;stroke-miterlimit:4;stroke-opacity:1"
         d="m 145.98425,180.70864 0,26.92913 -5.34375,22.67717 0,33.3232 -30.79798,0 0,-33.3232 -5.3125,-22.67717 0,-26.92913 m 0,0 -8.535681,0 0,89.3125 59.187501,0 0,-89.3125 -9.19759,0"
         id="rect12-0-9"
         sodipodi:nodetypes="cccccccccccccc"
         inkscape:connector-curvature="0" />
    </g>
  </g>
  <g
     inkscape:groupmode="layer"
     id="layer7"
     inkscape:label="tape"
     style="display:none"
     sodipodi:insensitive="true">
    <path
       style="fill:none;stroke:#ff0000;stroke-width:0.35433072;stroke-miterlimit:4;stroke-opacity:1;stroke-dasharray:none"
       d="m 63.78125,60.21875 0,88.59375 8.84375,0 0,-19.34375 c -0.112574,0.0252 -0.223575,0.0313 -0.34375,0.0313 -0.880612,0 -1.59375,-0.71314 -1.59375,-1.59375 0,-0.88061 0.713138,-1.59375 1.59375,-1.59375 0.120175,0 0.231176,0.006 0.34375,0.0313 l 0,-9.59375 1.40625,-5.75 -2.9375,-4.71875 c -0.244042,-0.2801 -0.40625,-0.63057 -0.40625,-1.03125 0,-0.88061 0.713138,-1.59375 1.59375,-1.59375 l 3.625,-0.46875 0.96875,-4 0,-11.40625 -5.25,-2.6875 -0.0625,-0.03125 c -0.526621,-0.260345 -0.875,-0.810272 -0.875,-1.4375 0,-0.703883 0.460973,-1.288585 1.09375,-1.5 L 76.875,79 l 0,-18.78125 -4.25,0 -1.75,0 -7.09375,0 z"
       id="path814-4"
       inkscape:connector-curvature="0" />
    <path
       sodipodi:type="arc"
       style="fill:none;stroke:#ff0000;stroke-width:0.38265306;stroke-linecap:round;stroke-linejoin:miter;stroke-miterlimit:4;stroke-opacity:1;stroke-dasharray:none;stroke-dashoffset:0;display:inline"
       id="path820-4-9-5-5-4"
       sodipodi:cx="73.928574"
       sodipodi:cy="56.647896"
       sodipodi:rx="2.6785715"
       sodipodi:ry="2.6785715"
       d="m 76.607145,56.647896 a 2.6785715,2.6785715 0 1 1 -5.357143,0 2.6785715,2.6785715 0 1 1 5.357143,0 z"
       transform="matrix(0.92598424,0,0,0.92598424,-0.255291,20.180566)" />
    <path
       sodipodi:type="arc"
       style="fill:none;stroke:#ff0000;stroke-width:0.38265306;stroke-linecap:round;stroke-linejoin:miter;stroke-miterlimit:4;stroke-opacity:1;stroke-dasharray:none;stroke-dashoffset:0;display:inline"
       id="path820-4-9-5-5-3"
       sodipodi:cx="73.928574"
       sodipodi:cy="56.647896"
       sodipodi:rx="2.6785715"
       sodipodi:ry="2.6785715"
       d="m 76.607145,56.647896 a 2.6785715,2.6785715 0 1 1 -5.357143,0 2.6785715,2.6785715 0 1 1 5.357143,0 z"
       transform="matrix(0.92598424,0,0,0.92598424,-0.255291,41.442286)" />
    <path
       sodipodi:type="arc"
       style="fill:none;stroke:#ff0000;stroke-width:0.38265306;stroke-linecap:round;stroke-linejoin:miter;stroke-miterlimit:4;stroke-opacity:1;stroke-dasharray:none;stroke-dashoffset:0;display:inline"
       id="path820-4-9-5-5-5"
       sodipodi:cx="73.928574"
       sodipodi:cy="56.647896"
       sodipodi:rx="2.6785715"
       sodipodi:ry="2.6785715"
       d="m 76.607145,56.647896 a 2.6785715,2.6785715 0 1 1 -5.357143,0 2.6785715,2.6785715 0 1 1 5.357143,0 z"
       transform="matrix(0.92598424,0,0,0.92598424,-0.255291,62.702402)" />
    <path
       sodipodi:type="arc"
       style="fill:none;stroke:#ff0000;stroke-width:0.38265306;stroke-linecap:round;stroke-linejoin:miter;stroke-miterlimit:4;stroke-opacity:1;stroke-dasharray:none;stroke-dashoffset:0;display:inline"
       id="path820-4-9-5-5-43"
       sodipodi:cx="73.928574"
       sodipodi:cy="56.647896"
       sodipodi:rx="2.6785715"
       sodipodi:ry="2.6785715"
       d="m 76.607145,56.647896 a 2.6785715,2.6785715 0 1 1 -5.357143,0 2.6785715,2.6785715 0 1 1 5.357143,0 z"
       transform="matrix(0.92598424,0,0,0.92598424,47.588462,41.442286)" />
    <path
       style="fill:none;stroke:#ff0000;stroke-width:0.35433072;stroke-miterlimit:4;stroke-opacity:1;stroke-dasharray:none"
       d="m 107.375,60.21875 0,4.6875 5.5625,2.5625 c 0.38383,0.291168 0.625,0.762318 0.625,1.28125 0,0.499877 -0.23377,0.926402 -0.59375,1.21875 l -5.59375,4.3125 0,4.15625 7.0625,3.28125 c 0.3283,0.292058 0.53125,0.713524 0.53125,1.1875 0,0.456031 -0.1931,0.865633 -0.5,1.15625 l -7.09375,5.5625 0,9.5625 0.625,2.625 6.09375,2.375 c 0.51955,0.26281 0.875,0.78421 0.875,1.40625 0,0.30271 -0.0723,0.57142 -0.21875,0.8125 l -4.21875,5.84375 1.09375,4.5 3.15625,4.03125 c 0.1227,0.22593 0.1875,0.47481 0.1875,0.75 0,0.36168 -0.10956,0.70123 -0.3125,0.96875 l -3.03125,3.3125 0,13.71875 2.75,1.3125 c 0.36411,0.29223 0.59375,0.74679 0.59375,1.25 0,0.49081 -0.21371,0.92626 -0.5625,1.21875 -0.92744,0.70776 -1.85449,1.41625 -2.78125,2.125 l 0,3.375 8.84375,0 0,-88.59375 -7.09375,0 -1.75,0 -4.25,0 z"
       id="path814-4-6"
       inkscape:connector-curvature="0" />
  </g>
  <g
     inkscape:groupmode="layer"
     id="layer8"
     inkscape:label="pores"
     style="display:none"
     sodipodi:insensitive="true">
    <path
       sodipodi:type="arc"
       style="fill:#ff0100;fill-opacity:1;stroke:none;display:inline"
       id="path126"
       sodipodi:cx="73.346458"
       sodipodi:cy="128.97635"
       sodipodi:rx="1.0629921"
       sodipodi:ry="1.0629921"
       d="m 74.409451,128.97635 a 1.0629921,1.0629921 0 1 1 -2.125985,0 1.0629921,1.0629921 0 1 1 2.125985,0 z"
       transform="matrix(0.33333334,0,0,0.33333334,47.833207,84.921247)" />
    <path
       sodipodi:type="arc"
       style="fill:#ff0100;fill-opacity:1;stroke:none;display:inline"
       id="path126-1"
       sodipodi:cx="73.346458"
       sodipodi:cy="128.97635"
       sodipodi:rx="1.0629921"
       sodipodi:ry="1.0629921"
       d="m 74.409451,128.97635 a 1.0629921,1.0629921 0 1 1 -2.125985,0 1.0629921,1.0629921 0 1 1 2.125985,0 z"
       transform="matrix(0.33333334,0,0,0.33333334,47.833207,62.244081)" />
    <path
       sodipodi:type="arc"
       style="fill:#ff0100;fill-opacity:1;stroke:none;display:inline"
       id="path126-8"
       sodipodi:cx="73.346458"
       sodipodi:cy="128.97635"
       sodipodi:rx="1.0629921"
       sodipodi:ry="1.0629921"
       d="m 74.409451,128.97635 a 1.0629921,1.0629921 0 1 1 -2.125985,0 1.0629921,1.0629921 0 1 1 2.125985,0 z"
       transform="matrix(0.33333334,0,0,0.33333334,47.833207,40.629908)" />
    <path
       sodipodi:type="arc"
       style="fill:#ff0100;fill-opacity:1;stroke:none;display:inline"
       id="path126-3"
       sodipodi:cx="73.346458"
       sodipodi:cy="128.97635"
       sodipodi:rx="1.0629921"
       sodipodi:ry="1.0629921"
       d="m 74.409451,128.97635 a 1.0629921,1.0629921 0 1 1 -2.125985,0 1.0629921,1.0629921 0 1 1 2.125985,0 z"
       transform="matrix(0.33333334,0,0,0.33333334,88.937007,99.094475)" />
    <path
       sodipodi:type="arc"
       style="fill:#ff0100;fill-opacity:1;stroke:none;display:inline"
       id="path126-33"
       sodipodi:cx="73.346458"
       sodipodi:cy="128.97635"
       sodipodi:rx="1.0629921"
       sodipodi:ry="1.0629921"
       d="m 74.409451,128.97635 a 1.0629921,1.0629921 0 1 1 -2.125985,0 1.0629921,1.0629921 0 1 1 2.125985,0 z"
       transform="matrix(0.33333334,0,0,0.33333334,88.93379,78.543294)" />
    <path
       sodipodi:type="arc"
       style="fill:#ff0100;fill-opacity:1;stroke:none;display:inline"
       id="path126-12"
       sodipodi:cx="73.346458"
       sodipodi:cy="128.97635"
       sodipodi:rx="1.0629921"
       sodipodi:ry="1.0629921"
       d="m 74.409451,128.97635 a 1.0629921,1.0629921 0 1 1 -2.125985,0 1.0629921,1.0629921 0 1 1 2.125985,0 z"
       transform="matrix(0.33333334,0,0,0.33333334,88.937007,62.598412)" />
    <path
       sodipodi:type="arc"
       style="fill:#ff0100;fill-opacity:1;stroke:none;display:inline"
       id="path126-4"
       sodipodi:cx="73.346458"
       sodipodi:cy="128.97635"
       sodipodi:rx="1.0629921"
       sodipodi:ry="1.0629921"
       d="m 74.409451,128.97635 a 1.0629921,1.0629921 0 1 1 -2.125985,0 1.0629921,1.0629921 0 1 1 2.125985,0 z"
       transform="matrix(0.33333334,0,0,0.33333334,88.937007,39.921247)" />
    <path
       sodipodi:type="arc"
       style="fill:#ff0100;fill-opacity:1;stroke:none;display:inline"
       id="path126-2"
       sodipodi:cx="73.346458"
       sodipodi:cy="128.97635"
       sodipodi:rx="1.0629921"
       sodipodi:ry="1.0629921"
       d="m 74.409451,128.97635 a 1.0629921,1.0629921 0 1 1 -2.125985,0 1.0629921,1.0629921 0 1 1 2.125985,0 z"
       transform="matrix(0.33333334,0,0,0.33333334,87.519684,25.748018)" />
    <path
       sodipodi:type="arc"
       style="fill:#ff0100;fill-opacity:1;stroke:none;display:inline"
       id="path126-6"
       sodipodi:cx="73.346458"
       sodipodi:cy="128.97635"
       sodipodi:rx="1.0629921"
       sodipodi:ry="1.0629921"
       d="m 74.409451,128.97635 a 1.0629921,1.0629921 0 1 1 -2.125985,0 1.0629921,1.0629921 0 1 1 2.125985,0 z"
       transform="matrix(0.33333334,0,0,0.33333334,55.275589,22.559042)" />
  </g>
</svg>
