999
Inkscape export via "Better DXF Output" (bob@bobcookdev.com)
  0
SECTION
  2
HEADER
  9
$ACADVER
  1
AC1014
  9
$HANDSEED
  5
FFFF
  0
ENDSEC
  0
SECTION
  2
TABLES
  0
TABLE
  2
VPORT
  5
8
330
0
100
AcDbSymbolTable
 70
     4
  0
VPORT
  5
2E
330
8
100
AcDbSymbolTableRecord
100
AcDbViewportTableRecord
  2
*ACTIVE
 70
     0
 10
0.0
 20
0.0
 11
1.0
 21
1.0
 12
4.25
 22
5.5
 13
0.0
 23
0.0
 14
10.0
 24
10.0
 15
10.0
 25
10.0
 16
0.0
 26
0.0
 36
1.0
 17
0.0
 27
0.0
 37
0.0
 40
11
 41
1.24
 42
50.0
 43
0.0
 44
0.0
 50
0.0
 51
0.0
 71
     0
 72
   100
 73
     1
 74
     3
 75
     0
 76
     0
 77
     0
 78
     0
  0
ENDTAB
  0
TABLE
  2
LTYPE
  5
5
330
0
100
AcDbSymbolTable
 70
     1
  0
LTYPE
  5
14
330
5
100
AcDbSymbolTableRecord
100
AcDbLinetypeTableRecord
  2
BYBLOCK
 70
     0
  3

 72
    65
 73
     0
 40
0.0
  0
LTYPE
  5
15
330
5
100
AcDbSymbolTableRecord
100
AcDbLinetypeTableRecord
  2
BYLAYER
 70
     0
  3

 72
    65
 73
     0
 40
0.0
  0
LTYPE
  5
16
330
5
100
AcDbSymbolTableRecord
100
AcDbLinetypeTableRecord
  2
CONTINUOUS
 70
     0
  3
Solid line
 72
    65
 73
     0
 40
0.0
  0
ENDTAB
  0
TABLE
  2
LAYER
  5
2
330
0
100
AcDbSymbolTable
 70
1
  0
LAYER
  5
10
330
2
100
AcDbSymbolTableRecord
100
AcDbLayerTableRecord
  2
0
 70
     0
 62
     7
  6
CONTINUOUS
  0
ENDTAB
  0
TABLE
  2
STYLE
  5
3
330
0
100
AcDbSymbolTable
 70
     1
  0
STYLE
  5
11
330
3
100
AcDbSymbolTableRecord
100
AcDbTextStyleTableRecord
  2
STANDARD
 70
     0
 40
0.0
 41
1.0
 50
0.0
 71
     0
 42
2.5
  3
txt
  4

  0
ENDTAB
  0
TABLE
  2
VIEW
  5
6
330
0
100
AcDbSymbolTable
 70
     0
  0
ENDTAB
  0
TABLE
  2
UCS
  5
7
330
0
100
AcDbSymbolTable
 70
     0
  0
ENDTAB
  0
TABLE
  2
APPID
  5
9
330
0
100
AcDbSymbolTable
 70
     2
  0
APPID
  5
12
330
9
100
AcDbSymbolTableRecord
100
AcDbRegAppTableRecord
  2
ACAD
 70
     0
  0
ENDTAB
  0
TABLE
  2
DIMSTYLE
  5
A
330
0
100
AcDbSymbolTable
 70
     1
  0
DIMSTYLE
105
27
330
A
100
AcDbSymbolTableRecord
100
AcDbDimStyleTableRecord
  2
ISO-25
 70
     0
  3

  4

  5

  6

  7

 40
1.0
 41
2.5
 42
0.625
 43
3.75
 44
1.25
 45
0.0
 46
0.0
 47
0.0
 48
0.0
140
2.5
141
2.5
142
0.0
143
0.03937007874016
144
1.0
145
0.0
146
1.0
147
0.625
 71
     0
 72
     0
 73
     0
 74
     0
 75
     0
 76
     0
 77
     1
 78
     8
170
     0
171
     3
172
     1
173
     0
174
     0
175
     0
176
     0
177
     0
178
     0
270
     2
271
     2
272
     2
273
     2
274
     3
340
11
275
     0
280
     0
281
     0
282
     0
283
     0
284
     8
285
     0
286
     0
287
     3
288
     0
  0
ENDTAB
  0
TABLE
  2
BLOCK_RECORD
  5
1
330
0
100
AcDbSymbolTable
 70
     1
  0
BLOCK_RECORD
  5
1F
330
1
100
AcDbSymbolTableRecord
100
AcDbBlockTableRecord
  2
*MODEL_SPACE
  0
BLOCK_RECORD
  5
1B
330
1
100
AcDbSymbolTableRecord
100
AcDbBlockTableRecord
  2
*PAPER_SPACE
  0
ENDTAB
  0
ENDSEC
  0
SECTION
  2
BLOCKS
  0
BLOCK
  5
20
330
1F
100
AcDbEntity
  8
0
100
AcDbBlockBegin
  2
*MODEL_SPACE
 70
     0
 10
0.0
 20
0.0
 30
0.0
  3
*MODEL_SPACE
  1

  0
ENDBLK
  5
21
330
1F
100
AcDbEntity
  8
0
100
AcDbBlockEnd
  0
BLOCK
  5
1C
330
1B
100
AcDbEntity
 67
     1
  8
0
100
AcDbBlockBegin
  2
*PAPER_SPACE
  1

  0
ENDBLK
  5
1D
330
1B
100
AcDbEntity
 67
     1
  8
0
100
AcDbBlockEnd
  0
ENDSEC
  0
SECTION
  2
ENTITIES
0
LINE
8
Layer 1
62
4
5
100
100
AcDbEntity
100
AcDbLine
10
101.087849
20
202.804391
30
0.0
11
98.450835
21
202.795557
31
0.0
0
LINE
8
Layer 1
62
4
5
101
100
AcDbEntity
100
AcDbLine
10
98.450835
20
202.795557
30
0.0
11
98.450835
21
177.792432
31
0.0
0
LINE
8
Layer 1
62
4
5
102
100
AcDbEntity
100
AcDbLine
10
98.450835
20
177.792432
30
0.0
11
102.543057
21
177.801266
31
0.0
0
LINE
8
Layer 1
62
4
5
103
100
AcDbEntity
100
AcDbLine
10
102.543057
20
177.801266
30
0.0
11
102.543057
21
183.128210
31
0.0
0
LINE
8
Layer 1
62
4
5
104
100
AcDbEntity
100
AcDbLine
10
102.543057
20
183.128210
30
0.0
11
102.287293
21
183.278141
31
0.0
0
LINE
8
Layer 1
62
4
5
105
100
AcDbEntity
100
AcDbLine
10
102.287293
20
183.278141
30
0.0
11
102.093265
21
183.428071
31
0.0
0
LINE
8
Layer 1
62
4
5
106
100
AcDbEntity
100
AcDbLine
10
102.093265
20
183.428071
30
0.0
11
102.075626
21
183.445710
31
0.0
0
LINE
8
Layer 1
62
4
5
107
100
AcDbEntity
100
AcDbLine
10
102.075626
20
183.445710
30
0.0
11
101.413694
21
184.096605
31
0.0
0
LINE
8
Layer 1
62
4
5
108
100
AcDbEntity
100
AcDbLine
10
101.413694
20
184.096605
30
0.0
11
101.087849
21
184.803905
31
0.0
0
LINE
8
Layer 1
62
4
5
109
100
AcDbEntity
100
AcDbLine
10
101.087849
20
184.803905
30
0.0
11
101.087849
21
186.373766
31
0.0
0
LINE
8
Layer 1
62
4
5
10a
100
AcDbEntity
100
AcDbLine
10
101.087849
20
186.373766
30
0.0
11
100.558725
21
186.703160
31
0.0
0
LINE
8
Layer 1
62
4
5
10b
100
AcDbEntity
100
AcDbLine
10
100.558725
20
186.703160
30
0.0
11
100.347015
21
187.299807
31
0.0
0
LINE
8
Layer 1
62
4
5
10c
100
AcDbEntity
100
AcDbLine
10
100.347015
20
187.299807
30
0.0
11
100.558754
21
187.892003
31
0.0
0
LINE
8
Layer 1
62
4
5
10d
100
AcDbEntity
100
AcDbLine
10
100.558754
20
187.892003
30
0.0
11
101.087849
21
188.217030
31
0.0
0
LINE
8
Layer 1
62
4
5
10e
100
AcDbEntity
100
AcDbLine
10
101.087849
20
188.217030
30
0.0
11
101.087849
21
190.801127
31
0.0
0
LINE
8
Layer 1
62
4
5
10f
100
AcDbEntity
100
AcDbLine
10
101.087849
20
190.801127
30
0.0
11
101.087849
21
192.273974
31
0.0
0
LINE
8
Layer 1
62
4
5
110
100
AcDbEntity
100
AcDbLine
10
101.087849
20
192.273974
30
0.0
11
100.483518
21
192.629597
31
0.0
0
LINE
8
Layer 1
62
4
5
111
100
AcDbEntity
100
AcDbLine
10
100.483518
20
192.629597
30
0.0
11
100.241182
21
193.297030
31
0.0
0
LINE
8
Layer 1
62
4
5
112
100
AcDbEntity
100
AcDbLine
10
100.241182
20
193.297030
30
0.0
11
100.483504
21
193.968892
31
0.0
0
LINE
8
Layer 1
62
4
5
113
100
AcDbEntity
100
AcDbLine
10
100.483504
20
193.968892
30
0.0
11
101.087849
21
194.328905
31
0.0
0
LINE
8
Layer 1
62
4
5
114
100
AcDbEntity
100
AcDbLine
10
101.087849
20
194.328905
30
0.0
11
101.087849
21
198.271196
31
0.0
0
LINE
8
Layer 1
62
4
5
115
100
AcDbEntity
100
AcDbLine
10
101.087849
20
198.271196
30
0.0
11
100.483504
21
198.631208
31
0.0
0
LINE
8
Layer 1
62
4
5
116
100
AcDbEntity
100
AcDbLine
10
100.483504
20
198.631208
30
0.0
11
100.241182
21
199.303071
31
0.0
0
LINE
8
Layer 1
62
4
5
117
100
AcDbEntity
100
AcDbLine
10
100.241182
20
199.303071
30
0.0
11
100.483518
21
199.970504
31
0.0
0
LINE
8
Layer 1
62
4
5
118
100
AcDbEntity
100
AcDbLine
10
100.483518
20
199.970504
30
0.0
11
101.087849
21
200.326127
31
0.0
0
LINE
8
Layer 1
62
4
5
119
100
AcDbEntity
100
AcDbLine
10
101.087849
20
200.326127
30
0.0
11
101.087849
21
202.804391
31
0.0
0
LINE
8
Layer 1
62
4
5
11a
100
AcDbEntity
100
AcDbLine
10
101.087849
20
202.804391
30
0.0
11
101.087849
21
202.804391
31
0.0
0
LINE
8
Layer 1
62
4
5
11b
100
AcDbEntity
100
AcDbLine
10
101.484724
20
202.804391
30
0.0
11
101.484724
21
200.326127
31
0.0
0
LINE
8
Layer 1
62
4
5
11c
100
AcDbEntity
100
AcDbLine
10
101.484724
20
200.326127
30
0.0
11
102.099446
21
199.972870
31
0.0
0
LINE
8
Layer 1
62
4
5
11d
100
AcDbEntity
100
AcDbLine
10
102.099446
20
199.972870
30
0.0
11
102.349029
21
199.303071
31
0.0
0
LINE
8
Layer 1
62
4
5
11e
100
AcDbEntity
100
AcDbLine
10
102.349029
20
199.303071
30
0.0
11
102.099474
21
198.628822
31
0.0
0
LINE
8
Layer 1
62
4
5
11f
100
AcDbEntity
100
AcDbLine
10
102.099474
20
198.628822
30
0.0
11
101.484724
21
198.271196
31
0.0
0
LINE
8
Layer 1
62
4
5
120
100
AcDbEntity
100
AcDbLine
10
101.484724
20
198.271196
30
0.0
11
101.484724
21
196.357377
31
0.0
0
LINE
8
Layer 1
62
4
5
121
100
AcDbEntity
100
AcDbLine
10
101.484724
20
196.357377
30
0.0
11
102.066807
21
196.427932
31
0.0
0
LINE
8
Layer 1
62
4
5
122
100
AcDbEntity
100
AcDbLine
10
102.066807
20
196.427932
30
0.0
11
102.304932
21
196.621960
31
0.0
0
LINE
8
Layer 1
62
4
5
123
100
AcDbEntity
100
AcDbLine
10
102.304932
20
196.621960
30
0.0
11
103.742501
21
197.503905
31
0.0
0
LINE
8
Layer 1
62
4
5
124
100
AcDbEntity
100
AcDbLine
10
103.742501
20
197.503905
30
0.0
11
103.742501
21
202.804391
31
0.0
0
LINE
8
Layer 1
62
4
5
125
100
AcDbEntity
100
AcDbLine
10
103.742501
20
202.804391
30
0.0
11
102.543057
21
202.804391
31
0.0
0
LINE
8
Layer 1
62
4
5
126
100
AcDbEntity
100
AcDbLine
10
102.543057
20
202.804391
30
0.0
11
102.049168
21
202.804391
31
0.0
0
LINE
8
Layer 1
62
4
5
127
100
AcDbEntity
100
AcDbLine
10
102.049168
20
202.804391
30
0.0
11
101.484724
21
202.804391
31
0.0
0
LINE
8
Layer 1
62
4
5
128
100
AcDbEntity
100
AcDbLine
10
101.484724
20
202.804391
30
0.0
11
101.484724
21
202.804391
31
0.0
0
LINE
8
Layer 1
62
4
5
129
100
AcDbEntity
100
AcDbLine
10
101.484724
20
195.969321
30
0.0
11
101.484724
21
194.328905
31
0.0
0
LINE
8
Layer 1
62
4
5
12a
100
AcDbEntity
100
AcDbLine
10
101.484724
20
194.328905
30
0.0
11
102.099474
21
193.971279
31
0.0
0
LINE
8
Layer 1
62
4
5
12b
100
AcDbEntity
100
AcDbLine
10
102.099474
20
193.971279
30
0.0
11
102.349029
21
193.297030
31
0.0
0
LINE
8
Layer 1
62
4
5
12c
100
AcDbEntity
100
AcDbLine
10
102.349029
20
193.297030
30
0.0
11
102.099446
21
192.627231
31
0.0
0
LINE
8
Layer 1
62
4
5
12d
100
AcDbEntity
100
AcDbLine
10
102.099446
20
192.627231
30
0.0
11
101.484724
21
192.273974
31
0.0
0
LINE
8
Layer 1
62
4
5
12e
100
AcDbEntity
100
AcDbLine
10
101.484724
20
192.273974
30
0.0
11
101.484724
21
190.801127
31
0.0
0
LINE
8
Layer 1
62
4
5
12f
100
AcDbEntity
100
AcDbLine
10
101.484724
20
190.801127
30
0.0
11
101.484724
21
190.307238
31
0.0
0
LINE
8
Layer 1
62
4
5
130
100
AcDbEntity
100
AcDbLine
10
101.484724
20
190.307238
30
0.0
11
102.031529
21
190.271960
31
0.0
0
LINE
8
Layer 1
62
4
5
131
100
AcDbEntity
100
AcDbLine
10
102.031529
20
190.271960
30
0.0
11
102.194483
21
190.469207
31
0.0
0
LINE
8
Layer 1
62
4
5
132
100
AcDbEntity
100
AcDbLine
10
102.194483
20
190.469207
30
0.0
11
102.446043
21
190.545363
31
0.0
0
LINE
8
Layer 1
62
4
5
133
100
AcDbEntity
100
AcDbLine
10
102.446043
20
190.545363
30
0.0
11
103.469099
21
190.677655
31
0.0
0
LINE
8
Layer 1
62
4
5
134
100
AcDbEntity
100
AcDbLine
10
103.469099
20
190.677655
30
0.0
11
103.742501
21
191.806543
31
0.0
0
LINE
8
Layer 1
62
4
5
135
100
AcDbEntity
100
AcDbLine
10
103.742501
20
191.806543
30
0.0
11
103.742501
21
195.025641
31
0.0
0
LINE
8
Layer 1
62
4
5
136
100
AcDbEntity
100
AcDbLine
10
103.742501
20
195.025641
30
0.0
11
102.260835
21
195.784113
31
0.0
0
LINE
8
Layer 1
62
4
5
137
100
AcDbEntity
100
AcDbLine
10
102.260835
20
195.784113
30
0.0
11
102.243196
21
195.792946
31
0.0
0
LINE
8
Layer 1
62
4
5
138
100
AcDbEntity
100
AcDbLine
10
102.243196
20
195.792946
30
0.0
11
102.093265
21
195.934058
31
0.0
0
LINE
8
Layer 1
62
4
5
139
100
AcDbEntity
100
AcDbLine
10
102.093265
20
195.934058
30
0.0
11
101.484724
21
195.969335
31
0.0
0
LINE
8
Layer 1
62
4
5
13a
100
AcDbEntity
100
AcDbLine
10
101.484724
20
195.969335
30
0.0
11
101.484724
21
195.969321
31
0.0
0
LINE
8
Layer 1
62
4
5
13b
100
AcDbEntity
100
AcDbLine
10
102.013890
20
189.980918
30
0.0
11
101.484724
21
189.919182
31
0.0
0
LINE
8
Layer 1
62
4
5
13c
100
AcDbEntity
100
AcDbLine
10
101.484724
20
189.919182
30
0.0
11
101.484724
21
188.225849
31
0.0
0
LINE
8
Layer 1
62
4
5
13d
100
AcDbEntity
100
AcDbLine
10
101.484724
20
188.225849
30
0.0
11
102.026297
21
187.901766
31
0.0
0
LINE
8
Layer 1
62
4
5
13e
100
AcDbEntity
100
AcDbLine
10
102.026297
20
187.901766
30
0.0
11
102.243196
21
187.299807
31
0.0
0
LINE
8
Layer 1
62
4
5
13f
100
AcDbEntity
100
AcDbLine
10
102.243196
20
187.299807
30
0.0
11
102.026297
21
186.693439
31
0.0
0
LINE
8
Layer 1
62
4
5
140
100
AcDbEntity
100
AcDbLine
10
102.026297
20
186.693439
30
0.0
11
101.484724
21
186.364946
31
0.0
0
LINE
8
Layer 1
62
4
5
141
100
AcDbEntity
100
AcDbLine
10
101.484724
20
186.364946
30
0.0
11
101.484724
21
184.803905
31
0.0
0
LINE
8
Layer 1
62
4
5
142
100
AcDbEntity
100
AcDbLine
10
101.484724
20
184.803905
30
0.0
11
101.591932
21
184.575991
31
0.0
0
LINE
8
Layer 1
62
4
5
143
100
AcDbEntity
100
AcDbLine
10
101.591932
20
184.575991
30
0.0
11
101.832916
21
184.408947
31
0.0
0
LINE
8
Layer 1
62
4
5
144
100
AcDbEntity
100
AcDbLine
10
101.832916
20
184.408947
30
0.0
11
102.543057
21
184.151266
31
0.0
0
LINE
8
Layer 1
62
4
5
145
100
AcDbEntity
100
AcDbLine
10
102.543057
20
184.151266
30
0.0
11
102.543057
21
186.850016
31
0.0
0
LINE
8
Layer 1
62
4
5
146
100
AcDbEntity
100
AcDbLine
10
102.543057
20
186.850016
30
0.0
11
102.939932
21
188.472793
31
0.0
0
LINE
8
Layer 1
62
4
5
147
100
AcDbEntity
100
AcDbLine
10
102.939932
20
188.472793
30
0.0
11
102.110904
21
189.804530
31
0.0
0
LINE
8
Layer 1
62
4
5
148
100
AcDbEntity
100
AcDbLine
10
102.110904
20
189.804530
30
0.0
11
102.022710
21
189.980918
31
0.0
0
LINE
8
Layer 1
62
4
5
149
100
AcDbEntity
100
AcDbLine
10
102.022710
20
189.980918
30
0.0
11
102.013876
21
189.980918
31
0.0
0
LINE
8
Layer 1
62
4
5
14a
100
AcDbEntity
100
AcDbLine
10
102.013876
20
189.980918
30
0.0
11
102.013890
21
189.980918
31
0.0
0
LINE
8
Layer 1
62
4
5
14b
100
AcDbEntity
100
AcDbLine
10
112.350279
20
202.804391
30
0.0
11
112.350279
21
201.481474
31
0.0
0
LINE
8
Layer 1
62
4
5
14c
100
AcDbEntity
100
AcDbLine
10
112.350279
20
201.481474
30
0.0
11
113.920140
21
200.758280
31
0.0
0
LINE
8
Layer 1
62
4
5
14d
100
AcDbEntity
100
AcDbLine
10
113.920140
20
200.758280
30
0.0
11
114.096529
21
200.396682
31
0.0
0
LINE
8
Layer 1
62
4
5
14e
100
AcDbEntity
100
AcDbLine
10
114.096529
20
200.396682
30
0.0
11
113.928960
21
200.052724
31
0.0
0
LINE
8
Layer 1
62
4
5
14f
100
AcDbEntity
100
AcDbLine
10
113.928960
20
200.052724
30
0.0
11
112.350279
21
198.835641
31
0.0
0
LINE
8
Layer 1
62
4
5
150
100
AcDbEntity
100
AcDbLine
10
112.350279
20
198.835641
30
0.0
11
112.350279
21
197.662655
31
0.0
0
LINE
8
Layer 1
62
4
5
151
100
AcDbEntity
100
AcDbLine
10
112.350279
20
197.662655
30
0.0
11
114.343474
21
196.736613
31
0.0
0
LINE
8
Layer 1
62
4
5
152
100
AcDbEntity
100
AcDbLine
10
114.343474
20
196.736613
30
0.0
11
114.493404
21
196.401474
31
0.0
0
LINE
8
Layer 1
62
4
5
153
100
AcDbEntity
100
AcDbLine
10
114.493404
20
196.401474
30
0.0
11
114.475765
21
196.286821
31
0.0
0
LINE
8
Layer 1
62
4
5
154
100
AcDbEntity
100
AcDbLine
10
114.475765
20
196.286821
30
0.0
11
114.978474
21
194.434738
31
0.0
0
LINE
8
Layer 1
62
4
5
155
100
AcDbEntity
100
AcDbLine
10
114.978474
20
194.434738
30
0.0
11
115.669437
21
194.048359
31
0.0
0
LINE
8
Layer 1
62
4
5
156
100
AcDbEntity
100
AcDbLine
10
115.669437
20
194.048359
30
0.0
11
115.948612
21
193.297030
31
0.0
0
LINE
8
Layer 1
62
4
5
157
100
AcDbEntity
100
AcDbLine
10
115.948612
20
193.297030
30
0.0
11
115.868389
21
192.879612
31
0.0
0
LINE
8
Layer 1
62
4
5
158
100
AcDbEntity
100
AcDbLine
10
115.868389
20
192.879612
30
0.0
11
115.648694
21
192.534024
31
0.0
0
LINE
8
Layer 1
62
4
5
159
100
AcDbEntity
100
AcDbLine
10
115.648694
20
192.534024
30
0.0
11
115.320990
21
192.287717
31
0.0
0
LINE
8
Layer 1
62
4
5
15a
100
AcDbEntity
100
AcDbLine
10
115.320990
20
192.287717
30
0.0
11
114.916737
21
192.168141
31
0.0
0
LINE
8
Layer 1
62
4
5
15b
100
AcDbEntity
100
AcDbLine
10
114.916737
20
192.168141
30
0.0
11
114.466946
21
190.148488
31
0.0
0
LINE
8
Layer 1
62
4
5
15c
100
AcDbEntity
100
AcDbLine
10
114.466946
20
190.148488
30
0.0
11
114.493390
21
189.998557
31
0.0
0
LINE
8
Layer 1
62
4
5
15d
100
AcDbEntity
100
AcDbLine
10
114.493390
20
189.998557
30
0.0
11
114.431654
21
189.769252
31
0.0
0
LINE
8
Layer 1
62
4
5
15e
100
AcDbEntity
100
AcDbLine
10
114.431654
20
189.769252
30
0.0
11
113.241029
21
188.120016
31
0.0
0
LINE
8
Layer 1
62
4
5
15f
100
AcDbEntity
100
AcDbLine
10
113.241029
20
188.120016
30
0.0
11
113.549709
21
186.850016
31
0.0
0
LINE
8
Layer 1
62
4
5
160
100
AcDbEntity
100
AcDbLine
10
113.549709
20
186.850016
30
0.0
11
114.440473
21
185.712307
31
0.0
0
LINE
8
Layer 1
62
4
5
161
100
AcDbEntity
100
AcDbLine
10
114.440473
20
185.712307
30
0.0
11
114.493390
21
185.500641
31
0.0
0
LINE
8
Layer 1
62
4
5
162
100
AcDbEntity
100
AcDbLine
10
114.493390
20
185.500641
30
0.0
11
114.405196
21
185.227238
31
0.0
0
LINE
8
Layer 1
62
4
5
163
100
AcDbEntity
100
AcDbLine
10
114.405196
20
185.227238
30
0.0
11
113.549709
21
184.292377
31
0.0
0
LINE
8
Layer 1
62
4
5
164
100
AcDbEntity
100
AcDbLine
10
113.549709
20
184.292377
30
0.0
11
113.549709
21
180.420641
31
0.0
0
LINE
8
Layer 1
62
4
5
165
100
AcDbEntity
100
AcDbLine
10
113.549709
20
180.420641
30
0.0
11
114.325821
21
180.050224
31
0.0
0
LINE
8
Layer 1
62
4
5
166
100
AcDbEntity
100
AcDbLine
10
114.325821
20
180.050224
30
0.0
11
114.493390
21
179.697446
31
0.0
0
LINE
8
Layer 1
62
4
5
167
100
AcDbEntity
100
AcDbLine
10
114.493390
20
179.697446
30
0.0
11
114.334640
21
179.353488
31
0.0
0
LINE
8
Layer 1
62
4
5
168
100
AcDbEntity
100
AcDbLine
10
114.334640
20
179.353488
30
0.0
11
113.549709
21
178.753766
31
0.0
0
LINE
8
Layer 1
62
4
5
169
100
AcDbEntity
100
AcDbLine
10
113.549709
20
178.753766
30
0.0
11
113.549709
21
177.801266
31
0.0
0
LINE
8
Layer 1
62
4
5
16a
100
AcDbEntity
100
AcDbLine
10
113.549709
20
177.801266
30
0.0
11
117.650751
21
177.792432
31
0.0
0
LINE
8
Layer 1
62
4
5
16b
100
AcDbEntity
100
AcDbLine
10
117.650751
20
177.792432
30
0.0
11
117.650751
21
202.795557
31
0.0
0
LINE
8
Layer 1
62
4
5
16c
100
AcDbEntity
100
AcDbLine
10
117.650751
20
202.795557
30
0.0
11
114.043598
21
202.804391
31
0.0
0
LINE
8
Layer 1
62
4
5
16d
100
AcDbEntity
100
AcDbLine
10
114.043598
20
202.804391
30
0.0
11
113.549709
21
202.804391
31
0.0
0
LINE
8
Layer 1
62
4
5
16e
100
AcDbEntity
100
AcDbLine
10
113.549709
20
202.804391
30
0.0
11
112.350265
21
202.804391
31
0.0
0
LINE
8
Layer 1
62
4
5
16f
100
AcDbEntity
100
AcDbLine
10
112.350265
20
202.804391
30
0.0
11
112.350279
21
202.804391
31
0.0
0
LINE
8
Layer 1
62
4
5
170
100
AcDbEntity
100
AcDbLine
10
114.158265
20
195.925224
30
0.0
11
112.350279
21
194.505293
31
0.0
0
LINE
8
Layer 1
62
4
5
171
100
AcDbEntity
100
AcDbLine
10
112.350279
20
194.505293
30
0.0
11
112.350279
21
191.806543
31
0.0
0
LINE
8
Layer 1
62
4
5
172
100
AcDbEntity
100
AcDbLine
10
112.350279
20
191.806543
30
0.0
11
112.526668
21
191.065710
31
0.0
0
LINE
8
Layer 1
62
4
5
173
100
AcDbEntity
100
AcDbLine
10
112.526668
20
191.065710
30
0.0
11
114.122987
21
190.439530
31
0.0
0
LINE
8
Layer 1
62
4
5
174
100
AcDbEntity
100
AcDbLine
10
114.122987
20
190.439530
30
0.0
11
114.511043
21
192.194599
31
0.0
0
LINE
8
Layer 1
62
4
5
175
100
AcDbEntity
100
AcDbLine
10
114.511043
20
192.194599
30
0.0
11
113.892880
21
192.592037
31
0.0
0
LINE
8
Layer 1
62
4
5
176
100
AcDbEntity
100
AcDbLine
10
113.892880
20
192.592037
30
0.0
11
113.646737
21
193.297030
31
0.0
0
LINE
8
Layer 1
62
4
5
177
100
AcDbEntity
100
AcDbLine
10
113.646737
20
193.297030
30
0.0
11
113.908835
21
194.029663
31
0.0
0
LINE
8
Layer 1
62
4
5
178
100
AcDbEntity
100
AcDbLine
10
113.908835
20
194.029663
30
0.0
11
114.563960
21
194.425918
31
0.0
0
LINE
8
Layer 1
62
4
5
179
100
AcDbEntity
100
AcDbLine
10
114.563960
20
194.425918
30
0.0
11
114.158265
21
195.925224
31
0.0
0
LINE
8
Layer 1
62
4
5
17a
100
AcDbEntity
100
AcDbLine
10
114.158265
20
195.925224
30
0.0
11
114.158265
21
195.925224
31
0.0
  0
ENDSEC
  0
SECTION
  2
OBJECTS
  0
DICTIONARY
  5
C
330
0
100
AcDbDictionary
  3
ACAD_GROUP
350
D
  3
ACAD_MLINESTYLE
350
17
  0
DICTIONARY
  5
D
330
C
100
AcDbDictionary
  0
DICTIONARY
  5
1A
330
C
100
AcDbDictionary
  0
DICTIONARY
  5
17
330
C
100
AcDbDictionary
  3
STANDARD
350
18
  0
DICTIONARY
  5
19
330
C
100
AcDbDictionary
  0
ENDSEC
  0
EOF
