999
Inkscape export via "Better DXF Output" (bob@bobcookdev.com)
  0
SECTION
  2
HEADER
  9
$ACADVER
  1
AC1014
  9
$HANDSEED
  5
FFFF
  0
ENDSEC
  0
SECTION
  2
TABLES
  0
TABLE
  2
VPORT
  5
8
330
0
100
AcDbSymbolTable
 70
     4
  0
VPORT
  5
2E
330
8
100
AcDbSymbolTableRecord
100
AcDbViewportTableRecord
  2
*ACTIVE
 70
     0
 10
0.0
 20
0.0
 11
1.0
 21
1.0
 12
4.25
 22
5.5
 13
0.0
 23
0.0
 14
10.0
 24
10.0
 15
10.0
 25
10.0
 16
0.0
 26
0.0
 36
1.0
 17
0.0
 27
0.0
 37
0.0
 40
11
 41
1.24
 42
50.0
 43
0.0
 44
0.0
 50
0.0
 51
0.0
 71
     0
 72
   100
 73
     1
 74
     3
 75
     0
 76
     0
 77
     0
 78
     0
  0
ENDTAB
  0
TABLE
  2
LTYPE
  5
5
330
0
100
AcDbSymbolTable
 70
     1
  0
LTYPE
  5
14
330
5
100
AcDbSymbolTableRecord
100
AcDbLinetypeTableRecord
  2
BYBLOCK
 70
     0
  3

 72
    65
 73
     0
 40
0.0
  0
LTYPE
  5
15
330
5
100
AcDbSymbolTableRecord
100
AcDbLinetypeTableRecord
  2
BYLAYER
 70
     0
  3

 72
    65
 73
     0
 40
0.0
  0
LTYPE
  5
16
330
5
100
AcDbSymbolTableRecord
100
AcDbLinetypeTableRecord
  2
CONTINUOUS
 70
     0
  3
Solid line
 72
    65
 73
     0
 40
0.0
  0
ENDTAB
  0
TABLE
  2
LAYER
  5
2
330
0
100
AcDbSymbolTable
 70
1
  0
LAYER
  5
10
330
2
100
AcDbSymbolTableRecord
100
AcDbLayerTableRecord
  2
0
 70
     0
 62
     7
  6
CONTINUOUS
  0
ENDTAB
  0
TABLE
  2
STYLE
  5
3
330
0
100
AcDbSymbolTable
 70
     1
  0
STYLE
  5
11
330
3
100
AcDbSymbolTableRecord
100
AcDbTextStyleTableRecord
  2
STANDARD
 70
     0
 40
0.0
 41
1.0
 50
0.0
 71
     0
 42
2.5
  3
txt
  4

  0
ENDTAB
  0
TABLE
  2
VIEW
  5
6
330
0
100
AcDbSymbolTable
 70
     0
  0
ENDTAB
  0
TABLE
  2
UCS
  5
7
330
0
100
AcDbSymbolTable
 70
     0
  0
ENDTAB
  0
TABLE
  2
APPID
  5
9
330
0
100
AcDbSymbolTable
 70
     2
  0
APPID
  5
12
330
9
100
AcDbSymbolTableRecord
100
AcDbRegAppTableRecord
  2
ACAD
 70
     0
  0
ENDTAB
  0
TABLE
  2
DIMSTYLE
  5
A
330
0
100
AcDbSymbolTable
 70
     1
  0
DIMSTYLE
105
27
330
A
100
AcDbSymbolTableRecord
100
AcDbDimStyleTableRecord
  2
ISO-25
 70
     0
  3

  4

  5

  6

  7

 40
1.0
 41
2.5
 42
0.625
 43
3.75
 44
1.25
 45
0.0
 46
0.0
 47
0.0
 48
0.0
140
2.5
141
2.5
142
0.0
143
0.03937007874016
144
1.0
145
0.0
146
1.0
147
0.625
 71
     0
 72
     0
 73
     0
 74
     0
 75
     0
 76
     0
 77
     1
 78
     8
170
     0
171
     3
172
     1
173
     0
174
     0
175
     0
176
     0
177
     0
178
     0
270
     2
271
     2
272
     2
273
     2
274
     3
340
11
275
     0
280
     0
281
     0
282
     0
283
     0
284
     8
285
     0
286
     0
287
     3
288
     0
  0
ENDTAB
  0
TABLE
  2
BLOCK_RECORD
  5
1
330
0
100
AcDbSymbolTable
 70
     1
  0
BLOCK_RECORD
  5
1F
330
1
100
AcDbSymbolTableRecord
100
AcDbBlockTableRecord
  2
*MODEL_SPACE
  0
BLOCK_RECORD
  5
1B
330
1
100
AcDbSymbolTableRecord
100
AcDbBlockTableRecord
  2
*PAPER_SPACE
  0
ENDTAB
  0
ENDSEC
  0
SECTION
  2
BLOCKS
  0
BLOCK
  5
20
330
1F
100
AcDbEntity
  8
0
100
AcDbBlockBegin
  2
*MODEL_SPACE
 70
     0
 10
0.0
 20
0.0
 30
0.0
  3
*MODEL_SPACE
  1

  0
ENDBLK
  5
21
330
1F
100
AcDbEntity
  8
0
100
AcDbBlockEnd
  0
BLOCK
  5
1C
330
1B
100
AcDbEntity
 67
     1
  8
0
100
AcDbBlockBegin
  2
*PAPER_SPACE
  1

  0
ENDBLK
  5
1D
330
1B
100
AcDbEntity
 67
     1
  8
0
100
AcDbBlockEnd
  0
ENDSEC
  0
SECTION
  2
ENTITIES
0
LINE
8
Layer 1
62
4
5
100
100
AcDbEntity
100
AcDbLine
10
34.378818
20
265.699628
30
0.0
11
37.015832
21
265.690794
31
0.0
0
LINE
8
Layer 1
62
4
5
101
100
AcDbEntity
100
AcDbLine
10
37.015832
20
265.690794
30
0.0
11
37.015832
21
240.687669
31
0.0
0
LINE
8
Layer 1
62
4
5
102
100
AcDbEntity
100
AcDbLine
10
37.015832
20
240.687669
30
0.0
11
32.923610
21
240.696503
31
0.0
0
LINE
8
Layer 1
62
4
5
103
100
AcDbEntity
100
AcDbLine
10
32.923610
20
240.696503
30
0.0
11
32.923610
21
246.023447
31
0.0
0
LINE
8
Layer 1
62
4
5
104
100
AcDbEntity
100
AcDbLine
10
32.923610
20
246.023447
30
0.0
11
33.179374
21
246.173378
31
0.0
0
LINE
8
Layer 1
62
4
5
105
100
AcDbEntity
100
AcDbLine
10
33.179374
20
246.173378
30
0.0
11
33.373401
21
246.323309
31
0.0
0
LINE
8
Layer 1
62
4
5
106
100
AcDbEntity
100
AcDbLine
10
33.373401
20
246.323309
30
0.0
11
33.391040
21
246.340947
31
0.0
0
LINE
8
Layer 1
62
4
5
107
100
AcDbEntity
100
AcDbLine
10
33.391040
20
246.340947
30
0.0
11
34.052974
21
246.991842
31
0.0
0
LINE
8
Layer 1
62
4
5
108
100
AcDbEntity
100
AcDbLine
10
34.052974
20
246.991842
30
0.0
11
34.378818
21
247.699142
31
0.0
0
LINE
8
Layer 1
62
4
5
109
100
AcDbEntity
100
AcDbLine
10
34.378818
20
247.699142
30
0.0
11
34.378818
21
249.269003
31
0.0
0
LINE
8
Layer 1
62
4
5
10a
100
AcDbEntity
100
AcDbLine
10
34.378818
20
249.269003
30
0.0
11
34.907941
21
249.598398
31
0.0
0
LINE
8
Layer 1
62
4
5
10b
100
AcDbEntity
100
AcDbLine
10
34.907941
20
249.598398
30
0.0
11
35.119651
21
250.195045
31
0.0
0
LINE
8
Layer 1
62
4
5
10c
100
AcDbEntity
100
AcDbLine
10
35.119651
20
250.195045
30
0.0
11
34.907913
21
250.787241
31
0.0
0
LINE
8
Layer 1
62
4
5
10d
100
AcDbEntity
100
AcDbLine
10
34.907913
20
250.787241
30
0.0
11
34.378818
21
251.112267
31
0.0
0
LINE
8
Layer 1
62
4
5
10e
100
AcDbEntity
100
AcDbLine
10
34.378818
20
251.112267
30
0.0
11
34.378818
21
253.696364
31
0.0
0
LINE
8
Layer 1
62
4
5
10f
100
AcDbEntity
100
AcDbLine
10
34.378818
20
253.696364
30
0.0
11
34.378818
21
255.169211
31
0.0
0
LINE
8
Layer 1
62
4
5
110
100
AcDbEntity
100
AcDbLine
10
34.378818
20
255.169211
30
0.0
11
34.983150
21
255.524834
31
0.0
0
LINE
8
Layer 1
62
4
5
111
100
AcDbEntity
100
AcDbLine
10
34.983150
20
255.524834
30
0.0
11
35.225485
21
256.192267
31
0.0
0
LINE
8
Layer 1
62
4
5
112
100
AcDbEntity
100
AcDbLine
10
35.225485
20
256.192267
30
0.0
11
34.983164
21
256.864132
31
0.0
0
LINE
8
Layer 1
62
4
5
113
100
AcDbEntity
100
AcDbLine
10
34.983164
20
256.864132
30
0.0
11
34.378818
21
257.224142
31
0.0
0
LINE
8
Layer 1
62
4
5
114
100
AcDbEntity
100
AcDbLine
10
34.378818
20
257.224142
30
0.0
11
34.378818
21
261.166434
31
0.0
0
LINE
8
Layer 1
62
4
5
115
100
AcDbEntity
100
AcDbLine
10
34.378818
20
261.166434
30
0.0
11
34.983164
21
261.526446
31
0.0
0
LINE
8
Layer 1
62
4
5
116
100
AcDbEntity
100
AcDbLine
10
34.983164
20
261.526446
30
0.0
11
35.225485
21
262.198309
31
0.0
0
LINE
8
Layer 1
62
4
5
117
100
AcDbEntity
100
AcDbLine
10
35.225485
20
262.198309
30
0.0
11
34.983150
21
262.865744
31
0.0
0
LINE
8
Layer 1
62
4
5
118
100
AcDbEntity
100
AcDbLine
10
34.983150
20
262.865744
30
0.0
11
34.378818
21
263.221364
31
0.0
0
LINE
8
Layer 1
62
4
5
119
100
AcDbEntity
100
AcDbLine
10
34.378818
20
263.221364
30
0.0
11
34.378818
21
265.699628
31
0.0
0
LINE
8
Layer 1
62
4
5
11a
100
AcDbEntity
100
AcDbLine
10
34.378818
20
265.699628
30
0.0
11
34.378818
21
265.699628
31
0.0
0
LINE
8
Layer 1
62
4
5
11b
100
AcDbEntity
100
AcDbLine
10
33.981943
20
265.699628
30
0.0
11
33.981943
21
263.221364
31
0.0
0
LINE
8
Layer 1
62
4
5
11c
100
AcDbEntity
100
AcDbLine
10
33.981943
20
263.221364
30
0.0
11
33.367220
21
262.868108
31
0.0
0
LINE
8
Layer 1
62
4
5
11d
100
AcDbEntity
100
AcDbLine
10
33.367220
20
262.868108
30
0.0
11
33.117638
21
262.198309
31
0.0
0
LINE
8
Layer 1
62
4
5
11e
100
AcDbEntity
100
AcDbLine
10
33.117638
20
262.198309
30
0.0
11
33.367193
21
261.524060
31
0.0
0
LINE
8
Layer 1
62
4
5
11f
100
AcDbEntity
100
AcDbLine
10
33.367193
20
261.524060
30
0.0
11
33.981943
21
261.166434
31
0.0
0
LINE
8
Layer 1
62
4
5
120
100
AcDbEntity
100
AcDbLine
10
33.981943
20
261.166434
30
0.0
11
33.981943
21
259.252614
31
0.0
0
LINE
8
Layer 1
62
4
5
121
100
AcDbEntity
100
AcDbLine
10
33.981943
20
259.252614
30
0.0
11
33.399860
21
259.323170
31
0.0
0
LINE
8
Layer 1
62
4
5
122
100
AcDbEntity
100
AcDbLine
10
33.399860
20
259.323170
30
0.0
11
33.161735
21
259.517197
31
0.0
0
LINE
8
Layer 1
62
4
5
123
100
AcDbEntity
100
AcDbLine
10
33.161735
20
259.517197
30
0.0
11
31.724165
21
260.399142
31
0.0
0
LINE
8
Layer 1
62
4
5
124
100
AcDbEntity
100
AcDbLine
10
31.724165
20
260.399142
30
0.0
11
31.724165
21
265.699628
31
0.0
0
LINE
8
Layer 1
62
4
5
125
100
AcDbEntity
100
AcDbLine
10
31.724165
20
265.699628
30
0.0
11
32.923610
21
265.699628
31
0.0
0
LINE
8
Layer 1
62
4
5
126
100
AcDbEntity
100
AcDbLine
10
32.923610
20
265.699628
30
0.0
11
33.417499
21
265.699628
31
0.0
0
LINE
8
Layer 1
62
4
5
127
100
AcDbEntity
100
AcDbLine
10
33.417499
20
265.699628
30
0.0
11
33.981943
21
265.699628
31
0.0
0
LINE
8
Layer 1
62
4
5
128
100
AcDbEntity
100
AcDbLine
10
33.981943
20
265.699628
30
0.0
11
33.981943
21
265.699628
31
0.0
0
LINE
8
Layer 1
62
4
5
129
100
AcDbEntity
100
AcDbLine
10
33.981943
20
258.864559
30
0.0
11
33.981943
21
257.224142
31
0.0
0
LINE
8
Layer 1
62
4
5
12a
100
AcDbEntity
100
AcDbLine
10
33.981943
20
257.224142
30
0.0
11
33.367193
21
256.866517
31
0.0
0
LINE
8
Layer 1
62
4
5
12b
100
AcDbEntity
100
AcDbLine
10
33.367193
20
256.866517
30
0.0
11
33.117638
21
256.192267
31
0.0
0
LINE
8
Layer 1
62
4
5
12c
100
AcDbEntity
100
AcDbLine
10
33.117638
20
256.192267
30
0.0
11
33.367220
21
255.522470
31
0.0
0
LINE
8
Layer 1
62
4
5
12d
100
AcDbEntity
100
AcDbLine
10
33.367220
20
255.522470
30
0.0
11
33.981943
21
255.169211
31
0.0
0
LINE
8
Layer 1
62
4
5
12e
100
AcDbEntity
100
AcDbLine
10
33.981943
20
255.169211
30
0.0
11
33.981943
21
253.696364
31
0.0
0
LINE
8
Layer 1
62
4
5
12f
100
AcDbEntity
100
AcDbLine
10
33.981943
20
253.696364
30
0.0
11
33.981943
21
253.202475
31
0.0
0
LINE
8
Layer 1
62
4
5
130
100
AcDbEntity
100
AcDbLine
10
33.981943
20
253.202475
30
0.0
11
33.435138
21
253.167197
31
0.0
0
LINE
8
Layer 1
62
4
5
131
100
AcDbEntity
100
AcDbLine
10
33.435138
20
253.167197
30
0.0
11
33.272184
21
253.364444
31
0.0
0
LINE
8
Layer 1
62
4
5
132
100
AcDbEntity
100
AcDbLine
10
33.272184
20
253.364444
30
0.0
11
33.020624
21
253.440600
31
0.0
0
LINE
8
Layer 1
62
4
5
133
100
AcDbEntity
100
AcDbLine
10
33.020624
20
253.440600
30
0.0
11
31.997568
21
253.572892
31
0.0
0
LINE
8
Layer 1
62
4
5
134
100
AcDbEntity
100
AcDbLine
10
31.997568
20
253.572892
30
0.0
11
31.724165
21
254.701781
31
0.0
0
LINE
8
Layer 1
62
4
5
135
100
AcDbEntity
100
AcDbLine
10
31.724165
20
254.701781
30
0.0
11
31.724165
21
257.920878
31
0.0
0
LINE
8
Layer 1
62
4
5
136
100
AcDbEntity
100
AcDbLine
10
31.724165
20
257.920878
30
0.0
11
33.205832
21
258.679350
31
0.0
0
LINE
8
Layer 1
62
4
5
137
100
AcDbEntity
100
AcDbLine
10
33.205832
20
258.679350
30
0.0
11
33.223471
21
258.688184
31
0.0
0
LINE
8
Layer 1
62
4
5
138
100
AcDbEntity
100
AcDbLine
10
33.223471
20
258.688184
30
0.0
11
33.373401
21
258.829295
31
0.0
0
LINE
8
Layer 1
62
4
5
139
100
AcDbEntity
100
AcDbLine
10
33.373401
20
258.829295
30
0.0
11
33.981943
21
258.864573
31
0.0
0
LINE
8
Layer 1
62
4
5
13a
100
AcDbEntity
100
AcDbLine
10
33.981943
20
258.864573
30
0.0
11
33.981943
21
258.864559
31
0.0
0
LINE
8
Layer 1
62
4
5
13b
100
AcDbEntity
100
AcDbLine
10
33.452776
20
252.876156
30
0.0
11
33.981943
21
252.814420
31
0.0
0
LINE
8
Layer 1
62
4
5
13c
100
AcDbEntity
100
AcDbLine
10
33.981943
20
252.814420
30
0.0
11
33.981943
21
251.121086
31
0.0
0
LINE
8
Layer 1
62
4
5
13d
100
AcDbEntity
100
AcDbLine
10
33.981943
20
251.121086
30
0.0
11
33.440370
21
250.797003
31
0.0
0
LINE
8
Layer 1
62
4
5
13e
100
AcDbEntity
100
AcDbLine
10
33.440370
20
250.797003
30
0.0
11
33.223471
21
250.195045
31
0.0
0
LINE
8
Layer 1
62
4
5
13f
100
AcDbEntity
100
AcDbLine
10
33.223471
20
250.195045
30
0.0
11
33.440370
21
249.588676
31
0.0
0
LINE
8
Layer 1
62
4
5
140
100
AcDbEntity
100
AcDbLine
10
33.440370
20
249.588676
30
0.0
11
33.981943
21
249.260184
31
0.0
0
LINE
8
Layer 1
62
4
5
141
100
AcDbEntity
100
AcDbLine
10
33.981943
20
249.260184
30
0.0
11
33.981943
21
247.699142
31
0.0
0
LINE
8
Layer 1
62
4
5
142
100
AcDbEntity
100
AcDbLine
10
33.981943
20
247.699142
30
0.0
11
33.874735
21
247.471228
31
0.0
0
LINE
8
Layer 1
62
4
5
143
100
AcDbEntity
100
AcDbLine
10
33.874735
20
247.471228
30
0.0
11
33.633750
21
247.304184
31
0.0
0
LINE
8
Layer 1
62
4
5
144
100
AcDbEntity
100
AcDbLine
10
33.633750
20
247.304184
30
0.0
11
32.923610
21
247.046503
31
0.0
0
LINE
8
Layer 1
62
4
5
145
100
AcDbEntity
100
AcDbLine
10
32.923610
20
247.046503
30
0.0
11
32.923610
21
249.745253
31
0.0
0
LINE
8
Layer 1
62
4
5
146
100
AcDbEntity
100
AcDbLine
10
32.923610
20
249.745253
30
0.0
11
32.526735
21
251.368031
31
0.0
0
LINE
8
Layer 1
62
4
5
147
100
AcDbEntity
100
AcDbLine
10
32.526735
20
251.368031
30
0.0
11
33.355763
21
252.699767
31
0.0
0
LINE
8
Layer 1
62
4
5
148
100
AcDbEntity
100
AcDbLine
10
33.355763
20
252.699767
30
0.0
11
33.443957
21
252.876156
31
0.0
0
LINE
8
Layer 1
62
4
5
149
100
AcDbEntity
100
AcDbLine
10
33.443957
20
252.876156
30
0.0
11
33.452791
21
252.876156
31
0.0
0
LINE
8
Layer 1
62
4
5
14a
100
AcDbEntity
100
AcDbLine
10
33.452791
20
252.876156
30
0.0
11
33.452776
21
252.876156
31
0.0
0
LINE
8
Layer 1
62
4
5
14b
100
AcDbEntity
100
AcDbLine
10
23.116388
20
265.699628
30
0.0
11
23.116388
21
264.376711
31
0.0
0
LINE
8
Layer 1
62
4
5
14c
100
AcDbEntity
100
AcDbLine
10
23.116388
20
264.376711
30
0.0
11
21.546526
21
263.653517
31
0.0
0
LINE
8
Layer 1
62
4
5
14d
100
AcDbEntity
100
AcDbLine
10
21.546526
20
263.653517
30
0.0
11
21.370138
21
263.291920
31
0.0
0
LINE
8
Layer 1
62
4
5
14e
100
AcDbEntity
100
AcDbLine
10
21.370138
20
263.291920
30
0.0
11
21.537707
21
262.947961
31
0.0
0
LINE
8
Layer 1
62
4
5
14f
100
AcDbEntity
100
AcDbLine
10
21.537707
20
262.947961
30
0.0
11
23.116388
21
261.730878
31
0.0
0
LINE
8
Layer 1
62
4
5
150
100
AcDbEntity
100
AcDbLine
10
23.116388
20
261.730878
30
0.0
11
23.116388
21
260.557892
31
0.0
0
LINE
8
Layer 1
62
4
5
151
100
AcDbEntity
100
AcDbLine
10
23.116388
20
260.557892
30
0.0
11
21.123193
21
259.631850
31
0.0
0
LINE
8
Layer 1
62
4
5
152
100
AcDbEntity
100
AcDbLine
10
21.123193
20
259.631850
30
0.0
11
20.973263
21
259.296711
31
0.0
0
LINE
8
Layer 1
62
4
5
153
100
AcDbEntity
100
AcDbLine
10
20.973263
20
259.296711
30
0.0
11
20.990901
21
259.182059
31
0.0
0
LINE
8
Layer 1
62
4
5
154
100
AcDbEntity
100
AcDbLine
10
20.990901
20
259.182059
30
0.0
11
20.488193
21
257.329975
31
0.0
0
LINE
8
Layer 1
62
4
5
155
100
AcDbEntity
100
AcDbLine
10
20.488193
20
257.329975
30
0.0
11
19.797229
21
256.943598
31
0.0
0
LINE
8
Layer 1
62
4
5
156
100
AcDbEntity
100
AcDbLine
10
19.797229
20
256.943598
30
0.0
11
19.518054
21
256.192267
31
0.0
0
LINE
8
Layer 1
62
4
5
157
100
AcDbEntity
100
AcDbLine
10
19.518054
20
256.192267
30
0.0
11
19.598277
21
255.774849
31
0.0
0
LINE
8
Layer 1
62
4
5
158
100
AcDbEntity
100
AcDbLine
10
19.598277
20
255.774849
30
0.0
11
19.817972
21
255.429262
31
0.0
0
LINE
8
Layer 1
62
4
5
159
100
AcDbEntity
100
AcDbLine
10
19.817972
20
255.429262
30
0.0
11
20.145677
21
255.182955
31
0.0
0
LINE
8
Layer 1
62
4
5
15a
100
AcDbEntity
100
AcDbLine
10
20.145677
20
255.182955
30
0.0
11
20.549929
21
255.063378
31
0.0
0
LINE
8
Layer 1
62
4
5
15b
100
AcDbEntity
100
AcDbLine
10
20.549929
20
255.063378
30
0.0
11
20.999721
21
253.043725
31
0.0
0
LINE
8
Layer 1
62
4
5
15c
100
AcDbEntity
100
AcDbLine
10
20.999721
20
253.043725
30
0.0
11
20.973277
21
252.893795
31
0.0
0
LINE
8
Layer 1
62
4
5
15d
100
AcDbEntity
100
AcDbLine
10
20.973277
20
252.893795
30
0.0
11
21.035013
21
252.664489
31
0.0
0
LINE
8
Layer 1
62
4
5
15e
100
AcDbEntity
100
AcDbLine
10
21.035013
20
252.664489
30
0.0
11
22.225638
21
251.015253
31
0.0
0
LINE
8
Layer 1
62
4
5
15f
100
AcDbEntity
100
AcDbLine
10
22.225638
20
251.015253
30
0.0
11
21.916957
21
249.745253
31
0.0
0
LINE
8
Layer 1
62
4
5
160
100
AcDbEntity
100
AcDbLine
10
21.916957
20
249.745253
30
0.0
11
21.026193
21
248.607545
31
0.0
0
LINE
8
Layer 1
62
4
5
161
100
AcDbEntity
100
AcDbLine
10
21.026193
20
248.607545
30
0.0
11
20.973277
21
248.395878
31
0.0
0
LINE
8
Layer 1
62
4
5
162
100
AcDbEntity
100
AcDbLine
10
20.973277
20
248.395878
30
0.0
11
21.061471
21
248.122475
31
0.0
0
LINE
8
Layer 1
62
4
5
163
100
AcDbEntity
100
AcDbLine
10
21.061471
20
248.122475
30
0.0
11
21.916957
21
247.187614
31
0.0
0
LINE
8
Layer 1
62
4
5
164
100
AcDbEntity
100
AcDbLine
10
21.916957
20
247.187614
30
0.0
11
21.916957
21
243.315878
31
0.0
0
LINE
8
Layer 1
62
4
5
165
100
AcDbEntity
100
AcDbLine
10
21.916957
20
243.315878
30
0.0
11
21.140846
21
242.945461
31
0.0
0
LINE
8
Layer 1
62
4
5
166
100
AcDbEntity
100
AcDbLine
10
21.140846
20
242.945461
30
0.0
11
20.973277
21
242.592684
31
0.0
0
LINE
8
Layer 1
62
4
5
167
100
AcDbEntity
100
AcDbLine
10
20.973277
20
242.592684
30
0.0
11
21.132027
21
242.248725
31
0.0
0
LINE
8
Layer 1
62
4
5
168
100
AcDbEntity
100
AcDbLine
10
21.132027
20
242.248725
30
0.0
11
21.916957
21
241.649003
31
0.0
0
LINE
8
Layer 1
62
4
5
169
100
AcDbEntity
100
AcDbLine
10
21.916957
20
241.649003
30
0.0
11
21.916957
21
240.696503
31
0.0
0
LINE
8
Layer 1
62
4
5
16a
100
AcDbEntity
100
AcDbLine
10
21.916957
20
240.696503
30
0.0
11
17.815916
21
240.687669
31
0.0
0
LINE
8
Layer 1
62
4
5
16b
100
AcDbEntity
100
AcDbLine
10
17.815916
20
240.687669
30
0.0
11
17.815916
21
265.690794
31
0.0
0
LINE
8
Layer 1
62
4
5
16c
100
AcDbEntity
100
AcDbLine
10
17.815916
20
265.690794
30
0.0
11
21.423068
21
265.699628
31
0.0
0
LINE
8
Layer 1
62
4
5
16d
100
AcDbEntity
100
AcDbLine
10
21.423068
20
265.699628
30
0.0
11
21.916957
21
265.699628
31
0.0
0
LINE
8
Layer 1
62
4
5
16e
100
AcDbEntity
100
AcDbLine
10
21.916957
20
265.699628
30
0.0
11
23.116402
21
265.699628
31
0.0
0
LINE
8
Layer 1
62
4
5
16f
100
AcDbEntity
100
AcDbLine
10
23.116402
20
265.699628
30
0.0
11
23.116388
21
265.699628
31
0.0
0
LINE
8
Layer 1
62
4
5
170
100
AcDbEntity
100
AcDbLine
10
21.308401
20
258.820461
30
0.0
11
23.116388
21
257.400531
31
0.0
0
LINE
8
Layer 1
62
4
5
171
100
AcDbEntity
100
AcDbLine
10
23.116388
20
257.400531
30
0.0
11
23.116388
21
254.701781
31
0.0
0
LINE
8
Layer 1
62
4
5
172
100
AcDbEntity
100
AcDbLine
10
23.116388
20
254.701781
30
0.0
11
22.939999
21
253.960947
31
0.0
0
LINE
8
Layer 1
62
4
5
173
100
AcDbEntity
100
AcDbLine
10
22.939999
20
253.960947
30
0.0
11
21.343679
21
253.334767
31
0.0
0
LINE
8
Layer 1
62
4
5
174
100
AcDbEntity
100
AcDbLine
10
21.343679
20
253.334767
30
0.0
11
20.955624
21
255.089836
31
0.0
0
LINE
8
Layer 1
62
4
5
175
100
AcDbEntity
100
AcDbLine
10
20.955624
20
255.089836
30
0.0
11
21.573787
21
255.487276
31
0.0
0
LINE
8
Layer 1
62
4
5
176
100
AcDbEntity
100
AcDbLine
10
21.573787
20
255.487276
30
0.0
11
21.819929
21
256.192267
31
0.0
0
LINE
8
Layer 1
62
4
5
177
100
AcDbEntity
100
AcDbLine
10
21.819929
20
256.192267
30
0.0
11
21.557832
21
256.924901
31
0.0
0
LINE
8
Layer 1
62
4
5
178
100
AcDbEntity
100
AcDbLine
10
21.557832
20
256.924901
30
0.0
11
20.902707
21
257.321156
31
0.0
0
LINE
8
Layer 1
62
4
5
179
100
AcDbEntity
100
AcDbLine
10
20.902707
20
257.321156
30
0.0
11
21.308401
21
258.820461
31
0.0
0
LINE
8
Layer 1
62
4
5
17a
100
AcDbEntity
100
AcDbLine
10
21.308401
20
258.820461
30
0.0
11
21.308401
21
258.820461
31
0.0
  0
ENDSEC
  0
SECTION
  2
OBJECTS
  0
DICTIONARY
  5
C
330
0
100
AcDbDictionary
  3
ACAD_GROUP
350
D
  3
ACAD_MLINESTYLE
350
17
  0
DICTIONARY
  5
D
330
C
100
AcDbDictionary
  0
DICTIONARY
  5
1A
330
C
100
AcDbDictionary
  0
DICTIONARY
  5
17
330
C
100
AcDbDictionary
  3
STANDARD
350
18
  0
DICTIONARY
  5
19
330
C
100
AcDbDictionary
  0
ENDSEC
  0
EOF
