999
Inkscape export via "Better DXF Output" (bob@bobcookdev.com)
  0
SECTION
  2
HEADER
  9
$ACADVER
  1
AC1014
  9
$HANDSEED
  5
FFFF
  0
ENDSEC
  0
SECTION
  2
TABLES
  0
TABLE
  2
VPORT
  5
8
330
0
100
AcDbSymbolTable
 70
     4
  0
VPORT
  5
2E
330
8
100
AcDbSymbolTableRecord
100
AcDbViewportTableRecord
  2
*ACTIVE
 70
     0
 10
0.0
 20
0.0
 11
1.0
 21
1.0
 12
4.25
 22
5.5
 13
0.0
 23
0.0
 14
10.0
 24
10.0
 15
10.0
 25
10.0
 16
0.0
 26
0.0
 36
1.0
 17
0.0
 27
0.0
 37
0.0
 40
11
 41
1.24
 42
50.0
 43
0.0
 44
0.0
 50
0.0
 51
0.0
 71
     0
 72
   100
 73
     1
 74
     3
 75
     0
 76
     0
 77
     0
 78
     0
  0
ENDTAB
  0
TABLE
  2
LTYPE
  5
5
330
0
100
AcDbSymbolTable
 70
     1
  0
LTYPE
  5
14
330
5
100
AcDbSymbolTableRecord
100
AcDbLinetypeTableRecord
  2
BYBLOCK
 70
     0
  3

 72
    65
 73
     0
 40
0.0
  0
LTYPE
  5
15
330
5
100
AcDbSymbolTableRecord
100
AcDbLinetypeTableRecord
  2
BYLAYER
 70
     0
  3

 72
    65
 73
     0
 40
0.0
  0
LTYPE
  5
16
330
5
100
AcDbSymbolTableRecord
100
AcDbLinetypeTableRecord
  2
CONTINUOUS
 70
     0
  3
Solid line
 72
    65
 73
     0
 40
0.0
  0
ENDTAB
  0
TABLE
  2
LAYER
  5
2
330
0
100
AcDbSymbolTable
 70
1
  0
LAYER
  5
10
330
2
100
AcDbSymbolTableRecord
100
AcDbLayerTableRecord
  2
0
 70
     0
 62
     7
  6
CONTINUOUS
  0
ENDTAB
  0
TABLE
  2
STYLE
  5
3
330
0
100
AcDbSymbolTable
 70
     1
  0
STYLE
  5
11
330
3
100
AcDbSymbolTableRecord
100
AcDbTextStyleTableRecord
  2
STANDARD
 70
     0
 40
0.0
 41
1.0
 50
0.0
 71
     0
 42
2.5
  3
txt
  4

  0
ENDTAB
  0
TABLE
  2
VIEW
  5
6
330
0
100
AcDbSymbolTable
 70
     0
  0
ENDTAB
  0
TABLE
  2
UCS
  5
7
330
0
100
AcDbSymbolTable
 70
     0
  0
ENDTAB
  0
TABLE
  2
APPID
  5
9
330
0
100
AcDbSymbolTable
 70
     2
  0
APPID
  5
12
330
9
100
AcDbSymbolTableRecord
100
AcDbRegAppTableRecord
  2
ACAD
 70
     0
  0
ENDTAB
  0
TABLE
  2
DIMSTYLE
  5
A
330
0
100
AcDbSymbolTable
 70
     1
  0
DIMSTYLE
105
27
330
A
100
AcDbSymbolTableRecord
100
AcDbDimStyleTableRecord
  2
ISO-25
 70
     0
  3

  4

  5

  6

  7

 40
1.0
 41
2.5
 42
0.625
 43
3.75
 44
1.25
 45
0.0
 46
0.0
 47
0.0
 48
0.0
140
2.5
141
2.5
142
0.0
143
0.03937007874016
144
1.0
145
0.0
146
1.0
147
0.625
 71
     0
 72
     0
 73
     0
 74
     0
 75
     0
 76
     0
 77
     1
 78
     8
170
     0
171
     3
172
     1
173
     0
174
     0
175
     0
176
     0
177
     0
178
     0
270
     2
271
     2
272
     2
273
     2
274
     3
340
11
275
     0
280
     0
281
     0
282
     0
283
     0
284
     8
285
     0
286
     0
287
     3
288
     0
  0
ENDTAB
  0
TABLE
  2
BLOCK_RECORD
  5
1
330
0
100
AcDbSymbolTable
 70
     1
  0
BLOCK_RECORD
  5
1F
330
1
100
AcDbSymbolTableRecord
100
AcDbBlockTableRecord
  2
*MODEL_SPACE
  0
BLOCK_RECORD
  5
1B
330
1
100
AcDbSymbolTableRecord
100
AcDbBlockTableRecord
  2
*PAPER_SPACE
  0
ENDTAB
  0
ENDSEC
  0
SECTION
  2
BLOCKS
  0
BLOCK
  5
20
330
1F
100
AcDbEntity
  8
0
100
AcDbBlockBegin
  2
*MODEL_SPACE
 70
     0
 10
0.0
 20
0.0
 30
0.0
  3
*MODEL_SPACE
  1

  0
ENDBLK
  5
21
330
1F
100
AcDbEntity
  8
0
100
AcDbBlockEnd
  0
BLOCK
  5
1C
330
1B
100
AcDbEntity
 67
     1
  8
0
100
AcDbBlockBegin
  2
*PAPER_SPACE
  1

  0
ENDBLK
  5
1D
330
1B
100
AcDbEntity
 67
     1
  8
0
100
AcDbBlockEnd
  0
ENDSEC
  0
SECTION
  2
ENTITIES
0
LINE
8
Layer 1
62
4
5
100
100
AcDbEntity
100
AcDbLine
10
99.030262
20
159.205562
30
0.0
11
112.636404
21
159.205562
31
0.0
0
LINE
8
Layer 1
62
4
5
101
100
AcDbEntity
100
AcDbLine
10
112.636404
20
159.205562
30
0.0
11
113.181163
21
159.096121
31
0.0
0
LINE
8
Layer 1
62
4
5
102
100
AcDbEntity
100
AcDbLine
10
113.181163
20
159.096121
30
0.0
11
113.625081
21
158.797309
31
0.0
0
LINE
8
Layer 1
62
4
5
103
100
AcDbEntity
100
AcDbLine
10
113.625081
20
158.797309
30
0.0
11
113.923893
21
158.353391
31
0.0
0
LINE
8
Layer 1
62
4
5
104
100
AcDbEntity
100
AcDbLine
10
113.923893
20
158.353391
30
0.0
11
114.033334
21
157.808632
31
0.0
0
LINE
8
Layer 1
62
4
5
105
100
AcDbEntity
100
AcDbLine
10
114.033334
20
157.808632
30
0.0
11
114.033334
21
135.702493
31
0.0
0
LINE
8
Layer 1
62
4
5
106
100
AcDbEntity
100
AcDbLine
10
114.033334
20
135.702493
30
0.0
11
113.923893
21
135.157734
31
0.0
0
LINE
8
Layer 1
62
4
5
107
100
AcDbEntity
100
AcDbLine
10
113.923893
20
135.157734
30
0.0
11
113.625081
21
134.713816
31
0.0
0
LINE
8
Layer 1
62
4
5
108
100
AcDbEntity
100
AcDbLine
10
113.625081
20
134.713816
30
0.0
11
113.181163
21
134.415004
31
0.0
0
LINE
8
Layer 1
62
4
5
109
100
AcDbEntity
100
AcDbLine
10
113.181163
20
134.415004
30
0.0
11
112.636404
21
134.305563
31
0.0
0
LINE
8
Layer 1
62
4
5
10a
100
AcDbEntity
100
AcDbLine
10
112.636404
20
134.305563
30
0.0
11
99.030262
21
134.305563
31
0.0
0
LINE
8
Layer 1
62
4
5
10b
100
AcDbEntity
100
AcDbLine
10
99.030262
20
134.305563
30
0.0
11
98.485504
21
134.415004
31
0.0
0
LINE
8
Layer 1
62
4
5
10c
100
AcDbEntity
100
AcDbLine
10
98.485504
20
134.415004
30
0.0
11
98.041586
21
134.713816
31
0.0
0
LINE
8
Layer 1
62
4
5
10d
100
AcDbEntity
100
AcDbLine
10
98.041586
20
134.713816
30
0.0
11
97.742774
21
135.157734
31
0.0
0
LINE
8
Layer 1
62
4
5
10e
100
AcDbEntity
100
AcDbLine
10
97.742774
20
135.157734
30
0.0
11
97.633333
21
135.702493
31
0.0
0
LINE
8
Layer 1
62
4
5
10f
100
AcDbEntity
100
AcDbLine
10
97.633333
20
135.702493
30
0.0
11
97.633333
21
157.808632
31
0.0
0
LINE
8
Layer 1
62
4
5
110
100
AcDbEntity
100
AcDbLine
10
97.633333
20
157.808632
30
0.0
11
97.742774
21
158.353391
31
0.0
0
LINE
8
Layer 1
62
4
5
111
100
AcDbEntity
100
AcDbLine
10
97.742774
20
158.353391
30
0.0
11
98.041586
21
158.797309
31
0.0
0
LINE
8
Layer 1
62
4
5
112
100
AcDbEntity
100
AcDbLine
10
98.041586
20
158.797309
30
0.0
11
98.485504
21
159.096121
31
0.0
0
LINE
8
Layer 1
62
4
5
113
100
AcDbEntity
100
AcDbLine
10
98.485504
20
159.096121
30
0.0
11
99.030262
21
159.205562
31
0.0
0
LINE
8
Layer 1
62
4
5
114
100
AcDbEntity
100
AcDbLine
10
99.030262
20
159.205562
30
0.0
11
99.030262
21
159.205562
31
0.0
0
LINE
8
Layer 1
62
4
5
115
100
AcDbEntity
100
AcDbLine
10
99.532048
20
155.754608
30
0.0
11
99.400245
21
155.436409
31
0.0
0
LINE
8
Layer 1
62
4
5
116
100
AcDbEntity
100
AcDbLine
10
99.400245
20
155.436409
30
0.0
11
99.082047
21
155.304607
31
0.0
0
LINE
8
Layer 1
62
4
5
117
100
AcDbEntity
100
AcDbLine
10
99.082047
20
155.304607
30
0.0
11
98.763849
21
155.436409
31
0.0
0
LINE
8
Layer 1
62
4
5
118
100
AcDbEntity
100
AcDbLine
10
98.763849
20
155.436409
30
0.0
11
98.632047
21
155.754608
31
0.0
0
LINE
8
Layer 1
62
4
5
119
100
AcDbEntity
100
AcDbLine
10
98.632047
20
155.754608
30
0.0
11
98.763849
21
156.072806
31
0.0
0
LINE
8
Layer 1
62
4
5
11a
100
AcDbEntity
100
AcDbLine
10
98.763849
20
156.072806
30
0.0
11
99.082047
21
156.204608
31
0.0
0
LINE
8
Layer 1
62
4
5
11b
100
AcDbEntity
100
AcDbLine
10
99.082047
20
156.204608
30
0.0
11
99.400245
21
156.072806
31
0.0
0
LINE
8
Layer 1
62
4
5
11c
100
AcDbEntity
100
AcDbLine
10
99.400245
20
156.072806
30
0.0
11
99.532048
21
155.754608
31
0.0
0
LINE
8
Layer 1
62
4
5
11d
100
AcDbEntity
100
AcDbLine
10
99.532048
20
155.754608
30
0.0
11
99.532048
21
155.754608
31
0.0
0
LINE
8
Layer 1
62
4
5
11e
100
AcDbEntity
100
AcDbLine
10
99.532048
20
149.754078
30
0.0
11
99.400245
21
149.435880
31
0.0
0
LINE
8
Layer 1
62
4
5
11f
100
AcDbEntity
100
AcDbLine
10
99.400245
20
149.435880
30
0.0
11
99.082047
21
149.304077
31
0.0
0
LINE
8
Layer 1
62
4
5
120
100
AcDbEntity
100
AcDbLine
10
99.082047
20
149.304077
30
0.0
11
98.763849
21
149.435880
31
0.0
0
LINE
8
Layer 1
62
4
5
121
100
AcDbEntity
100
AcDbLine
10
98.763849
20
149.435880
30
0.0
11
98.632047
21
149.754078
31
0.0
0
LINE
8
Layer 1
62
4
5
122
100
AcDbEntity
100
AcDbLine
10
98.632047
20
149.754078
30
0.0
11
98.763849
21
150.072276
31
0.0
0
LINE
8
Layer 1
62
4
5
123
100
AcDbEntity
100
AcDbLine
10
98.763849
20
150.072276
30
0.0
11
99.082047
21
150.204078
31
0.0
0
LINE
8
Layer 1
62
4
5
124
100
AcDbEntity
100
AcDbLine
10
99.082047
20
150.204078
30
0.0
11
99.400245
21
150.072276
31
0.0
0
LINE
8
Layer 1
62
4
5
125
100
AcDbEntity
100
AcDbLine
10
99.400245
20
150.072276
30
0.0
11
99.532048
21
149.754078
31
0.0
0
LINE
8
Layer 1
62
4
5
126
100
AcDbEntity
100
AcDbLine
10
99.532048
20
149.754078
30
0.0
11
99.532048
21
149.754078
31
0.0
0
LINE
8
Layer 1
62
4
5
127
100
AcDbEntity
100
AcDbLine
10
99.532048
20
143.753999
30
0.0
11
99.400245
21
143.435803
31
0.0
0
LINE
8
Layer 1
62
4
5
128
100
AcDbEntity
100
AcDbLine
10
99.400245
20
143.435803
30
0.0
11
99.082047
21
143.304002
31
0.0
0
LINE
8
Layer 1
62
4
5
129
100
AcDbEntity
100
AcDbLine
10
99.082047
20
143.304002
30
0.0
11
98.763849
21
143.435803
31
0.0
0
LINE
8
Layer 1
62
4
5
12a
100
AcDbEntity
100
AcDbLine
10
98.763849
20
143.435803
30
0.0
11
98.632047
21
143.753999
31
0.0
0
LINE
8
Layer 1
62
4
5
12b
100
AcDbEntity
100
AcDbLine
10
98.632047
20
143.753999
30
0.0
11
98.763849
21
144.072199
31
0.0
0
LINE
8
Layer 1
62
4
5
12c
100
AcDbEntity
100
AcDbLine
10
98.763849
20
144.072199
30
0.0
11
99.082047
21
144.204000
31
0.0
0
LINE
8
Layer 1
62
4
5
12d
100
AcDbEntity
100
AcDbLine
10
99.082047
20
144.204000
30
0.0
11
99.400245
21
144.072199
31
0.0
0
LINE
8
Layer 1
62
4
5
12e
100
AcDbEntity
100
AcDbLine
10
99.400245
20
144.072199
30
0.0
11
99.532048
21
143.753999
31
0.0
0
LINE
8
Layer 1
62
4
5
12f
100
AcDbEntity
100
AcDbLine
10
99.532048
20
143.753999
30
0.0
11
99.532048
21
143.753999
31
0.0
0
LINE
8
Layer 1
62
4
5
130
100
AcDbEntity
100
AcDbLine
10
113.034617
20
149.754078
30
0.0
11
112.902816
21
149.435880
31
0.0
0
LINE
8
Layer 1
62
4
5
131
100
AcDbEntity
100
AcDbLine
10
112.902816
20
149.435880
30
0.0
11
112.584619
21
149.304077
31
0.0
0
LINE
8
Layer 1
62
4
5
132
100
AcDbEntity
100
AcDbLine
10
112.584619
20
149.304077
30
0.0
11
112.266420
21
149.435880
31
0.0
0
LINE
8
Layer 1
62
4
5
133
100
AcDbEntity
100
AcDbLine
10
112.266420
20
149.435880
30
0.0
11
112.134619
21
149.754078
31
0.0
0
LINE
8
Layer 1
62
4
5
134
100
AcDbEntity
100
AcDbLine
10
112.134619
20
149.754078
30
0.0
11
112.266420
21
150.072276
31
0.0
0
LINE
8
Layer 1
62
4
5
135
100
AcDbEntity
100
AcDbLine
10
112.266420
20
150.072276
30
0.0
11
112.584619
21
150.204078
31
0.0
0
LINE
8
Layer 1
62
4
5
136
100
AcDbEntity
100
AcDbLine
10
112.584619
20
150.204078
30
0.0
11
112.902816
21
150.072276
31
0.0
0
LINE
8
Layer 1
62
4
5
137
100
AcDbEntity
100
AcDbLine
10
112.902816
20
150.072276
30
0.0
11
113.034617
21
149.754078
31
0.0
0
LINE
8
Layer 1
62
4
5
138
100
AcDbEntity
100
AcDbLine
10
113.034617
20
149.754078
30
0.0
11
113.034617
21
149.754078
31
0.0
0
LINE
8
Layer 1
62
4
5
139
100
AcDbEntity
100
AcDbLine
10
99.532048
20
149.754078
30
0.0
11
99.400245
21
149.435880
31
0.0
0
LINE
8
Layer 1
62
4
5
13a
100
AcDbEntity
100
AcDbLine
10
99.400245
20
149.435880
30
0.0
11
99.082047
21
149.304077
31
0.0
0
LINE
8
Layer 1
62
4
5
13b
100
AcDbEntity
100
AcDbLine
10
99.082047
20
149.304077
30
0.0
11
98.763849
21
149.435880
31
0.0
0
LINE
8
Layer 1
62
4
5
13c
100
AcDbEntity
100
AcDbLine
10
98.763849
20
149.435880
30
0.0
11
98.632047
21
149.754078
31
0.0
0
LINE
8
Layer 1
62
4
5
13d
100
AcDbEntity
100
AcDbLine
10
98.632047
20
149.754078
30
0.0
11
98.763849
21
150.072276
31
0.0
0
LINE
8
Layer 1
62
4
5
13e
100
AcDbEntity
100
AcDbLine
10
98.763849
20
150.072276
30
0.0
11
99.082047
21
150.204078
31
0.0
0
LINE
8
Layer 1
62
4
5
13f
100
AcDbEntity
100
AcDbLine
10
99.082047
20
150.204078
30
0.0
11
99.400245
21
150.072276
31
0.0
0
LINE
8
Layer 1
62
4
5
140
100
AcDbEntity
100
AcDbLine
10
99.400245
20
150.072276
30
0.0
11
99.532048
21
149.754078
31
0.0
0
LINE
8
Layer 1
62
4
5
141
100
AcDbEntity
100
AcDbLine
10
99.532048
20
149.754078
30
0.0
11
99.532048
21
149.754078
31
0.0
0
LINE
8
Layer 1
62
4
5
142
100
AcDbEntity
100
AcDbLine
10
100.647985
20
157.706705
30
0.0
11
100.287554
21
157.615234
31
0.0
0
LINE
8
Layer 1
62
4
5
143
100
AcDbEntity
100
AcDbLine
10
100.287554
20
157.615234
30
0.0
11
100.251110
21
157.309830
31
0.0
0
LINE
8
Layer 1
62
4
5
144
100
AcDbEntity
100
AcDbLine
10
100.251110
20
157.309830
30
0.0
11
100.821943
21
156.640637
31
0.0
0
LINE
8
Layer 1
62
4
5
145
100
AcDbEntity
100
AcDbLine
10
100.821943
20
156.640637
30
0.0
11
101.036041
21
155.757608
31
0.0
0
LINE
8
Layer 1
62
4
5
146
100
AcDbEntity
100
AcDbLine
10
101.036041
20
155.757608
30
0.0
11
100.931327
21
155.127874
31
0.0
0
LINE
8
Layer 1
62
4
5
147
100
AcDbEntity
100
AcDbLine
10
100.931327
20
155.127874
30
0.0
11
100.640680
21
154.583135
31
0.0
0
LINE
8
Layer 1
62
4
5
148
100
AcDbEntity
100
AcDbLine
10
100.640680
20
154.583135
30
0.0
11
100.199346
21
154.158201
31
0.0
0
LINE
8
Layer 1
62
4
5
149
100
AcDbEntity
100
AcDbLine
10
100.199346
20
154.158201
30
0.0
11
99.642569
21
153.887885
31
0.0
0
LINE
8
Layer 1
62
4
5
14a
100
AcDbEntity
100
AcDbLine
10
99.642569
20
153.887885
30
0.0
11
99.274721
21
153.752826
31
0.0
0
LINE
8
Layer 1
62
4
5
14b
100
AcDbEntity
100
AcDbLine
10
99.274721
20
153.752826
30
0.0
11
99.131041
21
153.376358
31
0.0
0
LINE
8
Layer 1
62
4
5
14c
100
AcDbEntity
100
AcDbLine
10
99.131041
20
153.376358
30
0.0
11
99.131041
21
152.194552
31
0.0
0
LINE
8
Layer 1
62
4
5
14d
100
AcDbEntity
100
AcDbLine
10
99.131041
20
152.194552
30
0.0
11
99.341452
21
151.719628
31
0.0
0
LINE
8
Layer 1
62
4
5
14e
100
AcDbEntity
100
AcDbLine
10
99.341452
20
151.719628
30
0.0
11
99.739583
21
151.586010
31
0.0
0
LINE
8
Layer 1
62
4
5
14f
100
AcDbEntity
100
AcDbLine
10
99.739583
20
151.586010
30
0.0
11
100.259644
21
151.303671
31
0.0
0
LINE
8
Layer 1
62
4
5
150
100
AcDbEntity
100
AcDbLine
10
100.259644
20
151.303671
30
0.0
11
100.670025
21
150.883662
31
0.0
0
LINE
8
Layer 1
62
4
5
151
100
AcDbEntity
100
AcDbLine
10
100.670025
20
150.883662
30
0.0
11
100.939299
21
150.356215
31
0.0
0
LINE
8
Layer 1
62
4
5
152
100
AcDbEntity
100
AcDbLine
10
100.939299
20
150.356215
30
0.0
11
101.036041
21
149.751566
31
0.0
0
LINE
8
Layer 1
62
4
5
153
100
AcDbEntity
100
AcDbLine
10
101.036041
20
149.751566
30
0.0
11
100.933489
21
149.128636
31
0.0
0
LINE
8
Layer 1
62
4
5
154
100
AcDbEntity
100
AcDbLine
10
100.933489
20
149.128636
30
0.0
11
100.648653
21
148.588452
31
0.0
0
LINE
8
Layer 1
62
4
5
155
100
AcDbEntity
100
AcDbLine
10
100.648653
20
148.588452
30
0.0
11
100.215756
21
148.164599
31
0.0
0
LINE
8
Layer 1
62
4
5
156
100
AcDbEntity
100
AcDbLine
10
100.215756
20
148.164599
30
0.0
11
99.669027
21
147.890663
31
0.0
0
LINE
8
Layer 1
62
4
5
157
100
AcDbEntity
100
AcDbLine
10
99.669027
20
147.890663
30
0.0
11
99.264696
21
147.750856
31
0.0
0
LINE
8
Layer 1
62
4
5
158
100
AcDbEntity
100
AcDbLine
10
99.264696
20
147.750856
30
0.0
11
99.131041
21
147.352677
31
0.0
0
LINE
8
Layer 1
62
4
5
159
100
AcDbEntity
100
AcDbLine
10
99.131041
20
147.352677
30
0.0
11
99.131041
21
146.135594
31
0.0
0
LINE
8
Layer 1
62
4
5
15a
100
AcDbEntity
100
AcDbLine
10
99.131041
20
146.135594
30
0.0
11
99.295599
21
145.739988
31
0.0
0
LINE
8
Layer 1
62
4
5
15b
100
AcDbEntity
100
AcDbLine
10
99.295599
20
145.739988
30
0.0
11
99.642569
21
145.624066
31
0.0
0
LINE
8
Layer 1
62
4
5
15c
100
AcDbEntity
100
AcDbLine
10
99.642569
20
145.624066
30
0.0
11
100.199346
21
145.353750
31
0.0
0
LINE
8
Layer 1
62
4
5
15d
100
AcDbEntity
100
AcDbLine
10
100.199346
20
145.353750
30
0.0
11
100.640680
21
144.928816
31
0.0
0
LINE
8
Layer 1
62
4
5
15e
100
AcDbEntity
100
AcDbLine
10
100.640680
20
144.928816
30
0.0
11
100.931327
21
144.384076
31
0.0
0
LINE
8
Layer 1
62
4
5
15f
100
AcDbEntity
100
AcDbLine
10
100.931327
20
144.384076
30
0.0
11
101.036041
21
143.754344
31
0.0
0
LINE
8
Layer 1
62
4
5
160
100
AcDbEntity
100
AcDbLine
10
101.036041
20
143.754344
30
0.0
11
100.933489
21
143.131413
31
0.0
0
LINE
8
Layer 1
62
4
5
161
100
AcDbEntity
100
AcDbLine
10
100.933489
20
143.131413
30
0.0
11
100.648653
21
142.591229
31
0.0
0
LINE
8
Layer 1
62
4
5
162
100
AcDbEntity
100
AcDbLine
10
100.648653
20
142.591229
30
0.0
11
100.215756
21
142.167377
31
0.0
0
LINE
8
Layer 1
62
4
5
163
100
AcDbEntity
100
AcDbLine
10
100.215756
20
142.167377
30
0.0
11
99.669027
21
141.893441
31
0.0
0
LINE
8
Layer 1
62
4
5
164
100
AcDbEntity
100
AcDbLine
10
99.669027
20
141.893441
30
0.0
11
99.216561
21
141.699196
31
0.0
0
LINE
8
Layer 1
62
4
5
165
100
AcDbEntity
100
AcDbLine
10
99.216561
20
141.699196
30
0.0
11
99.131041
21
141.355455
31
0.0
0
LINE
8
Layer 1
62
4
5
166
100
AcDbEntity
100
AcDbLine
10
99.131041
20
141.355455
30
0.0
11
99.131041
21
137.033927
31
0.0
0
LINE
8
Layer 1
62
4
5
167
100
AcDbEntity
100
AcDbLine
10
99.131041
20
137.033927
30
0.0
11
99.221264
21
136.555228
31
0.0
0
LINE
8
Layer 1
62
4
5
168
100
AcDbEntity
100
AcDbLine
10
99.221264
20
136.555228
30
0.0
11
99.467180
21
136.165730
31
0.0
0
LINE
8
Layer 1
62
4
5
169
100
AcDbEntity
100
AcDbLine
10
99.467180
20
136.165730
30
0.0
11
99.831658
21
135.903854
31
0.0
0
LINE
8
Layer 1
62
4
5
16a
100
AcDbEntity
100
AcDbLine
10
99.831658
20
135.903854
30
0.0
11
100.277569
21
135.808024
31
0.0
0
LINE
8
Layer 1
62
4
5
16b
100
AcDbEntity
100
AcDbLine
10
100.277569
20
135.808024
30
0.0
11
111.390069
21
135.808024
31
0.0
0
LINE
8
Layer 1
62
4
5
16c
100
AcDbEntity
100
AcDbLine
10
111.390069
20
135.808024
30
0.0
11
111.835978
21
135.903854
31
0.0
0
LINE
8
Layer 1
62
4
5
16d
100
AcDbEntity
100
AcDbLine
10
111.835978
20
135.903854
30
0.0
11
112.200456
21
136.165730
31
0.0
0
LINE
8
Layer 1
62
4
5
16e
100
AcDbEntity
100
AcDbLine
10
112.200456
20
136.165730
30
0.0
11
112.446373
21
136.555228
31
0.0
0
LINE
8
Layer 1
62
4
5
16f
100
AcDbEntity
100
AcDbLine
10
112.446373
20
136.555228
30
0.0
11
112.536597
21
137.033927
31
0.0
0
LINE
8
Layer 1
62
4
5
170
100
AcDbEntity
100
AcDbLine
10
112.536597
20
137.033927
30
0.0
11
112.536597
21
147.335038
31
0.0
0
LINE
8
Layer 1
62
4
5
171
100
AcDbEntity
100
AcDbLine
10
112.536597
20
147.335038
30
0.0
11
112.378555
21
147.753102
31
0.0
0
LINE
8
Layer 1
62
4
5
172
100
AcDbEntity
100
AcDbLine
10
112.378555
20
147.753102
30
0.0
11
111.963333
21
147.908302
31
0.0
0
LINE
8
Layer 1
62
4
5
173
100
AcDbEntity
100
AcDbLine
10
111.963333
20
147.908302
30
0.0
11
111.430007
21
148.185343
31
0.0
0
LINE
8
Layer 1
62
4
5
174
100
AcDbEntity
100
AcDbLine
10
111.430007
20
148.185343
30
0.0
11
111.008361
21
148.605528
31
0.0
0
LINE
8
Layer 1
62
4
5
175
100
AcDbEntity
100
AcDbLine
10
111.008361
20
148.605528
30
0.0
11
110.731266
21
149.137916
31
0.0
0
LINE
8
Layer 1
62
4
5
176
100
AcDbEntity
100
AcDbLine
10
110.731266
20
149.137916
30
0.0
11
110.631597
21
149.751566
31
0.0
0
LINE
8
Layer 1
62
4
5
177
100
AcDbEntity
100
AcDbLine
10
110.631597
20
149.751566
30
0.0
11
110.731041
21
150.367201
31
0.0
0
LINE
8
Layer 1
62
4
5
178
100
AcDbEntity
100
AcDbLine
10
110.731041
20
150.367201
30
0.0
11
111.007761
21
150.902780
31
0.0
0
LINE
8
Layer 1
62
4
5
179
100
AcDbEntity
100
AcDbLine
10
111.007761
20
150.902780
30
0.0
11
111.429332
21
151.325772
31
0.0
0
LINE
8
Layer 1
62
4
5
17a
100
AcDbEntity
100
AcDbLine
10
111.429332
20
151.325772
30
0.0
11
111.963333
21
151.603649
31
0.0
0
LINE
8
Layer 1
62
4
5
17b
100
AcDbEntity
100
AcDbLine
10
111.963333
20
151.603649
30
0.0
11
111.972166
21
151.603649
31
0.0
0
LINE
8
Layer 1
62
4
5
17c
100
AcDbEntity
100
AcDbLine
10
111.972166
20
151.603649
30
0.0
11
112.337740
21
151.742101
31
0.0
0
LINE
8
Layer 1
62
4
5
17d
100
AcDbEntity
100
AcDbLine
10
112.337740
20
151.742101
30
0.0
11
112.536611
21
152.176913
31
0.0
0
LINE
8
Layer 1
62
4
5
17e
100
AcDbEntity
100
AcDbLine
10
112.536611
20
152.176913
30
0.0
11
112.536611
21
156.480802
31
0.0
0
LINE
8
Layer 1
62
4
5
17f
100
AcDbEntity
100
AcDbLine
10
112.536611
20
156.480802
30
0.0
11
112.446387
21
156.959502
31
0.0
0
LINE
8
Layer 1
62
4
5
180
100
AcDbEntity
100
AcDbLine
10
112.446387
20
156.959502
30
0.0
11
112.200471
21
157.349000
31
0.0
0
LINE
8
Layer 1
62
4
5
181
100
AcDbEntity
100
AcDbLine
10
112.200471
20
157.349000
30
0.0
11
111.835992
21
157.610875
31
0.0
0
LINE
8
Layer 1
62
4
5
182
100
AcDbEntity
100
AcDbLine
10
111.835992
20
157.610875
30
0.0
11
111.390083
21
157.706705
31
0.0
0
LINE
8
Layer 1
62
4
5
183
100
AcDbEntity
100
AcDbLine
10
111.390083
20
157.706705
30
0.0
11
100.647985
21
157.706705
31
0.0
  0
ENDSEC
  0
SECTION
  2
OBJECTS
  0
DICTIONARY
  5
C
330
0
100
AcDbDictionary
  3
ACAD_GROUP
350
D
  3
ACAD_MLINESTYLE
350
17
  0
DICTIONARY
  5
D
330
C
100
AcDbDictionary
  0
DICTIONARY
  5
1A
330
C
100
AcDbDictionary
  0
DICTIONARY
  5
17
330
C
100
AcDbDictionary
  3
STANDARD
350
18
  0
DICTIONARY
  5
19
330
C
100
AcDbDictionary
  0
ENDSEC
  0
EOF
