<?xml version="1.0" encoding="UTF-8" standalone="no"?>
<!-- Created with Inkscape (http://www.inkscape.org/) -->

<svg
   xmlns:dc="http://purl.org/dc/elements/1.1/"
   xmlns:cc="http://creativecommons.org/ns#"
   xmlns:rdf="http://www.w3.org/1999/02/22-rdf-syntax-ns#"
   xmlns:svg="http://www.w3.org/2000/svg"
   xmlns="http://www.w3.org/2000/svg"
   xmlns:sodipodi="http://sodipodi.sourceforge.net/DTD/sodipodi-0.dtd"
   xmlns:inkscape="http://www.inkscape.org/namespaces/inkscape"
   width="744.09448819"
   height="1052.3622047"
   id="svg1972"
   sodipodi:version="0.32"
   inkscape:version="0.46+devel"
   sodipodi:docname="tape.svg"
   inkscape:output_extension="org.inkscape.output.svg.inkscape">
  <defs
     id="defs1974">
    <inkscape:perspective
       sodipodi:type="inkscape:persp3d"
       inkscape:vp_x="0 : 526.18109 : 1"
       inkscape:vp_y="0 : 1000 : 0"
       inkscape:vp_z="744.09448 : 526.18109 : 1"
       inkscape:persp3d-origin="372.04724 : 350.78739 : 1"
       id="perspective1980" />
    <inkscape:perspective
       id="perspective1962"
       inkscape:persp3d-origin="0.5 : 0.33333333 : 1"
       inkscape:vp_z="1 : 0.5 : 1"
       inkscape:vp_y="0 : 1000 : 0"
       inkscape:vp_x="0 : 0.5 : 1"
       sodipodi:type="inkscape:persp3d" />
  </defs>
  <sodipodi:namedview
     id="base"
     pagecolor="#ffffff"
     bordercolor="#666666"
     borderopacity="1.0"
     inkscape:pageopacity="0.0"
     inkscape:pageshadow="2"
     inkscape:zoom="3.959798"
     inkscape:cx="63.907909"
     inkscape:cy="968.1297"
     inkscape:document-units="px"
     inkscape:current-layer="layer1"
     showgrid="false"
     inkscape:window-width="1280"
     inkscape:window-height="951"
     inkscape:window-x="0"
     inkscape:window-y="25" />
  <metadata
     id="metadata1977">
    <rdf:RDF>
      <cc:Work
         rdf:about="">
        <dc:format>image/svg+xml</dc:format>
        <dc:type
           rdf:resource="http://purl.org/dc/dcmitype/StillImage" />
        <dc:title></dc:title>
      </cc:Work>
    </rdf:RDF>
  </metadata>
  <g
     inkscape:label="Layer 1"
     inkscape:groupmode="layer"
     id="layer1">
    <path
       style="fill:none;stroke:#ff0000;stroke-width:0.35433072;stroke-miterlimit:4;stroke-opacity:1;stroke-dasharray:none;display:inline"
       d="m 11.65711,10.919261 0,88.593749 7.09375,0 1.75,0 4.25,0 0,-38.96875 -4.25,-17.5625 0,-32.062499 -8.84375,0 z"
       id="path814-4" />
    <path
       transform="matrix(0.92598424,0,0,0.92598424,-52.379431,-29.118924)"
       style="fill:none;stroke:#ff0000;stroke-width:0.38265306;stroke-linecap:round;stroke-linejoin:miter;stroke-miterlimit:4;stroke-dashoffset:0;stroke-opacity:1;display:inline"
       d="m 76.607145,56.647896 c 0,1.479334 -1.199237,2.678571 -2.678571,2.678571 -1.479335,0 -2.678572,-1.199237 -2.678572,-2.678571 0,-1.479334 1.199237,-2.678572 2.678572,-2.678572 1.479334,0 2.678571,1.199238 2.678571,2.678572 z"
       id="path820-4-9-5-5-4" />
    <path
       transform="matrix(0.92598424,0,0,0.92598424,-52.379431,-7.8572037)"
       style="fill:none;stroke:#ff0000;stroke-width:0.38265306;stroke-linecap:round;stroke-linejoin:miter;stroke-miterlimit:4;stroke-dashoffset:0;stroke-opacity:1;display:inline"
       d="m 76.607145,56.647896 c 0,1.479334 -1.199237,2.678571 -2.678571,2.678571 -1.479335,0 -2.678572,-1.199237 -2.678572,-2.678571 0,-1.479334 1.199237,-2.678572 2.678572,-2.678572 1.479334,0 2.678571,1.199238 2.678571,2.678572 z"
       id="path820-4-9-5-5-3" />
    <path
       transform="matrix(0.92598424,0,0,0.92598424,-52.379431,13.402913)"
       style="fill:none;stroke:#ff0000;stroke-width:0.38265306;stroke-linecap:round;stroke-linejoin:miter;stroke-miterlimit:4;stroke-dashoffset:0;stroke-opacity:1;display:inline"
       d="m 76.607145,56.647896 c 0,1.479334 -1.199237,2.678571 -2.678571,2.678571 -1.479335,0 -2.678572,-1.199237 -2.678572,-2.678571 0,-1.479334 1.199237,-2.678572 2.678572,-2.678572 1.479334,0 2.678571,1.199238 2.678571,2.678572 z"
       id="path820-4-9-5-5-5" />
    <path
       transform="matrix(0.92598424,0,0,0.92598424,-4.5356782,-7.8572037)"
       style="fill:none;stroke:#ff0000;stroke-width:0.38265306;stroke-linecap:round;stroke-linejoin:miter;stroke-miterlimit:4;stroke-dashoffset:0;stroke-opacity:1;display:inline"
       d="m 76.607145,56.647896 c 0,1.479334 -1.199237,2.678571 -2.678571,2.678571 -1.479335,0 -2.678572,-1.199237 -2.678572,-2.678571 0,-1.479334 1.199237,-2.678572 2.678572,-2.678572 1.479334,0 2.678571,1.199238 2.678571,2.678572 z"
       id="path820-4-9-5-5-43" />
    <path
       style="fill:none;stroke:#ff0000;stroke-width:0.35433072;stroke-miterlimit:4;stroke-opacity:1;stroke-dasharray:none;display:inline"
       d="m 68.34289,10.925641 0,88.593749 -7.09375,0 -1.75,0 -4.25,0 0,-38.96875 4.25,-17.562501 0,-32.062498 8.84375,0 z"
       id="path814-4-6" />
  </g>
</svg>
