<?xml version="1.0" encoding="UTF-8" standalone="no"?>
<!-- Created with Inkscape (http://www.inkscape.org/) -->

<svg
   xmlns:dc="http://purl.org/dc/elements/1.1/"
   xmlns:cc="http://creativecommons.org/ns#"
   xmlns:rdf="http://www.w3.org/1999/02/22-rdf-syntax-ns#"
   xmlns:svg="http://www.w3.org/2000/svg"
   xmlns="http://www.w3.org/2000/svg"
   xmlns:sodipodi="http://sodipodi.sourceforge.net/DTD/sodipodi-0.dtd"
   xmlns:inkscape="http://www.inkscape.org/namespaces/inkscape"
   width="744.09448"
   height="1052.3622"
   id="svg2"
   sodipodi:version="0.32"
   inkscape:version="0.48.0 r9654"
   sodipodi:docname="tape-mk2.svg"
   inkscape:output_extension="org.inkscape.output.svg.inkscape"
   version="1.1"
   style="display:inline">
  <defs
     id="defs4">
    <inkscape:perspective
       id="perspective915"
       inkscape:persp3d-origin="0.5 : 0.33333333 : 1"
       inkscape:vp_z="1 : 0.5 : 1"
       inkscape:vp_y="0 : 1000 : 0"
       inkscape:vp_x="0 : 0.5 : 1"
       sodipodi:type="inkscape:persp3d" />
    <inkscape:perspective
       id="perspective915-5"
       inkscape:persp3d-origin="0.5 : 0.33333333 : 1"
       inkscape:vp_z="1 : 0.5 : 1"
       inkscape:vp_y="0 : 1000 : 0"
       inkscape:vp_x="0 : 0.5 : 1"
       sodipodi:type="inkscape:persp3d" />
    <inkscape:perspective
       id="perspective915-3"
       inkscape:persp3d-origin="0.5 : 0.33333333 : 1"
       inkscape:vp_z="1 : 0.5 : 1"
       inkscape:vp_y="0 : 1000 : 0"
       inkscape:vp_x="0 : 0.5 : 1"
       sodipodi:type="inkscape:persp3d" />
    <inkscape:perspective
       id="perspective915-58"
       inkscape:persp3d-origin="0.5 : 0.33333333 : 1"
       inkscape:vp_z="1 : 0.5 : 1"
       inkscape:vp_y="0 : 1000 : 0"
       inkscape:vp_x="0 : 0.5 : 1"
       sodipodi:type="inkscape:persp3d" />
    <inkscape:perspective
       id="perspective915-0"
       inkscape:persp3d-origin="0.5 : 0.33333333 : 1"
       inkscape:vp_z="1 : 0.5 : 1"
       inkscape:vp_y="0 : 1000 : 0"
       inkscape:vp_x="0 : 0.5 : 1"
       sodipodi:type="inkscape:persp3d" />
    <inkscape:perspective
       id="perspective915-580"
       inkscape:persp3d-origin="0.5 : 0.33333333 : 1"
       inkscape:vp_z="1 : 0.5 : 1"
       inkscape:vp_y="0 : 1000 : 0"
       inkscape:vp_x="0 : 0.5 : 1"
       sodipodi:type="inkscape:persp3d" />
    <inkscape:perspective
       id="perspective915-4"
       inkscape:persp3d-origin="0.5 : 0.33333333 : 1"
       inkscape:vp_z="1 : 0.5 : 1"
       inkscape:vp_y="0 : 1000 : 0"
       inkscape:vp_x="0 : 0.5 : 1"
       sodipodi:type="inkscape:persp3d" />
    <inkscape:perspective
       id="perspective915-1"
       inkscape:persp3d-origin="0.5 : 0.33333333 : 1"
       inkscape:vp_z="1 : 0.5 : 1"
       inkscape:vp_y="0 : 1000 : 0"
       inkscape:vp_x="0 : 0.5 : 1"
       sodipodi:type="inkscape:persp3d" />
    <inkscape:perspective
       id="perspective1002"
       inkscape:persp3d-origin="0.5 : 0.33333333 : 1"
       inkscape:vp_z="1 : 0.5 : 1"
       inkscape:vp_y="0 : 1000 : 0"
       inkscape:vp_x="0 : 0.5 : 1"
       sodipodi:type="inkscape:persp3d" />
    <inkscape:perspective
       id="perspective1024"
       inkscape:persp3d-origin="0.5 : 0.33333333 : 1"
       inkscape:vp_z="1 : 0.5 : 1"
       inkscape:vp_y="0 : 1000 : 0"
       inkscape:vp_x="0 : 0.5 : 1"
       sodipodi:type="inkscape:persp3d" />
    <inkscape:perspective
       id="perspective1024-6"
       inkscape:persp3d-origin="0.5 : 0.33333333 : 1"
       inkscape:vp_z="1 : 0.5 : 1"
       inkscape:vp_y="0 : 1000 : 0"
       inkscape:vp_x="0 : 0.5 : 1"
       sodipodi:type="inkscape:persp3d" />
    <inkscape:perspective
       id="perspective1024-3"
       inkscape:persp3d-origin="0.5 : 0.33333333 : 1"
       inkscape:vp_z="1 : 0.5 : 1"
       inkscape:vp_y="0 : 1000 : 0"
       inkscape:vp_x="0 : 0.5 : 1"
       sodipodi:type="inkscape:persp3d" />
    <inkscape:perspective
       id="perspective1024-8"
       inkscape:persp3d-origin="0.5 : 0.33333333 : 1"
       inkscape:vp_z="1 : 0.5 : 1"
       inkscape:vp_y="0 : 1000 : 0"
       inkscape:vp_x="0 : 0.5 : 1"
       sodipodi:type="inkscape:persp3d" />
    <inkscape:perspective
       id="perspective1024-5"
       inkscape:persp3d-origin="0.5 : 0.33333333 : 1"
       inkscape:vp_z="1 : 0.5 : 1"
       inkscape:vp_y="0 : 1000 : 0"
       inkscape:vp_x="0 : 0.5 : 1"
       sodipodi:type="inkscape:persp3d" />
    <inkscape:perspective
       id="perspective1024-1"
       inkscape:persp3d-origin="0.5 : 0.33333333 : 1"
       inkscape:vp_z="1 : 0.5 : 1"
       inkscape:vp_y="0 : 1000 : 0"
       inkscape:vp_x="0 : 0.5 : 1"
       sodipodi:type="inkscape:persp3d" />
    <inkscape:perspective
       id="perspective1024-7"
       inkscape:persp3d-origin="0.5 : 0.33333333 : 1"
       inkscape:vp_z="1 : 0.5 : 1"
       inkscape:vp_y="0 : 1000 : 0"
       inkscape:vp_x="0 : 0.5 : 1"
       sodipodi:type="inkscape:persp3d" />
    <inkscape:perspective
       id="perspective1024-2"
       inkscape:persp3d-origin="0.5 : 0.33333333 : 1"
       inkscape:vp_z="1 : 0.5 : 1"
       inkscape:vp_y="0 : 1000 : 0"
       inkscape:vp_x="0 : 0.5 : 1"
       sodipodi:type="inkscape:persp3d" />
    <inkscape:perspective
       id="perspective1132"
       inkscape:persp3d-origin="0.5 : 0.33333333 : 1"
       inkscape:vp_z="1 : 0.5 : 1"
       inkscape:vp_y="0 : 1000 : 0"
       inkscape:vp_x="0 : 0.5 : 1"
       sodipodi:type="inkscape:persp3d" />
    <inkscape:perspective
       id="perspective1132-8"
       inkscape:persp3d-origin="0.5 : 0.33333333 : 1"
       inkscape:vp_z="1 : 0.5 : 1"
       inkscape:vp_y="0 : 1000 : 0"
       inkscape:vp_x="0 : 0.5 : 1"
       sodipodi:type="inkscape:persp3d" />
  </defs>
  <sodipodi:namedview
     id="base"
     pagecolor="#ffffff"
     bordercolor="#666666"
     borderopacity="1.0"
     inkscape:pageopacity="0.0"
     inkscape:pageshadow="2"
     inkscape:zoom="4"
     inkscape:cx="71.22713"
     inkscape:cy="950.24224"
     inkscape:document-units="mm"
     inkscape:current-layer="layer7"
     showgrid="true"
     showguides="false"
     inkscape:guide-bbox="true"
     inkscape:snap-bbox="false"
     inkscape:object-nodes="true"
     inkscape:snap-smooth-nodes="true"
     inkscape:snap-global="true"
     inkscape:window-width="1366"
     inkscape:window-height="694"
     inkscape:window-x="0"
     inkscape:window-y="25"
     inkscape:window-maximized="1">
    <inkscape:grid
       type="xygrid"
       id="grid824"
       empspacing="10"
       visible="true"
       enabled="true"
       snapvisiblegridlinesonly="true"
       units="mm"
       spacingx="0.1mm"
       spacingy="0.1mm" />
    <sodipodi:guide
       orientation="0,1"
       position="63.779528,903.5433"
       id="guide826" />
    <sodipodi:guide
       orientation="0,1"
       position="72.623278,992.13706"
       id="guide828" />
    <sodipodi:guide
       orientation="0,1"
       position="58.421875,980.25"
       id="guide862" />
    <sodipodi:guide
       orientation="0,1"
       position="44.755754,937.20312"
       id="guide886" />
    <sodipodi:guide
       orientation="1,0"
       position="72.282027,911.40672"
       id="guide124" />
    <sodipodi:guide
       orientation="1,0"
       position="113.38261,911.89768"
       id="guide938" />
  </sodipodi:namedview>
  <metadata
     id="metadata7">
    <rdf:RDF>
      <cc:Work
         rdf:about="">
        <dc:format>image/svg+xml</dc:format>
        <dc:type
           rdf:resource="http://purl.org/dc/dcmitype/StillImage" />
        <dc:title />
      </cc:Work>
    </rdf:RDF>
  </metadata>
  <g
     inkscape:groupmode="layer"
     id="layer7"
     inkscape:label="tape"
     style="display:inline">
    <path
       style="fill:none;stroke:#ff0000;stroke-width:0.35433072;stroke-miterlimit:4;stroke-opacity:1;stroke-dasharray:none"
       d="m 58.110236,60.236198 0,88.593752 14.514764,-0.0174 0,-19.34375 c -0.112574,0.0252 -0.223575,0.0313 -0.34375,0.0313 -0.880612,0 -1.59375,-0.71314 -1.59375,-1.59375 0,-0.88061 0.713138,-1.59375 1.59375,-1.59375 0.120175,0 0.231176,0.006 0.34375,0.0313 l 0,-9.59375 1.40625,-5.75 -2.9375,-4.71875 c -0.244042,-0.2801 -0.40625,-0.63057 -0.40625,-1.03125 0,-0.88061 0.713138,-1.59375 1.59375,-1.59375 l 3.625,-0.46875 0.96875,-4 0,-11.40625 -5.25,-2.6875 -0.0625,-0.03125 c -0.526621,-0.260345 -0.875,-0.810272 -0.875,-1.4375 0,-0.703883 0.460973,-1.288585 1.09375,-1.5 L 76.875,79 l 0,-18.78125 -4.25,0 -1.75,0 z"
       id="path814-4"
       inkscape:connector-curvature="0"
       sodipodi:nodetypes="ccccsssccccsccccccscccccc" />
    <path
       transform="matrix(0.92598424,0,0,0.92598424,-0.255291,20.180566)"
       style="fill:none;stroke:#ff0000;stroke-width:0.38265306;stroke-linecap:round;stroke-linejoin:miter;stroke-miterlimit:4;stroke-dashoffset:0;stroke-opacity:1;display:inline"
       d="m 76.607145,56.647896 c 0,1.479334 -1.199237,2.678571 -2.678571,2.678571 -1.479335,0 -2.678572,-1.199237 -2.678572,-2.678571 0,-1.479334 1.199237,-2.678572 2.678572,-2.678572 1.479334,0 2.678571,1.199238 2.678571,2.678572 z"
       id="path820-4-9-5-5-4" />
    <path
       transform="matrix(0.92598424,0,0,0.92598424,-0.255291,41.442286)"
       style="fill:none;stroke:#ff0000;stroke-width:0.38265306;stroke-linecap:round;stroke-linejoin:miter;stroke-miterlimit:4;stroke-dashoffset:0;stroke-opacity:1;display:inline"
       d="m 76.607145,56.647896 c 0,1.479334 -1.199237,2.678571 -2.678571,2.678571 -1.479335,0 -2.678572,-1.199237 -2.678572,-2.678571 0,-1.479334 1.199237,-2.678572 2.678572,-2.678572 1.479334,0 2.678571,1.199238 2.678571,2.678572 z"
       id="path820-4-9-5-5-3" />
    <path
       transform="matrix(0.92598424,0,0,0.92598424,-0.255291,62.702402)"
       style="fill:none;stroke:#ff0000;stroke-width:0.38265306;stroke-linecap:round;stroke-linejoin:miter;stroke-miterlimit:4;stroke-dashoffset:0;stroke-opacity:1;display:inline"
       d="m 76.607145,56.647896 c 0,1.479334 -1.199237,2.678571 -2.678571,2.678571 -1.479335,0 -2.678572,-1.199237 -2.678572,-2.678571 0,-1.479334 1.199237,-2.678572 2.678572,-2.678572 1.479334,0 2.678571,1.199238 2.678571,2.678572 z"
       id="path820-4-9-5-5-5" />
    <path
       transform="matrix(0.92598424,0,0,0.92598424,47.588462,41.442286)"
       style="fill:none;stroke:#ff0000;stroke-width:0.38265306;stroke-linecap:round;stroke-linejoin:miter;stroke-miterlimit:4;stroke-dashoffset:0;stroke-opacity:1;display:inline"
       d="m 76.607145,56.647896 c 0,1.479334 -1.199237,2.678571 -2.678571,2.678571 -1.479335,0 -2.678572,-1.199237 -2.678572,-2.678571 0,-1.479334 1.199237,-2.678572 2.678572,-2.678572 1.479334,0 2.678571,1.199238 2.678571,2.678572 z"
       id="path820-4-9-5-5-43" />
    <path
       style="fill:none;stroke:#ff0000;stroke-width:0.35433072;stroke-miterlimit:4;stroke-opacity:1;stroke-dasharray:none"
       d="m 107.375,60.21875 0,4.6875 5.5625,2.5625 c 0.38383,0.291168 0.625,0.762318 0.625,1.28125 0,0.499877 -0.23377,0.926402 -0.59375,1.21875 l -5.59375,4.3125 0,4.15625 7.0625,3.28125 c 0.3283,0.292058 0.53125,0.713524 0.53125,1.1875 0,0.456031 -0.1931,0.865633 -0.5,1.15625 l -7.09375,5.5625 0,9.5625 0.625,2.625 6.09375,2.375 c 0.51955,0.26281 0.875,0.78421 0.875,1.40625 0,0.30271 -0.0723,0.57142 -0.21875,0.8125 l -4.21875,5.84375 1.09375,4.5 3.15625,4.03125 c 0.1227,0.22593 0.1875,0.47481 0.1875,0.75 0,0.36168 -0.10956,0.70123 -0.3125,0.96875 l -3.03125,3.3125 0,13.71875 2.75,1.3125 c 0.36411,0.29223 0.59375,0.74679 0.59375,1.25 0,0.49081 -0.21371,0.92626 -0.5625,1.21875 -0.92744,0.70776 -1.85449,1.41625 -2.78125,2.125 l 0,3.375 14.51673,0.0174 0,-88.593752 -12.76673,-0.01745 -1.75,0 z"
       id="path814-4-6"
       inkscape:connector-curvature="0"
       sodipodi:nodetypes="cccsccccscccccsccccsccccscccccccc" />
  </g>
</svg>
