<?xml version="1.0" encoding="UTF-8" standalone="no"?>
<!-- Created with Inkscape (http://www.inkscape.org/) -->

<svg
   xmlns:dc="http://purl.org/dc/elements/1.1/"
   xmlns:cc="http://creativecommons.org/ns#"
   xmlns:rdf="http://www.w3.org/1999/02/22-rdf-syntax-ns#"
   xmlns:svg="http://www.w3.org/2000/svg"
   xmlns="http://www.w3.org/2000/svg"
   xmlns:sodipodi="http://sodipodi.sourceforge.net/DTD/sodipodi-0.dtd"
   xmlns:inkscape="http://www.inkscape.org/namespaces/inkscape"
   width="744.09448819"
   height="1052.3622047"
   id="svg1972"
   sodipodi:version="0.32"
   inkscape:version="0.46+devel"
   sodipodi:docname="tape.svg"
   inkscape:output_extension="org.inkscape.output.svg.inkscape">
  <defs
     id="defs1974">
    <inkscape:perspective
       sodipodi:type="inkscape:persp3d"
       inkscape:vp_x="0 : 526.18109 : 1"
       inkscape:vp_y="0 : 1000 : 0"
       inkscape:vp_z="744.09448 : 526.18109 : 1"
       inkscape:persp3d-origin="372.04724 : 350.78739 : 1"
       id="perspective1980" />
    <inkscape:perspective
       id="perspective1962"
       inkscape:persp3d-origin="0.5 : 0.33333333 : 1"
       inkscape:vp_z="1 : 0.5 : 1"
       inkscape:vp_y="0 : 1000 : 0"
       inkscape:vp_x="0 : 0.5 : 1"
       sodipodi:type="inkscape:persp3d" />
    <inkscape:perspective
       id="perspective199"
       inkscape:persp3d-origin="0.5 : 0.33333333 : 1"
       inkscape:vp_z="1 : 0.5 : 1"
       inkscape:vp_y="0 : 1000 : 0"
       inkscape:vp_x="0 : 0.5 : 1"
       sodipodi:type="inkscape:persp3d" />
    <inkscape:perspective
       id="perspective1169"
       inkscape:persp3d-origin="0.5 : 0.33333333 : 1"
       inkscape:vp_z="1 : 0.5 : 1"
       inkscape:vp_y="0 : 1000 : 0"
       inkscape:vp_x="0 : 0.5 : 1"
       sodipodi:type="inkscape:persp3d" />
  </defs>
  <sodipodi:namedview
     id="base"
     pagecolor="#ffffff"
     bordercolor="#666666"
     borderopacity="1.0"
     inkscape:pageopacity="0.0"
     inkscape:pageshadow="2"
     inkscape:zoom="3.959798"
     inkscape:cx="63.907909"
     inkscape:cy="968.1297"
     inkscape:document-units="px"
     inkscape:current-layer="layer1"
     showgrid="false"
     inkscape:window-width="1280"
     inkscape:window-height="951"
     inkscape:window-x="0"
     inkscape:window-y="25" />
  <metadata
     id="metadata1977">
    <rdf:RDF>
      <cc:Work
         rdf:about="">
        <dc:format>image/svg+xml</dc:format>
        <dc:type
           rdf:resource="http://purl.org/dc/dcmitype/StillImage" />
        <dc:title />
      </cc:Work>
    </rdf:RDF>
  </metadata>
  <g
     inkscape:label="Layer 1"
     inkscape:groupmode="layer"
     id="layer1">
    <path
       style="fill:none;stroke:#ff0000;stroke-width:0.35433072;stroke-miterlimit:4;stroke-opacity:1;stroke-dasharray:none;display:inline"
       d="m 8.2742795,9.7820625 0,88.5937535 8.8437505,0 0,-19.343754 c -0.112574,0.0252 -0.223575,0.0313 -0.34375,0.0313 -0.880612,0 -1.59375,-0.71314 -1.59375,-1.59375 0,-0.88061 0.713138,-1.59375 1.59375,-1.59375 0.120175,0 0.231176,0.006 0.34375,0.0313 l 0,-9.59375 1.40625,-5.75 -2.9375,-4.71875 c -0.244042,-0.2801 -0.40625,-0.63057 -0.40625,-1.03125 0,-0.88061 0.713138,-1.59375 1.59375,-1.59375 l 3.625,-0.46875 0.96875,-4 0,-11.40625 -5.25,-2.6875 -0.0625,-0.03125 c -0.526621,-0.260345 -0.875,-0.810272 -0.875,-1.4375 0,-0.703883 0.460973,-1.288585 1.09375,-1.5 l 5.09375,-3.1251 0,-18.7812495 -4.25,0 -1.75,0 -7.0937505,0 z"
       id="path814-4" />
    <path
       sodipodi:type="arc"
       style="fill:none;stroke:#ff0000;stroke-width:0.38265306;stroke-linecap:round;stroke-linejoin:miter;stroke-miterlimit:4;stroke-opacity:1;stroke-dasharray:none;stroke-dashoffset:0;display:inline"
       id="path820-4-9-5-5-4"
       sodipodi:cx="73.928574"
       sodipodi:cy="56.647896"
       sodipodi:rx="2.6785715"
       sodipodi:ry="2.6785715"
       d="m 76.607145,56.647896 a 2.6785715,2.6785715 0 1 1 -5.357143,0 2.6785715,2.6785715 0 1 1 5.357143,0 z"
       transform="matrix(0.92598424,0,0,0.92598424,-55.762261,-30.256122)" />
    <path
       sodipodi:type="arc"
       style="fill:none;stroke:#ff0000;stroke-width:0.38265306;stroke-linecap:round;stroke-linejoin:miter;stroke-miterlimit:4;stroke-opacity:1;stroke-dasharray:none;stroke-dashoffset:0;display:inline"
       id="path820-4-9-5-5-3"
       sodipodi:cx="73.928574"
       sodipodi:cy="56.647896"
       sodipodi:rx="2.6785715"
       sodipodi:ry="2.6785715"
       d="m 76.607145,56.647896 a 2.6785715,2.6785715 0 1 1 -5.357143,0 2.6785715,2.6785715 0 1 1 5.357143,0 z"
       transform="matrix(0.92598424,0,0,0.92598424,-55.762261,-8.9944025)" />
    <path
       sodipodi:type="arc"
       style="fill:none;stroke:#ff0000;stroke-width:0.38265306;stroke-linecap:round;stroke-linejoin:miter;stroke-miterlimit:4;stroke-opacity:1;stroke-dasharray:none;stroke-dashoffset:0;display:inline"
       id="path820-4-9-5-5-5"
       sodipodi:cx="73.928574"
       sodipodi:cy="56.647896"
       sodipodi:rx="2.6785715"
       sodipodi:ry="2.6785715"
       d="m 76.607145,56.647896 a 2.6785715,2.6785715 0 1 1 -5.357143,0 2.6785715,2.6785715 0 1 1 5.357143,0 z"
       transform="matrix(0.92598424,0,0,0.92598424,-55.762261,12.265715)" />
    <path
       sodipodi:type="arc"
       style="fill:none;stroke:#ff0000;stroke-width:0.38265306;stroke-linecap:round;stroke-linejoin:miter;stroke-miterlimit:4;stroke-opacity:1;stroke-dasharray:none;stroke-dashoffset:0;display:inline"
       id="path820-4-9-5-5-43"
       sodipodi:cx="73.928574"
       sodipodi:cy="56.647896"
       sodipodi:rx="2.6785715"
       sodipodi:ry="2.6785715"
       d="m 76.607145,56.647896 a 2.6785715,2.6785715 0 1 1 -5.357143,0 2.6785715,2.6785715 0 1 1 5.357143,0 z"
       transform="matrix(0.92598424,0,0,0.92598424,-7.9185085,-8.9944025)" />
    <path
       style="fill:none;stroke:#ff0000;stroke-width:0.35433072;stroke-miterlimit:4;stroke-opacity:1;stroke-dasharray:none;display:inline"
       d="m 51.86803,9.7820625 0,4.6875005 5.5625,2.5625 c 0.38383,0.291168 0.625,0.762318 0.625,1.28125 0,0.499877 -0.23377,0.926402 -0.59375,1.21875 l -5.59375,4.312499 0,4.15625 7.0625,3.28125 c 0.3283,0.292058 0.53125,0.713524 0.53125,1.1875 0,0.456031 -0.1931,0.865633 -0.5,1.15625 l -7.09375,5.5625 0,9.5625 0.625,2.625 6.09375,2.375 c 0.51955,0.26281 0.875,0.78421 0.875,1.40625 0,0.30271 -0.0723,0.57142 -0.21875,0.8125 l -4.21875,5.84375 1.09375,4.5 3.15625,4.03125 c 0.1227,0.22593 0.1875,0.47481 0.1875,0.75 0,0.36168 -0.10956,0.70123 -0.3125,0.96875 l -3.03125,3.3125 0,13.718754 2.75,1.3125 c 0.36411,0.29223 0.59375,0.74679 0.59375,1.25 0,0.49081 -0.21371,0.92626 -0.5625,1.21875 -0.92744,0.70776 -1.85449,1.41625 -2.78125,2.125 l 0,3.375 8.84375,0 0,-88.5937535 -7.09375,0 -1.75,0 -4.25,0 z"
       id="path814-4-6" />
  </g>
</svg>
