999
Inkscape export via "Better DXF Output" (bob@bobcookdev.com)
  0
SECTION
  2
HEADER
  9
$ACADVER
  1
AC1014
  9
$HANDSEED
  5
FFFF
  0
ENDSEC
  0
SECTION
  2
TABLES
  0
TABLE
  2
VPORT
  5
8
330
0
100
AcDbSymbolTable
 70
     4
  0
VPORT
  5
2E
330
8
100
AcDbSymbolTableRecord
100
AcDbViewportTableRecord
  2
*ACTIVE
 70
     0
 10
0.0
 20
0.0
 11
1.0
 21
1.0
 12
4.25
 22
5.5
 13
0.0
 23
0.0
 14
10.0
 24
10.0
 15
10.0
 25
10.0
 16
0.0
 26
0.0
 36
1.0
 17
0.0
 27
0.0
 37
0.0
 40
11
 41
1.24
 42
50.0
 43
0.0
 44
0.0
 50
0.0
 51
0.0
 71
     0
 72
   100
 73
     1
 74
     3
 75
     0
 76
     0
 77
     0
 78
     0
  0
ENDTAB
  0
TABLE
  2
LTYPE
  5
5
330
0
100
AcDbSymbolTable
 70
     1
  0
LTYPE
  5
14
330
5
100
AcDbSymbolTableRecord
100
AcDbLinetypeTableRecord
  2
BYBLOCK
 70
     0
  3

 72
    65
 73
     0
 40
0.0
  0
LTYPE
  5
15
330
5
100
AcDbSymbolTableRecord
100
AcDbLinetypeTableRecord
  2
BYLAYER
 70
     0
  3

 72
    65
 73
     0
 40
0.0
  0
LTYPE
  5
16
330
5
100
AcDbSymbolTableRecord
100
AcDbLinetypeTableRecord
  2
CONTINUOUS
 70
     0
  3
Solid line
 72
    65
 73
     0
 40
0.0
  0
ENDTAB
  0
TABLE
  2
LAYER
  5
2
330
0
100
AcDbSymbolTable
 70
1
  0
LAYER
  5
10
330
2
100
AcDbSymbolTableRecord
100
AcDbLayerTableRecord
  2
0
 70
     0
 62
     7
  6
CONTINUOUS
  0
ENDTAB
  0
TABLE
  2
STYLE
  5
3
330
0
100
AcDbSymbolTable
 70
     1
  0
STYLE
  5
11
330
3
100
AcDbSymbolTableRecord
100
AcDbTextStyleTableRecord
  2
STANDARD
 70
     0
 40
0.0
 41
1.0
 50
0.0
 71
     0
 42
2.5
  3
txt
  4

  0
ENDTAB
  0
TABLE
  2
VIEW
  5
6
330
0
100
AcDbSymbolTable
 70
     0
  0
ENDTAB
  0
TABLE
  2
UCS
  5
7
330
0
100
AcDbSymbolTable
 70
     0
  0
ENDTAB
  0
TABLE
  2
APPID
  5
9
330
0
100
AcDbSymbolTable
 70
     2
  0
APPID
  5
12
330
9
100
AcDbSymbolTableRecord
100
AcDbRegAppTableRecord
  2
ACAD
 70
     0
  0
ENDTAB
  0
TABLE
  2
DIMSTYLE
  5
A
330
0
100
AcDbSymbolTable
 70
     1
  0
DIMSTYLE
105
27
330
A
100
AcDbSymbolTableRecord
100
AcDbDimStyleTableRecord
  2
ISO-25
 70
     0
  3

  4

  5

  6

  7

 40
1.0
 41
2.5
 42
0.625
 43
3.75
 44
1.25
 45
0.0
 46
0.0
 47
0.0
 48
0.0
140
2.5
141
2.5
142
0.0
143
0.03937007874016
144
1.0
145
0.0
146
1.0
147
0.625
 71
     0
 72
     0
 73
     0
 74
     0
 75
     0
 76
     0
 77
     1
 78
     8
170
     0
171
     3
172
     1
173
     0
174
     0
175
     0
176
     0
177
     0
178
     0
270
     2
271
     2
272
     2
273
     2
274
     3
340
11
275
     0
280
     0
281
     0
282
     0
283
     0
284
     8
285
     0
286
     0
287
     3
288
     0
  0
ENDTAB
  0
TABLE
  2
BLOCK_RECORD
  5
1
330
0
100
AcDbSymbolTable
 70
     1
  0
BLOCK_RECORD
  5
1F
330
1
100
AcDbSymbolTableRecord
100
AcDbBlockTableRecord
  2
*MODEL_SPACE
  0
BLOCK_RECORD
  5
1B
330
1
100
AcDbSymbolTableRecord
100
AcDbBlockTableRecord
  2
*PAPER_SPACE
  0
ENDTAB
  0
ENDSEC
  0
SECTION
  2
BLOCKS
  0
BLOCK
  5
20
330
1F
100
AcDbEntity
  8
0
100
AcDbBlockBegin
  2
*MODEL_SPACE
 70
     0
 10
0.0
 20
0.0
 30
0.0
  3
*MODEL_SPACE
  1

  0
ENDBLK
  5
21
330
1F
100
AcDbEntity
  8
0
100
AcDbBlockEnd
  0
BLOCK
  5
1C
330
1B
100
AcDbEntity
 67
     1
  8
0
100
AcDbBlockBegin
  2
*PAPER_SPACE
  1

  0
ENDBLK
  5
1D
330
1B
100
AcDbEntity
 67
     1
  8
0
100
AcDbBlockEnd
  0
ENDSEC
  0
SECTION
  2
ENTITIES
0
LINE
8
tape
62
4
5
100
100
AcDbEntity
100
AcDbLine
10
16.400000
20
280.000005
30
0.0
11
16.400000
21
254.996879
31
0.0
0
LINE
8
tape
62
4
5
101
100
AcDbEntity
100
AcDbLine
10
16.400000
20
254.996879
30
0.0
11
20.496389
21
255.001790
31
0.0
0
LINE
8
tape
62
4
5
102
100
AcDbEntity
100
AcDbLine
10
20.496389
20
255.001790
30
0.0
11
20.496389
21
260.461026
31
0.0
0
LINE
8
tape
62
4
5
103
100
AcDbEntity
100
AcDbLine
10
20.496389
20
260.461026
30
0.0
11
20.399375
21
260.452193
31
0.0
0
LINE
8
tape
62
4
5
104
100
AcDbEntity
100
AcDbLine
10
20.399375
20
260.452193
30
0.0
11
20.081281
21
260.583891
31
0.0
0
LINE
8
tape
62
4
5
105
100
AcDbEntity
100
AcDbLine
10
20.081281
20
260.583891
30
0.0
11
19.949583
21
260.901984
31
0.0
0
LINE
8
tape
62
4
5
106
100
AcDbEntity
100
AcDbLine
10
19.949583
20
260.901984
30
0.0
11
20.081281
21
261.220078
31
0.0
0
LINE
8
tape
62
4
5
107
100
AcDbEntity
100
AcDbLine
10
20.081281
20
261.220078
30
0.0
11
20.399375
21
261.351776
31
0.0
0
LINE
8
tape
62
4
5
108
100
AcDbEntity
100
AcDbLine
10
20.399375
20
261.351776
30
0.0
11
20.496389
21
261.342942
31
0.0
0
LINE
8
tape
62
4
5
109
100
AcDbEntity
100
AcDbLine
10
20.496389
20
261.342942
30
0.0
11
20.496389
21
264.050512
31
0.0
0
LINE
8
tape
62
4
5
10a
100
AcDbEntity
100
AcDbLine
10
20.496389
20
264.050512
30
0.0
11
20.893264
21
265.673290
31
0.0
0
LINE
8
tape
62
4
5
10b
100
AcDbEntity
100
AcDbLine
10
20.893264
20
265.673290
30
0.0
11
20.064236
21
267.005026
31
0.0
0
LINE
8
tape
62
4
5
10c
100
AcDbEntity
100
AcDbLine
10
20.064236
20
267.005026
30
0.0
11
19.949583
21
267.296067
31
0.0
0
LINE
8
tape
62
4
5
10d
100
AcDbEntity
100
AcDbLine
10
19.949583
20
267.296067
30
0.0
11
20.081281
21
267.614161
31
0.0
0
LINE
8
tape
62
4
5
10e
100
AcDbEntity
100
AcDbLine
10
20.081281
20
267.614161
30
0.0
11
20.399375
21
267.745859
31
0.0
0
LINE
8
tape
62
4
5
10f
100
AcDbEntity
100
AcDbLine
10
20.399375
20
267.745859
30
0.0
11
21.422431
21
267.878151
31
0.0
0
LINE
8
tape
62
4
5
110
100
AcDbEntity
100
AcDbLine
10
21.422431
20
267.878151
30
0.0
11
21.695833
21
269.007040
31
0.0
0
LINE
8
tape
62
4
5
111
100
AcDbEntity
100
AcDbLine
10
21.695833
20
269.007040
30
0.0
11
21.695833
21
272.226137
31
0.0
0
LINE
8
tape
62
4
5
112
100
AcDbEntity
100
AcDbLine
10
21.695833
20
272.226137
30
0.0
11
20.214167
21
272.984609
31
0.0
0
LINE
8
tape
62
4
5
113
100
AcDbEntity
100
AcDbLine
10
20.214167
20
272.984609
30
0.0
11
20.196528
21
272.993429
31
0.0
0
LINE
8
tape
62
4
5
114
100
AcDbEntity
100
AcDbLine
10
20.196528
20
272.993429
30
0.0
11
19.949583
21
273.399123
31
0.0
0
LINE
8
tape
62
4
5
115
100
AcDbEntity
100
AcDbLine
10
19.949583
20
273.399123
30
0.0
11
20.036955
21
273.662909
31
0.0
0
LINE
8
tape
62
4
5
116
100
AcDbEntity
100
AcDbLine
10
20.036955
20
273.662909
30
0.0
11
20.258264
21
273.822456
31
0.0
0
LINE
8
tape
62
4
5
117
100
AcDbEntity
100
AcDbLine
10
20.258264
20
273.822456
30
0.0
11
21.695833
21
274.704443
31
0.0
0
LINE
8
tape
62
4
5
118
100
AcDbEntity
100
AcDbLine
10
21.695833
20
274.704443
30
0.0
11
21.695833
21
280.004929
31
0.0
0
LINE
8
tape
62
4
5
119
100
AcDbEntity
100
AcDbLine
10
21.695833
20
280.004929
30
0.0
11
20.496389
21
280.004929
31
0.0
0
LINE
8
tape
62
4
5
11a
100
AcDbEntity
100
AcDbLine
10
20.496389
20
280.004929
30
0.0
11
20.002500
21
280.004929
31
0.0
0
LINE
8
tape
62
4
5
11b
100
AcDbEntity
100
AcDbLine
10
20.002500
20
280.004929
30
0.0
11
16.400000
21
280.000005
31
0.0
0
LINE
8
tape
62
4
5
11c
100
AcDbEntity
100
AcDbLine
10
19.947952
20
276.500611
30
0.0
11
19.742926
21
276.005637
31
0.0
0
LINE
8
tape
62
4
5
11d
100
AcDbEntity
100
AcDbLine
10
19.742926
20
276.005637
30
0.0
11
19.247952
21
275.800611
31
0.0
0
LINE
8
tape
62
4
5
11e
100
AcDbEntity
100
AcDbLine
10
19.247952
20
275.800611
30
0.0
11
18.752977
21
276.005637
31
0.0
0
LINE
8
tape
62
4
5
11f
100
AcDbEntity
100
AcDbLine
10
18.752977
20
276.005637
30
0.0
11
18.547951
21
276.500611
31
0.0
0
LINE
8
tape
62
4
5
120
100
AcDbEntity
100
AcDbLine
10
18.547951
20
276.500611
30
0.0
11
18.752977
21
276.995586
31
0.0
0
LINE
8
tape
62
4
5
121
100
AcDbEntity
100
AcDbLine
10
18.752977
20
276.995586
30
0.0
11
19.247952
21
277.200611
31
0.0
0
LINE
8
tape
62
4
5
122
100
AcDbEntity
100
AcDbLine
10
19.247952
20
277.200611
30
0.0
11
19.742926
21
276.995586
31
0.0
0
LINE
8
tape
62
4
5
123
100
AcDbEntity
100
AcDbLine
10
19.742926
20
276.995586
30
0.0
11
19.947952
21
276.500611
31
0.0
0
LINE
8
tape
62
4
5
124
100
AcDbEntity
100
AcDbLine
10
19.947952
20
276.500611
30
0.0
11
19.947952
21
276.500611
31
0.0
0
LINE
8
tape
62
4
5
125
100
AcDbEntity
100
AcDbLine
10
19.947952
20
270.500081
30
0.0
11
19.742926
21
270.005107
31
0.0
0
LINE
8
tape
62
4
5
126
100
AcDbEntity
100
AcDbLine
10
19.742926
20
270.005107
30
0.0
11
19.247952
21
269.800081
31
0.0
0
LINE
8
tape
62
4
5
127
100
AcDbEntity
100
AcDbLine
10
19.247952
20
269.800081
30
0.0
11
18.752977
21
270.005107
31
0.0
0
LINE
8
tape
62
4
5
128
100
AcDbEntity
100
AcDbLine
10
18.752977
20
270.005107
30
0.0
11
18.547951
21
270.500081
31
0.0
0
LINE
8
tape
62
4
5
129
100
AcDbEntity
100
AcDbLine
10
18.547951
20
270.500081
30
0.0
11
18.752977
21
270.995056
31
0.0
0
LINE
8
tape
62
4
5
12a
100
AcDbEntity
100
AcDbLine
10
18.752977
20
270.995056
30
0.0
11
19.247952
21
271.200081
31
0.0
0
LINE
8
tape
62
4
5
12b
100
AcDbEntity
100
AcDbLine
10
19.247952
20
271.200081
30
0.0
11
19.742926
21
270.995056
31
0.0
0
LINE
8
tape
62
4
5
12c
100
AcDbEntity
100
AcDbLine
10
19.742926
20
270.995056
30
0.0
11
19.947952
21
270.500081
31
0.0
0
LINE
8
tape
62
4
5
12d
100
AcDbEntity
100
AcDbLine
10
19.947952
20
270.500081
30
0.0
11
19.947952
21
270.500081
31
0.0
0
LINE
8
tape
62
4
5
12e
100
AcDbEntity
100
AcDbLine
10
19.947952
20
264.500004
30
0.0
11
19.742926
21
264.005029
31
0.0
0
LINE
8
tape
62
4
5
12f
100
AcDbEntity
100
AcDbLine
10
19.742926
20
264.005029
30
0.0
11
19.247952
21
263.800004
31
0.0
0
LINE
8
tape
62
4
5
130
100
AcDbEntity
100
AcDbLine
10
19.247952
20
263.800004
30
0.0
11
18.752977
21
264.005029
31
0.0
0
LINE
8
tape
62
4
5
131
100
AcDbEntity
100
AcDbLine
10
18.752977
20
264.005029
30
0.0
11
18.547951
21
264.500004
31
0.0
0
LINE
8
tape
62
4
5
132
100
AcDbEntity
100
AcDbLine
10
18.547951
20
264.500004
30
0.0
11
18.752977
21
264.994979
31
0.0
0
LINE
8
tape
62
4
5
133
100
AcDbEntity
100
AcDbLine
10
18.752977
20
264.994979
30
0.0
11
19.247952
21
265.200004
31
0.0
0
LINE
8
tape
62
4
5
134
100
AcDbEntity
100
AcDbLine
10
19.247952
20
265.200004
30
0.0
11
19.742926
21
264.994979
31
0.0
0
LINE
8
tape
62
4
5
135
100
AcDbEntity
100
AcDbLine
10
19.742926
20
264.994979
30
0.0
11
19.947952
21
264.500004
31
0.0
0
LINE
8
tape
62
4
5
136
100
AcDbEntity
100
AcDbLine
10
19.947952
20
264.500004
30
0.0
11
19.947952
21
264.500004
31
0.0
0
LINE
8
tape
62
4
5
137
100
AcDbEntity
100
AcDbLine
10
33.450522
20
270.500081
30
0.0
11
33.245497
21
270.005107
31
0.0
0
LINE
8
tape
62
4
5
138
100
AcDbEntity
100
AcDbLine
10
33.245497
20
270.005107
30
0.0
11
32.750522
21
269.800081
31
0.0
0
LINE
8
tape
62
4
5
139
100
AcDbEntity
100
AcDbLine
10
32.750522
20
269.800081
30
0.0
11
32.255547
21
270.005107
31
0.0
0
LINE
8
tape
62
4
5
13a
100
AcDbEntity
100
AcDbLine
10
32.255547
20
270.005107
30
0.0
11
32.050522
21
270.500081
31
0.0
0
LINE
8
tape
62
4
5
13b
100
AcDbEntity
100
AcDbLine
10
32.050522
20
270.500081
30
0.0
11
32.255547
21
270.995056
31
0.0
0
LINE
8
tape
62
4
5
13c
100
AcDbEntity
100
AcDbLine
10
32.255547
20
270.995056
30
0.0
11
32.750522
21
271.200081
31
0.0
0
LINE
8
tape
62
4
5
13d
100
AcDbEntity
100
AcDbLine
10
32.750522
20
271.200081
30
0.0
11
33.245497
21
270.995056
31
0.0
0
LINE
8
tape
62
4
5
13e
100
AcDbEntity
100
AcDbLine
10
33.245497
20
270.995056
30
0.0
11
33.450522
21
270.500081
31
0.0
0
LINE
8
tape
62
4
5
13f
100
AcDbEntity
100
AcDbLine
10
33.450522
20
270.500081
30
0.0
11
33.450522
21
270.500081
31
0.0
0
LINE
8
tape
62
4
5
140
100
AcDbEntity
100
AcDbLine
10
30.303611
20
280.004929
30
0.0
11
30.303611
21
278.682013
31
0.0
0
LINE
8
tape
62
4
5
141
100
AcDbEntity
100
AcDbLine
10
30.303611
20
278.682013
30
0.0
11
31.873472
21
277.958818
31
0.0
0
LINE
8
tape
62
4
5
142
100
AcDbEntity
100
AcDbLine
10
31.873472
20
277.958818
30
0.0
11
32.049861
21
277.597221
31
0.0
0
LINE
8
tape
62
4
5
143
100
AcDbEntity
100
AcDbLine
10
32.049861
20
277.597221
30
0.0
11
31.882292
21
277.253263
31
0.0
0
LINE
8
tape
62
4
5
144
100
AcDbEntity
100
AcDbLine
10
31.882292
20
277.253263
30
0.0
11
30.303611
21
276.036179
31
0.0
0
LINE
8
tape
62
4
5
145
100
AcDbEntity
100
AcDbLine
10
30.303611
20
276.036179
30
0.0
11
30.303611
21
274.863193
31
0.0
0
LINE
8
tape
62
4
5
146
100
AcDbEntity
100
AcDbLine
10
30.303611
20
274.863193
30
0.0
11
32.296806
21
273.937151
31
0.0
0
LINE
8
tape
62
4
5
147
100
AcDbEntity
100
AcDbLine
10
32.296806
20
273.937151
30
0.0
11
32.446736
21
273.602013
31
0.0
0
LINE
8
tape
62
4
5
148
100
AcDbEntity
100
AcDbLine
10
32.446736
20
273.602013
30
0.0
11
32.305625
21
273.275693
31
0.0
0
LINE
8
tape
62
4
5
149
100
AcDbEntity
100
AcDbLine
10
32.305625
20
273.275693
30
0.0
11
30.303611
21
271.705832
31
0.0
0
LINE
8
tape
62
4
5
14a
100
AcDbEntity
100
AcDbLine
10
30.303611
20
271.705832
30
0.0
11
30.303611
21
269.007082
31
0.0
0
LINE
8
tape
62
4
5
14b
100
AcDbEntity
100
AcDbLine
10
30.303611
20
269.007082
30
0.0
11
30.480000
21
268.266249
31
0.0
0
LINE
8
tape
62
4
5
14c
100
AcDbEntity
100
AcDbLine
10
30.480000
20
268.266249
30
0.0
11
32.199792
21
267.595971
31
0.0
0
LINE
8
tape
62
4
5
14d
100
AcDbEntity
100
AcDbLine
10
32.199792
20
267.595971
30
0.0
11
32.446736
21
267.199096
31
0.0
0
LINE
8
tape
62
4
5
14e
100
AcDbEntity
100
AcDbLine
10
32.446736
20
267.199096
30
0.0
11
32.385000
21
266.969790
31
0.0
0
LINE
8
tape
62
4
5
14f
100
AcDbEntity
100
AcDbLine
10
32.385000
20
266.969790
30
0.0
11
31.194375
21
265.320554
31
0.0
0
LINE
8
tape
62
4
5
150
100
AcDbEntity
100
AcDbLine
10
31.194375
20
265.320554
30
0.0
11
31.503056
21
264.050554
31
0.0
0
LINE
8
tape
62
4
5
151
100
AcDbEntity
100
AcDbLine
10
31.503056
20
264.050554
30
0.0
11
32.393819
21
262.912846
31
0.0
0
LINE
8
tape
62
4
5
152
100
AcDbEntity
100
AcDbLine
10
32.393819
20
262.912846
30
0.0
11
32.446736
21
262.701179
31
0.0
0
LINE
8
tape
62
4
5
153
100
AcDbEntity
100
AcDbLine
10
32.446736
20
262.701179
30
0.0
11
32.358542
21
262.427776
31
0.0
0
LINE
8
tape
62
4
5
154
100
AcDbEntity
100
AcDbLine
10
32.358542
20
262.427776
30
0.0
11
31.503056
21
261.492915
31
0.0
0
LINE
8
tape
62
4
5
155
100
AcDbEntity
100
AcDbLine
10
31.503056
20
261.492915
30
0.0
11
31.503056
21
257.621179
31
0.0
0
LINE
8
tape
62
4
5
156
100
AcDbEntity
100
AcDbLine
10
31.503056
20
257.621179
30
0.0
11
32.279167
21
257.250763
31
0.0
0
LINE
8
tape
62
4
5
157
100
AcDbEntity
100
AcDbLine
10
32.279167
20
257.250763
30
0.0
11
32.446736
21
256.897985
31
0.0
0
LINE
8
tape
62
4
5
158
100
AcDbEntity
100
AcDbLine
10
32.446736
20
256.897985
30
0.0
11
32.287986
21
256.554026
31
0.0
0
LINE
8
tape
62
4
5
159
100
AcDbEntity
100
AcDbLine
10
32.287986
20
256.554026
30
0.0
11
31.503056
21
255.954304
31
0.0
0
LINE
8
tape
62
4
5
15a
100
AcDbEntity
100
AcDbLine
10
31.503056
20
255.954304
30
0.0
11
31.503056
21
255.001804
31
0.0
0
LINE
8
tape
62
4
5
15b
100
AcDbEntity
100
AcDbLine
10
31.503056
20
255.001804
30
0.0
11
35.599999
21
254.996894
31
0.0
0
LINE
8
tape
62
4
5
15c
100
AcDbEntity
100
AcDbLine
10
35.599999
20
254.996894
30
0.0
11
35.599999
21
280.000019
31
0.0
0
LINE
8
tape
62
4
5
15d
100
AcDbEntity
100
AcDbLine
10
35.599999
20
280.000019
30
0.0
11
31.996944
21
280.004944
31
0.0
0
LINE
8
tape
62
4
5
15e
100
AcDbEntity
100
AcDbLine
10
31.996944
20
280.004944
30
0.0
11
31.503056
21
280.004944
31
0.0
0
LINE
8
tape
62
4
5
15f
100
AcDbEntity
100
AcDbLine
10
31.503056
20
280.004944
30
0.0
11
30.303611
21
280.004929
31
0.0
  0
ENDSEC
  0
SECTION
  2
OBJECTS
  0
DICTIONARY
  5
C
330
0
100
AcDbDictionary
  3
ACAD_GROUP
350
D
  3
ACAD_MLINESTYLE
350
17
  0
DICTIONARY
  5
D
330
C
100
AcDbDictionary
  0
DICTIONARY
  5
1A
330
C
100
AcDbDictionary
  0
DICTIONARY
  5
17
330
C
100
AcDbDictionary
  3
STANDARD
350
18
  0
DICTIONARY
  5
19
330
C
100
AcDbDictionary
  0
ENDSEC
  0
EOF
